<svg viewBox="0 0 16 16" xmlns="http://www.w3.org/2000/svg">
  <path d="M0 1.14612C0 0.5135 0.529625 0 1.1825 0H14.8175C15.4706 0 16 0.5135 16 1.14612V14.8541C16 15.4869 15.4706 16 14.8175 16H1.1825C0.529688 16 0 15.4869 0 14.8542V1.14594V1.14612Z" fill="#006699"/>
  <path d="M4.84281 13.3364V6.16192H2.45813V13.3364H4.84306H4.84281ZM3.65096 5.18254C4.48238 5.18254 4.99999 4.63162 4.99999 3.94314C4.98443 3.23897 4.48238 2.70343 3.66678 2.70343C2.85061 2.70343 2.31757 3.23897 2.31757 3.94308C2.31757 4.63156 2.83499 5.18247 3.63534 5.18247H3.65078L3.65096 5.18254ZM6.16276 13.3364H8.54725V9.33025C8.54725 9.11611 8.56282 8.90141 8.62581 8.74847C8.79812 8.31987 9.19048 7.87622 9.8494 7.87622C10.7121 7.87622 11.0574 8.53408 11.0574 9.49864V13.3364H13.4418V9.22275C13.4418 7.01916 12.2655 5.99372 10.6966 5.99372C9.41035 5.99372 8.84543 6.71264 8.53156 7.2023H8.54744V6.16216H6.16288C6.19401 6.83521 6.1627 13.3366 6.1627 13.3366L6.16276 13.3364Z" fill="white"/>
</svg>
