<svg viewBox="0 0 16 16" xmlns="http://www.w3.org/2000/svg">
  <path d="M8.00005 6.15384C7.05665 6.15384 6.28577 6.98405 6.28577 7.99999C6.28577 9.01589 7.05665 9.84614 8.00005 9.84614C8.94342 9.84614 9.71434 9.01589 9.71434 7.99999C9.71434 6.98405 8.94342 6.15384 8.00005 6.15384Z"/>
  <path d="M0 8.00007C0 8.56951 0.26581 9.0953 0.693638 9.53909C1.1215 9.98287 1.71599 10.3614 2.4375 10.6779C3.88056 11.311 5.83837 11.6924 8 11.6924C10.1616 11.6924 12.1195 11.311 13.5625 10.6779C14.284 10.3614 14.8785 9.98287 15.3064 9.53909C15.7342 9.0953 16 8.56951 16 8.00007C16 7.43062 15.7342 6.90419 15.3064 6.46041C14.8785 6.01656 14.284 5.6381 13.5625 5.32155C12.1195 4.68851 10.1616 4.30777 8 4.30777C5.83837 4.30777 3.88056 4.68851 2.4375 5.32155C1.71599 5.6381 1.1215 6.01656 0.693638 6.46041C0.26581 6.90419 0 7.43062 0 8.00007ZM0.571987 8.00007C0.571987 7.63499 0.738103 7.27042 1.09096 6.90448C1.44379 6.53851 1.97903 6.18835 2.65346 5.8925C4.00232 5.30069 5.90134 4.92372 8 4.92372C10.0987 4.92372 11.9977 5.30069 13.3465 5.8925C14.021 6.18835 14.5562 6.53851 14.909 6.90448C15.2619 7.27042 15.428 7.63499 15.428 8.00007C15.428 8.36511 15.2619 8.72902 14.909 9.09502C14.5562 9.46095 14.021 9.81176 13.3465 10.1076C11.9977 10.6994 10.0987 11.0758 8 11.0758C5.90134 11.0758 4.00232 10.6994 2.65346 10.1076C1.97903 9.81176 1.44379 9.46095 1.09096 9.09502C0.738103 8.72902 0.571987 8.36511 0.571987 8.00007Z"/>
  <path d="M12.1702 15.7713C12.6308 15.4853 12.9139 14.9621 13.046 14.3262C13.1781 13.6903 13.1711 12.9256 13.0489 12.068C12.8035 10.3527 12.0881 8.26136 10.961 6.16109C9.83384 4.06082 8.50797 2.34858 7.24991 1.26237C6.62088 0.719228 6.00877 0.330382 5.43085 0.13549C4.85294 -0.0593712 4.29031 -0.0572275 3.82971 0.228864C3.36911 0.514986 3.08651 1.03781 2.95443 1.67368C2.82237 2.30956 2.82934 3.07427 2.95157 3.93187C3.19697 5.64712 3.91232 7.73854 5.03946 9.83882C6.1666 11.9391 7.49248 13.6513 8.75054 14.7375C9.37957 15.2807 9.99168 15.6695 10.5696 15.8644C11.1475 16.0593 11.7097 16.0574 12.1702 15.7713V15.7713ZM11.8838 15.2375C11.5953 15.4167 11.2187 15.4379 10.74 15.2764C10.2612 15.115 9.69922 14.7677 9.10859 14.2578C7.92727 13.2378 6.63195 11.5753 5.53493 9.53109C4.4379 7.48688 3.74722 5.44873 3.51679 3.83812C3.40159 3.03286 3.40311 2.33563 3.51253 1.80886C3.62196 1.28213 3.82724 0.941866 4.1157 0.762667C4.40419 0.583529 4.78079 0.56237 5.25953 0.723755C5.73828 0.8852 6.30071 1.23218 6.89137 1.74212C8.07266 2.76209 9.36752 4.42491 10.4645 6.46912C11.5616 8.5133 12.2528 10.5511 12.4832 12.1617C12.5984 12.967 12.5964 13.6645 12.4869 14.1913C12.3774 14.718 12.1722 15.0583 11.8837 15.2375H11.8838Z"/>
  <path d="M3.82972 15.7713C3.36912 15.4852 3.08607 14.962 2.95396 14.3261C2.82187 13.6902 2.82861 12.9261 2.9511 12.0684C3.19647 10.3531 3.91212 8.26109 5.03927 6.16073C6.16644 4.0604 7.49233 2.34813 8.75041 1.26186C9.37947 0.718719 9.99128 0.330361 10.5692 0.13547C11.1471 -0.0593914 11.7098 -0.0572785 12.1704 0.228844C12.631 0.514935 12.9136 1.0378 13.0457 1.6737C13.1777 2.30958 13.1711 3.07381 13.0485 3.93147C12.8031 5.64676 12.0878 7.7382 10.9606 9.83857C9.83344 11.9389 8.50724 13.6517 7.24916 14.7379C6.62013 15.2811 6.00826 15.6695 5.43038 15.8644C4.85246 16.0592 4.29032 16.0574 3.82972 15.7713V15.7713ZM4.1162 15.2375C4.40469 15.4166 4.78102 15.4383 5.25976 15.2768C5.73853 15.1155 6.3008 14.7676 6.89146 14.2577C8.07277 13.2377 9.36813 11.5751 10.4652 9.5308C11.5622 7.48656 12.2526 5.44893 12.483 3.83828C12.5982 3.03293 12.597 2.33519 12.4876 1.80839C12.3782 1.28162 12.1729 0.941395 11.8844 0.762196C11.5959 0.583027 11.2194 0.561838 10.7406 0.723284C10.2619 0.884729 9.69905 1.23218 9.10839 1.74221C7.92708 2.76218 6.63253 4.42453 5.5355 6.4688C4.43844 8.51307 3.74723 10.5509 3.5168 12.1616C3.4016 12.9669 3.40331 13.6649 3.51283 14.1917C3.62226 14.7185 3.82779 15.0583 4.11627 15.2375H4.1162Z"/>
</svg>
