<svg viewBox="0 0 16 16" xmlns="http://www.w3.org/2000/svg">
  <path d="M5.39759 15.9999C6.86958 15.9999 8.06423 14.8052 8.06423 13.3333V10.6666H5.39759C3.92561 10.6666 2.73096 11.8613 2.73096 13.3333C2.73096 14.8052 3.92561 15.9999 5.39759 15.9999Z" fill="#0ACF83"/>
  <path d="M2.73096 8.00001C2.73096 6.52803 3.92561 5.33337 5.39759 5.33337H8.06423V10.6666H5.39759C3.92561 10.6666 2.73096 9.47199 2.73096 8.00001Z" fill="#A259FF"/>
  <path d="M2.73096 2.66667C2.73096 1.19467 3.92561 0 5.39759 0H8.06423V5.33333H5.39759C3.92561 5.33333 2.73096 4.13867 2.73096 2.66667Z" fill="#F24E1E"/>
  <path d="M8.06433 0H10.731C12.203 0 13.3977 1.19467 13.3977 2.66667C13.3977 4.13867 12.203 5.33333 10.731 5.33333H8.06433V0Z" fill="#FF7262"/>
  <path d="M13.3977 8.00001C13.3977 9.47199 12.203 10.6666 10.731 10.6666C9.25901 10.6666 8.06433 9.47199 8.06433 8.00001C8.06433 6.52803 9.25901 5.33337 10.731 5.33337C12.203 5.33337 13.3977 6.52803 13.3977 8.00001Z" fill="#1ABCFE"/>
</svg>
