<svg viewBox="0 0 16 16" xmlns="http://www.w3.org/2000/svg">
  <path d="M4.87912 9.43673C5.68024 9.43673 6.32967 8.7873 6.32967 7.98618C6.32967 7.18506 5.68024 6.53563 4.87912 6.53563C4.078 6.53563 3.42857 7.18506 3.42857 7.98618C3.42857 8.7873 4.078 9.43673 4.87912 9.43673ZM1.45055 12.3378C2.25167 12.3378 2.9011 11.6884 2.9011 10.8873C2.9011 10.0862 2.25167 9.43673 1.45055 9.43673C0.649433 9.43673 0 10.0862 0 10.8873C0 11.6884 0.649433 12.3378 1.45055 12.3378ZM14.5495 12.3378C15.3506 12.3378 16 11.6884 16 10.8873C16 10.0862 15.3506 9.43673 14.5495 9.43673C13.7483 9.43673 13.0989 10.0862 13.0989 10.8873C13.0989 11.6884 13.7483 12.3378 14.5495 12.3378Z" fill="black"/>
  <path d="M9.78534 8.0473C9.73896 7.56268 9.71535 7.15932 9.34409 6.87582C8.87391 6.5168 8.34132 6.74975 7.68528 6.51296C7.04065 6.35701 6.5625 5.78466 6.5625 5.10247C6.5625 4.30029 7.22362 3.65 8.03915 3.65C8.64316 3.65 9.16248 4.00672 9.39122 4.51766C9.74131 5.18263 9.51378 5.85938 9.95364 6.20026C10.4745 6.60389 11.1766 6.30831 11.9601 6.69074C12.2119 6.80642 12.425 6.98991 12.5751 7.21731C12.7253 7.44471 12.8125 7.71604 12.8125 8.0074C12.8125 8.68959 12.3344 9.26194 11.6897 9.41789C11.0337 9.65468 10.5011 9.42172 10.0309 9.78075C9.50219 10.1845 9.78524 10.8599 9.35433 11.5734C9.10976 12.0432 8.61263 12.3648 8.03915 12.3648C7.22362 12.3648 6.5625 11.7145 6.5625 10.9123C6.5625 10.3296 6.91137 9.82703 7.41487 9.59566C8.19836 9.21324 8.90053 9.50882 9.42136 9.10519C9.72182 8.87234 9.78534 8.51314 9.78534 8.0473Z" fill="#D0021B"/>
</svg>
