<svg viewBox="0 0 16 16" xmlns="http://www.w3.org/2000/svg">
  <path d="M2.46635 10.2737L1.62938 10.5606L1.58484 12.8966L4.48199 11.9036C3.48747 11.5911 2.76218 11.0403 2.46635 10.2737" fill="#FDBD39"/>
  <path d="M2.90444 7.80286L0 8.79839L1.62938 10.5611L2.46635 10.2742C2.17118 9.5101 2.35333 8.64743 2.90444 7.80286Z" fill="#F69833"/>
  <path d="M7.79131 4.43134C4.09312 5.69883 1.70854 8.3149 2.46639 10.2735L15.8584 5.68324C15.1006 3.72461 11.4895 3.16385 7.79131 4.43134" fill="#FECF33"/>
  <path d="M10.5328 11.5261C14.2309 10.2587 16.6195 7.65443 15.8576 5.68396L2.4657 10.2736C3.22753 12.2447 6.83461 12.7936 10.5328 11.5261Z" fill="#EE6723"/>
  <path d="M15.8577 5.68335L2.46631 10.2736C2.72823 10.9523 3.72873 11.2866 5.13142 11.2866C6.49955 11.2866 8.25059 10.9691 10.0761 10.3435C13.7743 9.07601 16.3756 7.0232 15.8577 5.68335" fill="#F69833"/>
  <path d="M13.1926 4.67102C11.8251 4.67102 10.0734 4.98852 8.24794 5.61415C4.54976 6.88165 1.94846 8.93383 2.46633 10.2737L15.8584 5.68339C15.5958 5.00473 14.596 4.67102 13.1926 4.67102" fill="#FDBD39"/>
  <path d="M12.4526 13.0206C12.0584 13.0206 11.4774 12.6869 10.7249 12.0282C9.83477 11.2491 8.81568 10.1076 7.85375 8.81453C6.89249 7.52146 6.10274 6.22902 5.62942 5.17423C5.11422 4.02526 5.04043 3.31915 5.41071 3.07464C5.49647 3.01975 5.59818 2.99168 5.70188 2.99417C6.00302 2.99417 6.59068 3.20438 7.67626 4.2074L7.70019 4.22923L7.69686 4.26042C7.68955 4.33277 7.6829 4.40513 7.67692 4.47686L7.66496 4.61846L7.55859 4.51803C6.38859 3.41209 5.87406 3.29296 5.70653 3.29296C5.65867 3.29296 5.62078 3.30169 5.59352 3.31978C5.43265 3.42582 5.42201 3.94479 5.92192 5.05821C6.3866 6.09366 7.16505 7.36677 8.11368 8.64299C9.06297 9.91984 10.0668 11.0439 10.9416 11.8092C11.8843 12.6345 12.3091 12.7237 12.448 12.7237C12.4959 12.7237 12.5344 12.7143 12.5637 12.695C12.7332 12.5833 12.7332 12.0275 12.1761 10.8287L12.1502 10.7738L12.206 10.7451C12.2619 10.7164 12.3164 10.6883 12.3669 10.6609L12.434 10.6253L12.4653 10.6914C12.8602 11.541 13.2298 12.6207 12.7451 12.9401C12.6594 12.995 12.557 13.0231 12.4526 13.0206ZM12.4526 12.8896V12.9551V12.8896Z" fill="#EE6723"/>
  <path d="M10.6226 11.4899L10.6173 11.5547C10.5235 12.6401 10.2776 13.945 9.6354 13.998C9.6221 13.9993 9.60881 13.9993 9.59618 13.9993C9.16009 13.9993 8.74727 13.4129 8.37034 12.2571C8.01269 11.163 7.73549 9.69466 7.5899 8.12215C7.44365 6.54964 7.44565 5.05821 7.59588 3.92234C7.75942 2.68479 8.07053 2.03856 8.52124 2.00114C8.53454 1.99989 8.5485 1.99927 8.5618 1.99927C8.87823 1.99927 9.35487 2.33548 9.84281 3.90113L9.52438 3.95851C9.36151 3.4358 9.18402 3.01039 9.00786 2.71722C8.84499 2.44713 8.68611 2.29805 8.5618 2.29805C8.55781 2.29805 8.55382 2.29805 8.54916 2.29867C8.35372 2.31489 8.0692 2.75901 7.91099 3.95914C7.76341 5.07443 7.76141 6.54402 7.90567 8.09595C8.04992 9.6485 8.32248 11.095 8.67348 12.1691C8.83036 12.6501 9.00254 13.0468 9.17205 13.3156C9.32761 13.5639 9.47851 13.7005 9.59618 13.7005C9.60017 13.7005 9.60416 13.7005 9.60814 13.6999C9.79494 13.6849 10.1473 13.2221 10.2955 11.5947L10.6226 11.4899Z" fill="#EE6723"/>
</svg>
