<svg viewBox="0 0 16 16" xmlns="http://www.w3.org/2000/svg">
  <path d="M0 8V0H16V16H0" fill="#007ACC"/>
  <path d="M3.508 8.02802V8.68003H5.58802V14.6001H7.06403V8.68003H9.14406V8.04002C9.14406 7.68001 9.14406 7.38801 9.12806 7.38001C9.12806 7.36801 7.86004 7.36401 6.32003 7.36401L3.52 7.37601V8.03202L3.508 8.02802V8.02802ZM12.8561 7.36001C13.2641 7.45601 13.5761 7.64001 13.8561 7.93202C14.0041 8.09202 14.2241 8.37203 14.2401 8.44403C14.2401 8.46803 13.5481 8.93603 13.1281 9.19604C13.1121 9.20804 13.0481 9.14004 12.9841 9.03604C12.7761 8.74003 12.5641 8.61203 12.2321 8.58803C11.7521 8.55603 11.4321 8.80803 11.4321 9.22804C11.4321 9.35604 11.4561 9.42804 11.5041 9.53204C11.6121 9.75205 11.8121 9.88405 12.4321 10.1561C13.5761 10.6481 14.0721 10.9721 14.3721 11.4361C14.7121 11.9561 14.7881 12.7721 14.5601 13.3841C14.3041 14.0521 13.6801 14.5041 12.7881 14.6521C12.5081 14.7001 11.8681 14.6921 11.5681 14.6401C10.9281 14.5201 10.3161 14.2001 9.94007 13.7881C9.79206 13.6281 9.50806 13.2001 9.52406 13.1721L9.67606 13.0761L10.2761 12.7281L10.7281 12.4641L10.8321 12.6041C10.9641 12.8121 11.2601 13.0921 11.4321 13.1881C11.9521 13.4561 12.6481 13.4201 12.9921 13.1081C13.1401 12.9721 13.2041 12.8281 13.2041 12.6281C13.2041 12.4441 13.1761 12.3601 13.0841 12.2201C12.9561 12.0441 12.7001 11.9001 11.9801 11.5801C11.1521 11.2281 10.8001 11.0041 10.4721 10.6601C10.2841 10.4521 10.1121 10.1281 10.0321 9.86005C9.97207 9.62805 9.95207 9.06004 10.0081 8.83203C10.1801 8.03202 10.7841 7.47201 11.6481 7.31201C11.9281 7.25601 12.5881 7.28001 12.8641 7.35201L12.8561 7.36001V7.36001Z" fill="white"/>
</svg>
