<svg viewBox="0 0 16 16" xmlns="http://www.w3.org/2000/svg">
  <path d="M7.99994 0L15.0705 4.00001V12L7.99994 16L0.929337 12V4.00001L7.99994 0Z" fill="white"/>
  <path d="M13.8081 11.724L8.23337 14.8773V12.4213L11.7067 10.5106L13.8081 11.724ZM14.1894 11.3786V4.784L12.1494 5.96133V10.2L14.1894 11.3786ZM2.16934 11.724L7.74403 14.8773V12.4213L4.27068 10.5106L2.16934 11.724V11.724ZM1.788 11.3786V4.784L3.82801 5.96133V10.2L1.788 11.3786V11.3786ZM2.02667 4.35733L7.74403 1.12268V3.49734L4.08135 5.51199L4.05335 5.52799L2.02667 4.35733V4.35733ZM13.9507 4.35733L8.23337 1.12268V3.49734L11.8961 5.51199L11.9241 5.52799L13.9507 4.35733V4.35733Z" fill="#8ED6FB"/>
  <path d="M7.74398 11.8627L4.31734 9.97867V6.24533L7.74398 8.224V11.8627ZM8.2333 11.8627L11.6599 9.97867V6.24533L8.2333 8.224V11.8627ZM4.54934 5.81333L7.98931 3.92133L11.4293 5.81333L7.98931 7.8L4.54934 5.81333" fill="#1C78C0"/>
</svg>
