<svg viewBox="0 0 16 16" xmlns="http://www.w3.org/2000/svg">
  <path d="M7.30076 11.756C6.87928 11.1154 6.00261 10.9468 5.37883 11.3851L4.67075 11.8741C4.51902 11.9752 4.283 11.9415 4.18184 11.8066C3.03543 10.3062 2.27677 8.60341 1.93959 6.74892C1.90588 6.56347 2.04075 6.37802 2.20934 6.32744L3.05229 6.12514C3.79408 5.93969 4.24928 5.18103 4.06383 4.43924L3.52434 2.36558C3.35575 1.7418 2.66453 1.40462 2.07447 1.6575C-0.184639 2.63532 -0.67355 6.46232 0.978632 10.1713C2.63081 13.8803 5.80031 16.0888 8.04255 15.0941C8.63262 14.8244 8.85178 14.0994 8.49775 13.5431L7.30076 11.756Z" fill="#5898D1"/>
  <rect x="7" y="3" width="8" height="3" fill="#FFFFFF"/>
  <path d="M11.0603 1C8.32915 1 6.10377 2.56789 6.10377 4.48981C6.10377 5.43392 6.64326 6.29373 7.51992 6.93437C7.38505 7.28841 7.11531 7.89533 6.74441 8.4011C6.5421 8.67084 6.79499 9.02488 7.11531 8.94059C8.12685 8.67084 9.05409 8.16507 9.59358 7.82789C10.0488 7.92905 10.5377 7.97963 11.0435 7.97963C13.7746 7.97963 16 6.41174 16 4.48981C16 2.56789 13.7915 1 11.0603 1ZM8.70005 5.16417C8.3123 5.16417 8.00883 4.86071 8.00883 4.47295C8.00883 4.0852 8.3123 3.78173 8.70005 3.78173C9.07095 3.78173 9.39127 4.0852 9.39127 4.47295C9.39127 4.86071 9.08781 5.16417 8.70005 5.16417ZM11.0603 5.16417C10.6726 5.16417 10.3691 4.86071 10.3691 4.47295C10.3691 4.0852 10.6726 3.78173 11.0603 3.78173C11.4481 3.78173 11.7515 4.0852 11.7515 4.47295C11.7515 4.86071 11.4481 5.16417 11.0603 5.16417ZM13.4206 5.16417C13.0497 5.16417 12.7294 4.86071 12.7294 4.47295C12.7294 4.0852 13.0328 3.78173 13.4206 3.78173C13.8083 3.78173 14.1118 4.0852 14.1118 4.47295C14.1118 4.86071 13.7915 5.16417 13.4206 5.16417Z" fill="#9EC6EC"/>
</svg>
