<svg viewBox="0 0 16 16" xmlns="http://www.w3.org/2000/svg">
  <path d="M7.99994 4.35753C7.27887 4.35753 6.574 4.57135 5.97446 4.97195C5.37492 5.37255 4.90763 5.94194 4.63169 6.60812C4.35575 7.2743 4.28355 8.00734 4.42423 8.71455C4.5649 9.42176 4.91212 10.0714 5.42199 10.5812C5.93186 11.0911 6.58148 11.4383 7.28868 11.579C7.99589 11.7197 8.72893 11.6475 9.39511 11.3715C10.0613 11.0956 10.6307 10.6283 11.0313 10.0288C11.4319 9.42923 11.6457 8.72436 11.6457 8.00329C11.6445 7.03673 11.2601 6.11008 10.5766 5.42662C9.89315 4.74316 8.9665 4.35868 7.99994 4.35753V4.35753Z" fill="#478AFF"/>
  <path d="M13.2346 4.68075C14.1518 4.68075 14.8953 3.93722 14.8953 3.02002C14.8953 2.10283 14.1518 1.3593 13.2346 1.3593C12.3174 1.3593 11.5739 2.10283 11.5739 3.02002C11.5739 3.93722 12.3174 4.68075 13.2346 4.68075Z" fill="#478AFF"/>
  <path d="M15.2795 4.68945L15.2099 4.53709L15.101 4.66333C14.8288 4.97227 14.4845 5.20926 14.0987 5.3533L13.9899 5.39248L14.0334 5.50131C14.6199 6.91177 14.6942 8.48305 14.2432 9.94253C13.7923 11.402 12.8447 12.6576 11.5648 13.4914C10.285 14.3253 8.75355 14.6847 7.23632 14.5075C5.7191 14.3303 4.31179 13.6275 3.25856 12.5211C2.20534 11.4147 1.57266 9.97448 1.4703 8.45037C1.36794 6.92626 1.80235 5.4144 2.69817 4.17711C3.59399 2.93981 4.89469 2.05515 6.37459 1.67662C7.8545 1.29809 9.42022 1.44956 10.8001 2.10477L10.9024 2.15374L10.947 2.04491C11.1097 1.66664 11.3631 1.33433 11.6849 1.07743L11.8155 0.968599L11.6664 0.89133C10.5337 0.302633 9.27538 -0.00317296 7.99886 2.48233e-05C6.27055 0.000273004 4.5888 0.560216 3.2053 1.59605C1.8218 2.63189 0.810953 4.08791 0.324043 5.7462C-0.162866 7.4045 -0.0996508 9.17589 0.504229 10.7953C1.10811 12.4146 2.22017 13.7949 3.67399 14.7295C5.12781 15.6641 6.8452 16.1027 8.56913 15.9797C10.2931 15.8568 11.9308 15.1789 13.2373 14.0474C14.5437 12.916 15.4487 11.3919 15.8166 9.70317C16.1846 8.01449 15.9957 6.25207 15.2784 4.67966L15.2795 4.68945Z" fill="#478AFF"/>
</svg>
