<svg width="20" height="20" viewBox="0 0 20 20" fill="none" xmlns="http://www.w3.org/2000/svg">
<g clip-path="url(#clip0)">
<path d="M11.1547 -0.625004H8.84793V20.625H11.1547V-0.625004Z" fill="#F10002"/>
<path d="M20 8.17856H0V11.8214H20V8.17856Z" fill="#F10002"/>
<path d="M2.15198 -0.625011L8.42854 6.96427V-0.625011H2.15198Z" fill="#092C70"/>
<path d="M0 1.19644V7.57143H5.55924L0 1.19644Z" fill="#092C70"/>
<path d="M0.00012207 -0.625V0.285714L6.45601 7.57142H7.35267L0.00012207 -0.625Z" fill="#F10002"/>
<path d="M17.8487 -0.625008L11.574 6.96427V-0.625008H17.8487Z" fill="#092C70"/>
<path d="M20 1.19644V7.57143H14.4425L20 1.19644Z" fill="#092C70"/>
<path d="M20 -0.625V0.285714L13.5461 7.57142H12.6497L20 -0.625Z" fill="#F10002"/>
<path d="M17.8487 20.625L11.574 13.0357V20.625H17.8487Z" fill="#092C70"/>
<path d="M20 18.8035V12.4285H14.4425L20 18.8035Z" fill="#092C70"/>
<path d="M20 20.625V19.7143L13.5461 12.4285H12.6497L20 20.625Z" fill="#F10002"/>
<path d="M6.27658 12.4286L1.28597e-05 20.0178V12.4286H6.27658Z" fill="#092C70"/>
<path d="M8.42856 14.25V20.625H2.86931L8.42856 14.25Z" fill="#092C70"/>
<path d="M8.42856 12.4286V13.3393L1.97266 20.625H1.07601L8.42856 12.4286Z" fill="#F10002"/>
</g>
<defs>
<clipPath id="clip0">
<rect width="20" height="20" rx="10" fill="white"/>
</clipPath>
</defs>
</svg>
