<svg width="18" height="18" viewBox="0 0 18 18" fill="none" xmlns="http://www.w3.org/2000/svg">
<g clip-path="url(#clip0)">
<path d="M10.0392 -0.562504H7.96313V18.5625H10.0392V-0.562504Z" fill="#F10002"/>
<path d="M18 7.36071H0V10.6393H18V7.36071Z" fill="#F10002"/>
<path d="M1.93677 -0.562511L7.58567 6.26784V-0.562511H1.93677Z" fill="#092C70"/>
<path d="M0 1.07679V6.81429H5.00332L0 1.07679Z" fill="#092C70"/>
<path d="M0.00012207 -0.5625V0.257142L5.81042 6.81428H6.61741L0.00012207 -0.5625Z" fill="#F10002"/>
<path d="M16.0638 -0.562508L10.4166 6.26785V-0.562508H16.0638Z" fill="#092C70"/>
<path d="M18 1.07679V6.81429H12.9982L18 1.07679Z" fill="#092C70"/>
<path d="M18 -0.5625V0.257142L12.1915 6.81428H11.3847L18 -0.5625Z" fill="#F10002"/>
<path d="M16.0638 18.5625L10.4166 11.7321V18.5625H16.0638Z" fill="#092C70"/>
<path d="M18 16.9232V11.1857H12.9982L18 16.9232Z" fill="#092C70"/>
<path d="M18 18.5625V17.7428L12.1915 11.1857H11.3847L18 18.5625Z" fill="#F10002"/>
<path d="M5.6489 11.1857L-1.57356e-05 18.0161V11.1857H5.6489Z" fill="#092C70"/>
<path d="M7.58569 12.825V18.5625H2.58237L7.58569 12.825Z" fill="#092C70"/>
<path d="M7.58569 11.1857V12.0054L1.77539 18.5625H0.968399L7.58569 11.1857Z" fill="#F10002"/>
</g>
<defs>
<clipPath id="clip0">
<rect width="18" height="18" rx="9" fill="white"/>
</clipPath>
</defs>
</svg>
