<svg viewBox="0 0 16 16" xmlns="http://www.w3.org/2000/svg">
  <path d="M11.2124 0.592039H10.2722L11.2502 1.65387V2.15886H9.23531V1.56746H10.2133L9.23531 0.505633V0H11.213L11.2124 0.592039ZM8.83528 0.592039H7.89377L8.87304 1.65387V2.15886H6.85754V1.56746H7.83553L6.85754 0.505633V0H8.83528V0.592039ZM6.48119 0.616361H5.46672V1.54314H6.48119V2.1595H4.74475V0H6.48119V0.616361Z" fill="#131313"/>
  <path d="M3.36172 14.7153L2.32996 3.14514H13.6653L12.6322 14.7134L7.99057 15.9999L3.36172 14.7153Z" fill="#1572B6"/>
  <path d="M7.99756 15.017L11.7483 13.9769L12.6302 4.09131H7.99756V15.017Z" fill="#33A9DC"/>
  <path d="M7.99756 8.28281H9.87547L10.0048 6.82993H7.99756V5.41162H11.5562L11.5223 5.79244L11.1735 9.70304H7.99756V8.28281Z" fill="white"/>
  <path d="M8.00536 11.9683H7.99896L6.41866 11.5414L6.31753 10.4098H4.89404L5.0931 12.6378L8.00024 13.4468H8.00856V11.9683H8.00536Z" fill="#EBEBEB"/>
  <path d="M9.7552 9.64114L9.58431 11.5402L8.00146 11.9671V13.4456L10.9105 12.6391L10.9316 12.3991L11.1787 9.6405H9.7552V9.64114Z" fill="white"/>
  <path d="M8.00284 5.41162V6.83057H4.57601L4.54657 6.51184L4.48192 5.79244L4.448 5.41162H8.00284ZM7.99772 8.28281V9.70176H6.43536L6.40783 9.38303L6.34319 8.66363L6.30927 8.28281H7.99708H7.99772Z" fill="#EBEBEB"/>
</svg>
