<svg viewBox="0 0 16 16" xmlns="http://www.w3.org/2000/svg">
  <path d="M12.7758 6.37444L12.7507 6.44833L12.8283 6.44022C12.8781 6.43503 12.9284 6.4323 12.9795 6.4323C13.7736 6.4323 14.4174 7.07603 14.4174 7.87013C14.4174 8.22092 14.2917 8.54211 14.083 8.79172L14.0581 8.82153L14.0808 8.85303C14.4908 9.42176 14.6687 10.1224 14.5466 10.8256C14.4231 11.5369 13.9879 12.171 13.3268 12.5539C12.8862 12.809 12.3898 12.9277 11.8725 13.0136C11.7095 13.0407 11.544 13.0646 11.3775 13.0886C11.0188 13.1404 10.656 13.1927 10.3066 13.2789C9.59895 13.4534 8.90173 13.7575 8.21771 14.0871C8.00033 14.1918 7.78453 14.299 7.57011 14.4055C7.10808 14.635 6.65243 14.8613 6.20109 15.0532C4.88074 15.6145 3.62265 15.8695 2.41725 15.0341C1.38657 14.3197 1.18378 13.051 1.38459 11.84C1.4679 11.3376 1.64347 10.8685 1.84513 10.4189C1.94235 10.2022 2.04539 9.99051 2.14698 9.78182L2.15831 9.75854C2.26343 9.54258 2.36673 9.32967 2.45926 9.11901L2.47572 9.08152L2.44222 9.05799C2.07174 8.79776 1.82953 8.36772 1.82953 7.88081C1.82953 7.08672 2.47326 6.44298 3.26741 6.44298C4.06151 6.44298 4.70524 7.08672 4.70524 7.88081C4.70524 8.56194 4.23138 9.1322 3.59538 9.28066L3.57031 9.28651L3.56051 9.31032C3.52395 9.39914 3.48597 9.48833 3.44823 9.57697C3.44206 9.59146 3.43589 9.60594 3.42974 9.62039C3.03122 10.5572 3.47421 11.6217 4.40324 12.099L4.42248 12.1089L4.44286 12.1016C5.2128 11.8274 5.92415 11.3826 6.54526 10.7967C7.0019 10.3659 7.40426 9.86707 7.72417 9.31296L7.75523 9.25917L7.69604 9.24032C7.11535 9.05541 6.69477 8.51192 6.69477 7.87013C6.69477 7.07603 7.3385 6.4323 8.1326 6.4323C8.16173 6.4323 8.19076 6.43343 8.21998 6.4352L8.29423 6.43969L8.27036 6.36925L6.25209 0.413358H14.7969L12.7758 6.37444ZM9.57032 7.87539V7.92467L9.61959 7.92538L11.4918 7.95246L11.5436 7.95321L11.5425 7.90142C11.5423 7.8955 11.5422 7.89088 11.542 7.88669C11.5418 7.88109 11.5416 7.87625 11.5416 7.87013C11.5416 7.37108 11.796 6.93147 12.1822 6.67361L12.2186 6.64931L12.1994 6.61001L10.5723 3.29089L10.5277 3.19971L10.4826 3.29073L8.85844 6.57503L8.8381 6.61615L8.87732 6.63994C9.29282 6.89201 9.57036 7.34853 9.57049 7.86977C9.57048 7.86989 9.57047 7.87007 9.57046 7.87033L9.57032 7.87539Z" fill="#99424F" stroke="#99424F" stroke-width="0.1"/>
  <path d="M13.2745 6.03517L13.256 6.08973L13.3126 6.10036C14.1472 6.25709 14.7807 6.99094 14.7807 7.87013C14.7807 8.21342 14.6841 8.53437 14.5168 8.80765L14.501 8.83349L14.5166 8.85948C14.8795 9.4643 15.028 10.1768 14.9046 10.8878C14.7608 11.7157 14.2524 12.4377 13.509 12.8683C12.8665 13.2404 12.1399 13.3458 11.4263 13.4487L11.4246 13.449C11.0666 13.5006 10.7255 13.5498 10.3936 13.6317C9.50267 13.8514 8.6021 14.2987 7.73705 14.7283L7.73334 14.7301C6.52619 15.3297 5.30611 15.9345 4.10294 15.9346C3.46627 15.9346 2.83398 15.765 2.21018 15.3327C1.1884 14.6245 0.762827 13.3679 1.02605 11.7806C1.15828 10.9833 1.50803 10.2641 1.8201 9.62319L1.77514 9.6013L1.8201 9.62319C1.88687 9.48603 1.95197 9.35186 2.01393 9.21976L2.02895 9.18775L2.00377 9.16292C1.67206 8.83594 1.46613 8.38206 1.46613 7.88082C1.46613 6.88766 2.27416 6.07963 3.26733 6.07963C4.26049 6.07963 5.06858 6.88766 5.06858 7.88082C5.06858 8.66674 4.5623 9.33651 3.85869 9.58185L3.83777 9.58914L3.82912 9.60955L3.78669 9.70944L3.78668 9.70945L3.76407 9.76258L3.81008 9.78216L3.76407 9.76259C3.46436 10.4671 3.75436 11.2721 4.431 11.6971L4.45236 11.7105L4.47584 11.7013C5.13575 11.4427 5.74738 11.0498 6.29584 10.5324C6.64164 10.2062 6.94348 9.84935 7.19808 9.47007L7.22691 9.42713L7.18301 9.39977C6.67203 9.08135 6.33137 8.51487 6.33137 7.87013C6.33137 7.01158 6.93556 6.29158 7.74111 6.1123L7.79548 6.1002L7.77761 6.04744L5.7452 0.05H15.3038L13.2745 6.03517ZM14.4071 0.742783L14.4295 0.676728H14.3597H6.68912H6.61938L6.64177 0.742775L8.44728 6.07078L8.45655 6.09813L8.48488 6.10377C8.56439 6.11958 8.64204 6.14096 8.7176 6.16702L8.75921 6.18136L8.77872 6.14191L10.5286 2.60348L12.2737 6.16335L12.2938 6.20441L12.3365 6.18802C12.4088 6.16026 12.4832 6.13716 12.5597 6.11884L12.5865 6.11241L12.5954 6.08627L14.4071 0.742783ZM10.2435 13.0232L10.2318 12.9754L10.2435 13.0232C10.6051 12.934 10.9757 12.8805 11.3368 12.8284L11.3419 12.8277C12.0112 12.7312 12.6556 12.6383 13.1948 12.326C13.7765 11.9891 14.175 11.426 14.287 10.7806C14.3718 10.2924 14.2924 9.80251 14.08 9.36768L14.0544 9.31523L14.0065 9.34861C13.7149 9.55184 13.361 9.67139 12.9794 9.67139C11.9863 9.67139 11.1782 8.86336 11.1782 7.87013C11.1782 7.35908 11.3925 6.89743 11.7358 6.56911L11.7622 6.54382L11.7461 6.51097L10.5709 4.11351L10.5262 4.02233L10.4811 4.11336L9.31771 6.46598L9.30083 6.50013L9.32927 6.52547C9.69996 6.85577 9.93382 7.33608 9.93382 7.87013C9.93382 8.86335 9.12573 9.67139 8.13257 9.67139C8.04092 9.67139 7.95086 9.6644 7.86281 9.65114L7.83058 9.64628L7.81313 9.67382C7.51382 10.1462 7.14974 10.5885 6.72593 10.9883L6.75817 11.0224L6.72593 10.9883C6.07043 11.6067 5.33201 12.0645 4.53112 12.3497L4.40337 12.3952L4.2828 12.3333L4.2828 12.3333C3.28095 11.8186 2.80666 10.7317 3.1087 9.73475L3.12613 9.67723L3.0664 9.67056C2.90378 9.65241 2.74775 9.61243 2.601 9.55374L2.55747 9.53633L2.5373 9.57866C2.48722 9.68372 2.43617 9.78949 2.38359 9.89749L2.42338 9.91686L2.38358 9.89749L2.38206 9.90062C2.07897 10.5232 1.76183 11.1746 1.64434 11.8832C1.58107 12.2648 1.53643 12.8061 1.6446 13.3476C1.75294 13.8899 2.0152 14.435 2.56724 14.8176C3.31665 15.337 4.08937 15.3984 4.89913 15.2177C5.70467 15.038 6.5507 14.6178 7.45073 14.1707L7.45454 14.1688C8.35803 13.72 9.28632 13.2592 10.2435 13.0232ZM12.9794 9.04466C13.6272 9.04466 14.154 8.51779 14.154 7.87013C14.154 7.22248 13.6271 6.69567 12.9794 6.69567C12.3318 6.69567 11.805 7.22248 11.805 7.87013C11.805 8.51779 12.3318 9.04466 12.9794 9.04466ZM9.30704 7.87013C9.30704 7.22248 8.78023 6.69567 8.13257 6.69567C7.48497 6.69567 6.9581 7.22248 6.9581 7.87013C6.9581 8.51779 7.48497 9.04466 8.13257 9.04466C8.78023 9.04466 9.30704 8.51779 9.30704 7.87013ZM4.44185 7.88082C4.44185 7.23316 3.91504 6.70635 3.26733 6.70635C2.61973 6.70635 2.09286 7.23316 2.09286 7.88082C2.09286 8.52847 2.61972 9.05534 3.26733 9.05534C3.91504 9.05534 4.44185 8.52847 4.44185 7.88082Z" fill="white" stroke="#99424F" stroke-width="0.1"/>
</svg>
