<svg width="16" height="16" viewBox="0 0 16 16" fill="none" xmlns="http://www.w3.org/2000/svg">
<g clip-path="url(#clip0)">
<path d="M10.9731 5.55303L10.9696 5.51875L10.914 5.5235L10.9176 5.55775L10.9731 5.55303V5.55303ZM11.3465 6.45109L11.3477 6.47L11.3867 6.46647C11.3855 6.45465 11.3902 6.43575 11.3985 6.41212L11.395 6.37784C11.3784 6.37903 11.3619 6.40384 11.3465 6.45109ZM9.8895 7.58197C9.88715 7.55006 9.78787 7.426 9.59172 7.20737C9.58818 7.16722 9.65553 7.10693 9.79378 7.02778L10.1885 6.6839C10.2771 6.57162 10.3291 6.38965 10.3445 6.13678L10.3397 6.07887C10.3244 5.904 10.1979 5.76337 9.95806 5.65584C9.81625 5.56012 9.561 5.50693 9.19231 5.4975C8.88743 5.5235 8.48922 5.63218 7.99881 5.82481C7.86409 5.92172 7.7105 6.01862 7.53797 6.1155L7.54031 6.14506C7.55097 6.14387 7.5675 6.13797 7.5864 6.12497C7.6065 6.12259 7.61831 6.13206 7.6195 6.15097L7.64903 6.13559L7.66322 6.1344L7.6644 6.1474C7.66559 6.16278 7.55922 6.24668 7.34415 6.39675L7.36072 6.42747L7.34653 6.42865L7.31106 6.41565C7.31225 6.42628 7.2969 6.43337 7.26734 6.43575L7.26853 6.44875L7.30281 6.49128C7.29218 6.49247 7.27562 6.48775 7.25318 6.47947C7.20353 6.48418 7.15509 6.51018 7.10665 6.55981L7.12675 6.47237C7.19881 6.16159 7.24843 5.88625 7.27443 5.64756L7.2709 5.63218C7.22128 5.60028 7.17281 5.55537 7.1279 5.49865C7.12909 5.46203 7.12909 5.44078 7.1279 5.43603L7.12437 5.42303L7.11018 5.42659C6.95422 5.66056 6.65406 6.05997 6.20856 6.62481C5.86943 7.02659 5.69453 7.24993 5.6839 7.29484C5.54565 7.43781 5.47947 7.52409 5.48656 7.55362C5.44993 7.57725 5.43456 7.60087 5.44047 7.62687C5.42984 7.62925 5.42275 7.62572 5.42037 7.61506C5.36131 7.71078 5.27384 7.77222 5.15687 7.7994L5.03397 7.82778C5.01743 7.83131 5.00915 7.84312 5.01034 7.86322L5.01387 7.87859L5.05997 7.86793L5.06353 7.88093L4.95953 7.92112L4.77518 7.96365L4.67828 7.96956C4.66409 7.98375 4.75509 7.9684 4.71965 7.97665L4.59912 8.00503C4.52584 8.02156 4.48568 8.01565 4.47859 7.98612L4.4644 7.98965C4.46678 8.00265 4.46793 8.01212 4.46559 8.02037L4.4585 7.99084L4.36159 8.01328C4.3545 7.9684 4.22334 7.80531 3.96928 7.52409C3.96456 7.46972 4.05434 7.39053 4.23753 7.28775L4.75509 6.83278C4.8709 6.6839 4.93943 6.44518 4.9619 6.11668L4.95481 6.03987C4.93472 5.80828 4.7669 5.62156 4.4514 5.4774C4.26468 5.35097 3.92909 5.28359 3.44462 5.27297C3.04284 5.30725 2.51815 5.45022 1.87297 5.69956C1.69572 5.82834 1.49365 5.95597 1.26678 6.0824L1.27031 6.12259C1.28568 6.1214 1.30575 6.11315 1.33056 6.09897C1.35656 6.09659 1.37075 6.1084 1.37312 6.13206L1.41328 6.10959L1.43337 6.1084L1.43456 6.12731C1.43575 6.14622 1.29512 6.25612 1.01034 6.457L1.03278 6.49247L1.01272 6.49365L0.968966 6.47828C0.970153 6.49009 0.95006 6.49837 0.908716 6.5019L0.911059 6.52318L0.958341 6.57518C0.942997 6.57637 0.921716 6.57162 0.894528 6.56218C0.802372 6.57047 0.71256 6.63662 0.623935 6.7619L0.646372 6.79734C0.723185 6.72643 0.768091 6.691 0.781091 6.68981L0.78581 6.74772C0.77281 6.7489 0.752716 6.75715 0.72556 6.77134L0.773997 6.84462C0.865501 6.74571 0.969134 6.65875 1.08243 6.58581C1.13797 6.6 1.1675 6.61772 1.16868 6.63662L1.21122 6.63309C1.51609 6.40737 1.81743 6.24431 2.1164 6.14387L2.11993 6.18403C2.0644 6.26675 2.02659 6.30931 2.0065 6.31165C2.00887 6.34003 2.01831 6.36484 2.03603 6.38612C2.04078 6.43693 1.90487 6.77962 1.62953 7.413C1.00443 8.88537 0.479747 9.97487 0.0531845 10.6792C0.0543408 10.6933 0.062622 10.7122 0.077997 10.7359C0.183153 10.7111 0.249341 10.6851 0.277684 10.6602L0.300153 10.6579L0.303685 10.6981L0.342685 10.6945L0.382872 10.6721C0.38406 10.6839 0.39706 10.6898 0.424216 10.6874L0.427778 10.7276C0.43131 10.7666 0.408872 10.8257 0.361591 10.9072C0.31906 10.9557 0.272966 11.0573 0.224528 11.2121L0.225685 11.231L0.264685 11.2275C0.434872 11.0372 0.563653 10.8505 0.652278 10.6685C1.14859 10.5232 1.52675 10.3802 1.78906 10.2396C2.05259 10.2171 2.25347 10.1474 2.39056 10.0328L2.38818 10.0115L2.28893 10.0411L2.26647 10.0434L2.26409 10.0222C2.4579 9.99262 2.59143 9.95006 2.66587 9.891C3.04284 9.60028 3.32762 9.39468 3.52025 9.27297C3.91609 8.98228 4.17372 8.69865 4.29068 8.42334C4.31282 8.41852 4.33488 8.41339 4.35687 8.40797C4.4124 8.40562 4.44312 8.40443 4.4514 8.40206C4.44903 8.39143 4.45378 8.38553 4.4644 8.38315C4.55303 8.37372 4.5105 8.38906 4.56722 8.37606L4.71609 8.34181C4.70665 8.34415 4.70309 8.3489 4.70547 8.35834L4.7279 8.34415C4.72318 8.34415 4.71965 8.343 4.71609 8.34181L4.7409 8.3359L4.72909 8.343C4.74565 8.34534 4.76337 8.34415 4.78347 8.33943L4.79409 8.38315L4.117 9.45968L3.9669 9.64756L3.89365 9.89334L3.90784 9.88981L3.98109 9.85909L3.95747 9.95481L3.96456 9.98315L3.98462 10.008C3.97518 10.0103 3.97165 10.0162 3.974 10.0269L3.97756 10.0422L4.00828 10.0352C4.05318 9.99615 4.07209 9.96072 4.065 9.92881C4.11343 9.93706 4.14534 9.94062 4.1619 9.9359L4.16543 9.95125C4.1359 9.95834 4.12053 9.98197 4.11815 10.0222L4.12172 10.0375L4.13825 10.034C4.38406 9.76572 4.98672 8.84756 5.47003 8.22481C5.45465 8.15747 5.70634 8.06409 6.22628 7.94356L6.24284 7.94003C6.26175 8.02156 6.22156 8.2189 6.12231 8.53206C6.0585 8.72112 6.02778 8.82512 6.0325 8.84165C5.94978 9.09334 5.91078 9.22925 5.9155 9.25053L5.73115 9.85434C5.61181 10.164 5.52084 10.4889 5.45703 10.8316C5.46765 10.8292 5.48418 10.8304 5.50784 10.8363L5.53381 10.8139C5.53618 10.8245 5.54328 10.8281 5.5539 10.8257L5.54328 10.782L5.62362 10.7796C5.64725 10.7737 5.66734 10.7442 5.6839 10.6898C5.68034 10.6083 5.6969 10.5646 5.73353 10.5551C5.78315 10.3613 5.81387 10.2644 5.82453 10.2608C5.87059 10.0682 5.90487 9.95834 5.92731 9.93115C5.99706 9.68065 6.04784 9.55184 6.08093 9.54356L6.08803 9.57431L6.03722 9.70547C5.94859 10.099 5.85878 10.4097 5.76781 10.6378L5.79381 10.7512L5.81034 10.7477C6.03012 10.275 6.34681 9.33915 6.75922 7.94003C6.77106 7.81712 6.83012 7.7214 6.93531 7.65406L6.91165 7.62925L6.90812 7.61625C6.9554 7.60562 6.98847 7.58672 7.00737 7.56072C7.00503 7.55006 6.96365 7.53472 6.88331 7.51343L7.08893 6.6319C7.13381 6.59172 7.15981 6.57047 7.16809 6.57047L7.17165 6.61537C7.161 6.61653 7.14447 6.62243 7.12556 6.63543L7.16456 6.691C7.23543 6.61418 7.31225 6.548 7.39615 6.49247C7.43868 6.50428 7.45997 6.51847 7.46234 6.53265L7.49306 6.53028C7.72703 6.35893 7.95628 6.23603 8.18197 6.16159L8.18434 6.19112C8.143 6.25375 8.11462 6.28565 8.09925 6.28684C8.10162 6.30812 8.10753 6.32703 8.11815 6.34356C8.12172 6.38256 8.02009 6.64253 7.81212 7.12465C7.33706 8.24134 6.93884 9.06734 6.61506 9.60384C6.61625 9.61447 6.62334 9.62865 6.63634 9.64756C6.7155 9.62865 6.76631 9.60856 6.7864 9.58965L6.80059 9.58847L6.80297 9.61803L6.83603 9.61565L6.86559 9.60028C6.86675 9.60856 6.8774 9.61212 6.8975 9.61093L6.89984 9.64284C6.90222 9.67118 6.88568 9.71609 6.84903 9.77753C6.81478 9.81418 6.77931 9.891 6.7415 10.008L6.74268 10.0233L6.7734 10.021C6.90222 9.87681 7.00028 9.735 7.06765 9.59556C7.44459 9.4845 7.73175 9.37697 7.93028 9.27059C8.13234 9.25287 8.28478 9.20087 8.38878 9.11343L8.38759 9.09809L8.31078 9.12053L8.29425 9.12172L8.29306 9.10634C8.43959 9.08509 8.5424 9.052 8.59793 9.00828C8.8839 8.78847 9.10015 8.63131 9.24669 8.53915C9.70281 8.20709 9.9155 7.88803 9.8895 7.58197V7.58197ZM9.81153 7.60206L9.82215 7.7214C9.80797 7.75097 9.79262 7.76631 9.77843 7.7675L9.76072 7.56425C9.79378 7.57606 9.81034 7.58787 9.81153 7.60206V7.60206ZM0.86381 6.64018L0.843716 6.64134L0.840185 6.60472L0.921716 6.59762L0.922903 6.61653C0.909903 6.61772 0.88981 6.62481 0.86381 6.64018V6.64018ZM0.465591 10.6236C0.41831 10.6024 0.375778 10.5941 0.339153 10.5976L0.334403 10.5397C0.33206 10.5173 0.34506 10.5019 0.373403 10.496C0.399403 10.4937 0.414778 10.5126 0.417122 10.5504C0.485685 10.4665 0.523497 10.4239 0.530591 10.4227L0.57431 10.4405C0.560122 10.5587 0.523497 10.6189 0.465591 10.6236V10.6236ZM4.72084 6.17222C4.70075 6.17459 4.66056 6.11197 4.60265 5.98787L4.59912 5.95125C4.63693 5.94772 4.67593 6.00915 4.71728 6.13559L4.72084 6.17222V6.17222ZM4.66409 5.73147L4.64756 5.77047L4.06972 5.5294C4.45493 5.5424 4.65347 5.60975 4.66409 5.73147ZM2.22393 7.82659L2.1424 7.83368L2.13884 7.79703L2.22037 7.78997L2.22393 7.82659ZM2.15775 6.56809L2.17784 6.5669L2.18256 6.62481C2.16365 6.626 2.13884 6.65434 2.10812 6.70872L2.10456 6.66853C2.14122 6.62481 2.16012 6.59172 2.15775 6.56809V6.56809ZM1.9864 6.97222L1.9935 7.04903L1.9734 7.05022L1.96631 6.9734L1.9864 6.97222V6.97222ZM1.89659 7.1164L1.93559 7.11284C1.93206 7.17665 1.91434 7.21093 1.88243 7.21328L1.86234 7.21447C1.88715 7.17193 1.89897 7.13884 1.89659 7.1164V7.1164ZM1.82925 7.31728L1.85168 7.3149L1.85287 7.33381L1.81625 7.39528L1.77725 7.39881L1.77606 7.3799C1.81506 7.37637 1.83278 7.35628 1.82925 7.31728V7.31728ZM1.76306 7.49809L1.75125 7.59497L1.73115 7.59615L1.7229 7.50043L1.76306 7.49809V7.49809ZM1.10015 9.38287C1.07415 9.51522 1.04578 9.58256 1.01625 9.58493L1.01506 9.56603C1.00797 9.50103 1.03634 9.43959 1.10015 9.38287V9.38287ZM0.978435 9.64637L0.979622 9.66528C0.981966 9.69128 0.970153 9.70665 0.944153 9.70781L0.942997 9.6889C0.940622 9.66647 0.952435 9.65228 0.978435 9.64637ZM0.942997 10.1935L1.00443 10.1876L1.00678 10.2089C0.991434 10.21 0.971341 10.2183 0.946528 10.2325L0.907528 10.236C0.905153 10.216 0.918153 10.2006 0.942966 10.1935H0.942997V10.1935ZM2.69187 9.65347C2.34681 9.82362 2.14356 9.93943 2.08331 9.99968C1.7099 10.1297 1.52437 10.21 1.5279 10.2419C1.19587 10.3731 0.977247 10.47 0.872091 10.5303C0.847278 10.5327 0.81181 10.5232 0.76456 10.5019C0.758653 10.4346 0.789372 10.3802 0.854341 10.3365C0.912247 10.3317 0.967778 10.34 1.02097 10.3625C1.08243 10.3306 1.18997 10.2951 1.3424 10.2573L1.33884 10.2171L1.21597 10.2278C1.23131 10.2065 1.34947 10.151 1.57162 10.0612L1.63309 10.0552L1.63428 10.0742C1.52909 10.0836 1.47118 10.1143 1.45818 10.1699C1.46056 10.1947 1.47475 10.2053 1.50075 10.203C1.5799 10.1533 1.6189 10.1238 1.61772 10.1155C1.76781 10.0872 2.18256 9.86972 2.86203 9.4644L2.86559 9.50103C2.86678 9.51875 2.80887 9.56837 2.69187 9.65347V9.65347ZM1.64962 9.99615C1.7489 9.98787 1.83397 9.94772 1.90487 9.878C1.93322 9.87562 1.94859 9.88625 1.94978 9.91106C1.90131 9.91581 1.80797 9.95597 1.67209 10.034L1.652 10.0352L1.64962 9.99615ZM3.33115 8.70456L2.81003 9.117C2.42243 9.37106 2.21447 9.49865 2.18493 9.50103C1.56809 9.84018 1.18406 10.0162 1.03515 10.0292L1.01272 10.0316C1.03162 9.9619 1.30575 9.40059 1.83753 8.34415C2.0715 8.32406 2.44018 8.21537 2.9424 8.01684L3.06528 8.00618C3.31934 7.98375 3.50959 8.03337 3.63487 8.15156L3.64193 8.22834C3.5474 8.50015 3.44343 8.6585 3.33115 8.70456V8.70456ZM2.31256 8.13147L2.39647 8.12437L2.39762 8.14328L2.31375 8.15037L2.31256 8.13147V8.13147ZM3.49068 7.93175L3.55215 7.92584C3.60887 7.95303 3.6384 7.97665 3.64078 7.99793L3.64193 8.01684C3.58759 8.02156 3.53678 7.99322 3.49068 7.93175V7.93175ZM3.65731 6.98287C3.60297 7.04784 3.45406 7.15893 3.21062 7.3149C3.13028 7.322 2.83131 7.43781 2.31375 7.66468C2.28787 7.65286 2.25936 7.64798 2.23103 7.65053L2.22747 7.61387C2.22156 7.53943 2.25465 7.44609 2.3279 7.33265C2.36809 7.11993 2.41181 6.99822 2.46028 6.96868L2.89159 5.99853C2.88684 5.93825 2.97903 5.89215 3.16809 5.86025L3.22953 5.85434L3.23428 5.9099C3.41978 5.88153 3.53559 5.865 3.5805 5.86143C3.92318 5.8319 4.10162 5.90162 4.11581 6.06825L4.15481 6.06468L4.14653 5.96662L4.18906 5.96306C4.2895 6.01862 4.34387 6.08597 4.35097 6.16512C4.35568 6.2195 4.32615 6.28684 4.2635 6.36722C4.23753 6.36956 4.22215 6.35065 4.21978 6.31284L4.17725 6.3164L4.16781 6.43456C3.99409 6.69453 3.86765 6.82806 3.78965 6.83515C3.71875 6.93325 3.67503 6.98168 3.65731 6.98287ZM3.922 7.66234C3.88656 7.63868 3.85818 7.62806 3.83693 7.62925L3.83218 7.57134L3.87118 7.56781L3.95747 7.61862C3.961 7.64578 3.94918 7.65997 3.922 7.66234V7.66234ZM4.19615 7.98728C4.23397 8.00265 4.25643 8.01918 4.26115 8.03456L4.24225 8.03928L4.24343 8.04047C4.23987 8.04047 4.23515 8.04165 4.23159 8.04284L4.20325 8.06528L4.19615 7.98728V7.98728ZM4.22215 8.15037L4.21862 8.135L4.26825 8.12318L4.27178 8.13856L4.22215 8.15037ZM4.3415 8.2839C4.39231 8.27562 4.41712 8.27209 4.51165 8.25081L4.51522 8.26618L4.33559 8.30753C4.33797 8.29925 4.34031 8.291 4.3415 8.2839ZM4.5164 8.35834C4.44078 8.36543 4.45731 8.35597 4.33678 8.38315L4.33322 8.36781L4.48331 8.31934L4.5554 8.30281L4.56247 8.33115C4.53056 8.33825 4.55422 8.33825 4.5164 8.35834ZM4.67593 8.32053C4.65818 8.32525 4.64403 8.317 4.63575 8.2969L4.68184 8.28625C4.7019 8.28153 4.7149 8.28981 4.71965 8.3099L4.67593 8.32053V8.32053ZM5.1084 7.85493L5.10487 7.83959L5.17931 7.82187L5.1864 7.85022L5.1084 7.85493ZM5.57047 10.6886C5.57518 10.6673 5.57637 10.652 5.574 10.6413L5.59056 10.6378C5.61062 10.6331 5.62243 10.6402 5.62718 10.6591L5.63072 10.6744L5.57047 10.6886V10.6886ZM5.89425 7.97665L5.86115 7.97075C5.80797 7.99203 5.76306 8.00737 5.72643 8.01565L5.69572 8.02275C5.678 8.02747 5.66381 8.02037 5.65672 8.00147L5.87297 7.95184L5.94387 7.91875L5.9675 7.94593C5.93322 7.95303 5.9084 7.96365 5.89425 7.97665V7.97665ZM6.06084 7.92347L6.05731 7.90812C6.06793 7.90575 6.08212 7.8975 6.0975 7.88212L6.25109 7.84668L6.25465 7.86203C6.17312 7.88212 6.10812 7.90222 6.06084 7.92347ZM6.0845 7.61268C6.07384 7.61506 6.05968 7.62453 6.04193 7.63868C6.03959 7.62806 6.01831 7.62806 5.97812 7.63753C5.97106 7.60797 6.0845 7.56662 6.31965 7.51225L6.35272 7.50515L6.35981 7.53353C6.19437 7.58197 6.10222 7.60915 6.0845 7.61268V7.61268ZM6.49809 7.16603C6.48153 7.3539 6.41537 7.46028 6.29837 7.48743L6.29484 7.47209L6.19084 7.51225L6.14475 7.5229C6.12112 7.52881 6.09984 7.52762 6.08093 7.52172L6.0715 7.48034C6.06793 7.465 6.21803 7.257 6.5229 6.85759L6.55834 6.86353C6.57134 6.91787 6.55125 7.01831 6.49809 7.16603ZM7.22953 6.53972L7.21537 6.5409L7.213 6.51137L7.27443 6.50547L7.27562 6.52081C7.265 6.52318 7.24962 6.52909 7.22953 6.53972V6.53972ZM6.92822 9.56603C6.89275 9.54947 6.86084 9.5424 6.83368 9.54475L6.83012 9.49984C6.82893 9.4845 6.8384 9.47384 6.8585 9.46793C6.87859 9.46559 6.8904 9.47975 6.89275 9.5105C6.94356 9.4455 6.97193 9.4124 6.97784 9.4124L7.00975 9.4254C6.99793 9.51522 6.97075 9.56247 6.92822 9.56603V9.56603ZM10.1589 6.1864C10.1436 6.18759 10.114 6.14031 10.0679 6.04459L10.0656 6.01506C10.0951 6.01268 10.1258 6.05878 10.1566 6.15331L10.1589 6.1864V6.1864ZM10.1164 5.84843L10.1022 5.87915L9.665 5.696C9.95687 5.70547 10.1081 5.75628 10.1164 5.84843ZM8.26234 7.44018L8.20087 7.44609L8.19853 7.41653L8.25997 7.41181L8.26234 7.44018V7.44018ZM8.21153 6.48418L8.22806 6.483L8.23159 6.5279C8.21625 6.52909 8.19734 6.55037 8.17487 6.59172L8.17253 6.56218C8.19972 6.5279 8.21269 6.5019 8.21153 6.48418ZM8.08272 6.79143L8.08743 6.84934L8.0709 6.85053L8.06615 6.79262L8.08272 6.79143ZM8.013 6.90134L8.04372 6.89897C8.04018 6.94859 8.02718 6.97459 8.00472 6.97697L7.98818 6.97812C8.0059 6.94506 8.01418 6.91906 8.013 6.90134ZM7.96337 7.05259L7.97756 7.0514L7.97872 7.06675L7.95156 7.11403L7.92081 7.1164L7.91965 7.10103C7.95156 7.09865 7.96572 7.08212 7.96337 7.05259ZM7.91375 7.18965L7.90309 7.26528L7.8889 7.26647L7.883 7.19203L7.91375 7.18965ZM7.40915 8.62303C7.38906 8.72231 7.36781 8.77312 7.34534 8.77547L7.34415 8.76247C7.34062 8.71284 7.36187 8.66559 7.40915 8.62303ZM7.31581 8.82275L7.31697 8.83575C7.31934 8.857 7.3099 8.86884 7.28862 8.87L7.28743 8.85465C7.28625 8.83928 7.29572 8.82865 7.31581 8.82275V8.82275ZM7.28981 9.23868L7.33706 9.23515L7.33825 9.2505C7.32762 9.25168 7.31106 9.25759 7.29215 9.26825L7.26143 9.27059C7.26025 9.25406 7.26972 9.24343 7.28981 9.23868V9.23868ZM8.61684 8.82865C8.35687 8.95747 8.20206 9.0449 8.15362 9.08981C7.87 9.18906 7.7294 9.25053 7.73175 9.27534C7.48006 9.37578 7.31462 9.44784 7.23662 9.49393C7.21772 9.49512 7.19053 9.48803 7.15509 9.4715C7.15037 9.42068 7.174 9.37931 7.22362 9.34859C7.26853 9.34506 7.31106 9.35097 7.35006 9.3675C7.39734 9.34387 7.47887 9.31787 7.59468 9.28834L7.59231 9.25878L7.4954 9.26587C7.50725 9.24934 7.59822 9.20678 7.76722 9.13825L7.81447 9.13472L7.81565 9.14772C7.73531 9.15481 7.6904 9.17843 7.68093 9.22097C7.68212 9.23987 7.69393 9.24934 7.71403 9.24697C7.77312 9.20797 7.80147 9.18553 7.80147 9.17843C7.9149 9.15834 8.22925 8.9929 8.74565 8.68331L8.748 8.71284C8.74918 8.72584 8.70547 8.76365 8.61684 8.82865V8.82865ZM7.82512 9.08862C7.9019 9.08153 7.9669 9.052 8.02128 9C8.04134 8.99762 8.05319 9.00709 8.05434 9.026C8.0189 9.02953 7.94918 9.05909 7.844 9.11581L7.82747 9.117L7.82512 9.08862V9.08862ZM9.10368 8.10665L8.71019 8.42334C8.41594 8.61593 8.25643 8.71284 8.23159 8.71522C7.76365 8.97281 7.47297 9.10634 7.35834 9.11581L7.34181 9.117C7.35597 9.06381 7.56515 8.63722 7.96928 7.83603C8.14534 7.82068 8.42422 7.73678 8.80709 7.58553L8.90281 7.57725C9.0954 7.56072 9.23959 7.59853 9.33412 7.6895L9.33884 7.7474C9.26675 7.95065 9.18878 8.07 9.10368 8.10665V8.10665ZM8.33087 7.67178L8.39231 7.66587L8.3935 7.68125L8.33206 7.68715L8.33087 7.67178ZM9.2254 7.51934L9.27269 7.51581C9.3164 7.53706 9.33884 7.556 9.34003 7.57134L9.34122 7.58434C9.29984 7.58787 9.26084 7.56662 9.2254 7.51934V7.51934ZM9.34947 6.79972C9.30812 6.84934 9.19587 6.9344 9.01272 7.05259C8.95125 7.0585 8.72437 7.14593 8.33206 7.31609C8.31315 7.309 8.29187 7.30665 8.2694 7.30784L8.26706 7.27828C8.26234 7.22156 8.28715 7.15065 8.3415 7.0644C8.37222 6.90134 8.4065 6.81034 8.44193 6.78906L8.77162 6.05168C8.76809 6.00797 8.83781 5.97253 8.97962 5.94534L9.02687 5.94181L9.03043 5.98672C9.16987 5.96425 9.25731 5.95125 9.29275 5.94772C9.55272 5.92525 9.68862 5.97725 9.69925 6.10487L9.72997 6.1025L9.72406 6.03159L9.75481 6.02925C9.83043 6.07059 9.87059 6.12025 9.87534 6.17931C9.87887 6.22187 9.85759 6.27384 9.81269 6.33412C9.79262 6.33647 9.78081 6.32231 9.77843 6.29159L9.74772 6.29393L9.73825 6.38256C9.60709 6.58228 9.51137 6.68509 9.45109 6.68981C9.39793 6.7619 9.36484 6.79853 9.34947 6.79972V6.79972ZM9.48775 7.29128L9.48418 7.24637L9.5149 7.24403L9.58109 7.28418C9.58228 7.30309 9.57281 7.31375 9.55272 7.31609C9.52437 7.29837 9.50309 7.29009 9.48775 7.29128ZM3.987 10.1616L3.95628 10.1687L3.93028 10.1911C3.935 10.21 3.94681 10.2171 3.9669 10.2124C3.987 10.2077 3.99528 10.1959 3.99056 10.177L3.987 10.1616V10.1616ZM3.87003 9.92881L3.87356 9.94415C3.89365 9.93943 3.9019 9.92762 3.89718 9.90872L3.89365 9.89334C3.87475 9.89809 3.86647 9.9099 3.87003 9.92881V9.92881ZM4.7019 7.94947L4.73737 7.94122L4.73028 7.9105L4.69484 7.91875L4.7019 7.94947ZM15.4245 8.84993C15.0653 8.93028 15.0204 8.91609 14.9447 8.922L14.9471 8.95156L14.9802 8.94918L14.9979 8.948L14.9932 8.94447L15.0322 8.92909C15.3879 8.89009 15.4292 8.90428 15.4257 8.86409L15.4245 8.84993V8.84993ZM13.4901 9.10634L13.4925 9.1359H13.4972L13.4948 9.10634H13.4901V9.10634ZM13.2679 8.32762L13.236 8.317C13.21 8.38672 13.197 8.42806 13.1982 8.43987L13.1994 8.45287C13.2242 8.45168 13.2467 8.40915 13.2679 8.32762ZM15.4978 8.84403L15.5002 8.87356L15.5521 8.883L15.5498 8.85347L15.4978 8.84403V8.84403ZM13.0529 9.14297L12.9725 9.13353L12.9583 9.16425L12.9595 9.17962L13.4381 9.13943L13.4357 9.1099L13.0529 9.14297ZM12.8354 8.09484L12.8343 8.07947L12.8177 8.08065L12.7882 8.09956L12.8047 8.1279C12.8272 8.12556 12.8378 8.1149 12.8354 8.09484V8.09484ZM15.7247 8.62659L15.7471 8.62422C15.7601 8.62303 15.766 8.6124 15.7648 8.5935L15.7518 8.56512C15.6703 8.57222 15.6325 8.57578 15.5663 8.6124L15.5651 8.59706L15.4671 8.6065C15.4647 8.57697 15.4564 8.56159 15.4434 8.56278L15.3926 8.5675C15.3335 8.57222 15.3052 8.56987 15.2756 8.59231C15.2744 8.58168 15.2709 8.57697 15.265 8.57697L15.2083 8.58168L15.1752 8.60059C15.174 8.58997 15.1705 8.58522 15.1645 8.58522L15.1445 8.60297L15.1433 8.58759L15.0641 8.58168L15.0452 8.58287L15.0476 8.6124L15.0877 8.62303L15.1256 8.62068C15.1386 8.62897 15.1527 8.63131 15.1693 8.63012L15.2024 8.61359L15.2035 8.62659C15.018 8.67268 15.0192 8.6644 14.8916 8.68568C14.8774 8.67622 14.8667 8.6715 14.8597 8.67268L14.8573 8.67503C14.8431 8.67384 14.8348 8.6644 14.8337 8.64903L14.8998 8.64078C14.9046 8.64078 14.9081 8.6455 14.9447 8.65259C14.9979 8.62659 15.0003 8.61593 15.0287 8.61359L15.0263 8.58403C14.8443 8.6195 14.9176 8.59587 14.6895 8.61593L14.6789 8.61712L14.6765 8.58759C14.9696 8.55215 14.8715 8.57222 14.9719 8.54387C14.9731 8.5545 14.9767 8.55922 14.9826 8.55922C14.9933 8.54821 15.0075 8.54115 15.0227 8.53915L15.0428 8.53797C15.1456 8.52968 15.1799 8.54978 15.3832 8.49306L15.3843 8.50606L15.4174 8.4895L15.4482 8.48715C15.4458 8.45759 15.4907 8.45287 15.5061 8.45168L15.5037 8.41978C15.1468 8.49187 15.0535 8.47178 14.9542 8.50015L14.953 8.48715C14.8597 8.50368 14.8561 8.49659 14.8325 8.49778C14.8254 8.49897 14.8148 8.50487 14.8029 8.51668C14.8018 8.50606 14.7982 8.50131 14.7911 8.50131C14.7876 8.50131 14.7864 8.5025 14.7852 8.5025L14.4827 8.55212C14.4815 8.54387 14.478 8.53915 14.4709 8.54031C14.3137 8.5734 14.3563 8.57931 14.1459 8.59822C14.1365 8.5994 14.1235 8.60412 14.1069 8.61478C14.1057 8.6065 14.101 8.60178 14.0904 8.60293L13.9616 8.61359L13.8753 8.63484C13.8742 8.62659 13.8694 8.62187 13.8588 8.62303C13.8103 8.63603 13.7678 8.64431 13.7335 8.64668H13.7312C13.7099 8.64903 13.7418 8.64078 13.7252 8.63368L13.6992 8.64903C13.6614 8.65259 13.6815 8.64668 13.5516 8.64784C13.3235 8.67622 13.3483 8.67975 13.3235 8.68093L13.2384 8.67503C13.2396 8.68331 13.2349 8.68922 13.2254 8.68922C13.1285 8.67622 13.0789 8.66084 13.0777 8.64312C13.0907 8.55097 13.1132 8.50368 13.1451 8.50131L13.1616 8.50015L13.1474 8.53087L13.164 8.52968C13.1947 8.51315 13.2089 8.49778 13.2077 8.48359L13.2053 8.45168L13.1746 8.45406L13.1722 8.42453C13.1699 8.40206 13.1734 8.38197 13.1817 8.36543L13.2514 8.25318L13.2538 8.28272L13.2868 8.28034L13.2845 8.25081L13.2656 8.22362C13.2904 8.20237 13.3093 8.19053 13.3247 8.18937L13.3235 8.174L13.2786 8.17756L13.275 8.13265C13.3648 7.94593 13.4074 7.83722 13.405 7.8065L13.4369 7.8195C13.457 7.81831 13.4665 7.8065 13.4653 7.78522L13.4346 7.78759L13.4334 7.77459C13.4312 7.75301 13.4353 7.73127 13.4452 7.71197C13.4937 7.66115 13.5161 7.61034 13.5114 7.55715C13.5208 7.55597 13.5256 7.56072 13.5267 7.57134C13.5681 7.54772 13.6 7.48509 13.6236 7.38109C13.6969 7.24875 13.8009 6.98406 13.9368 6.58818C14.1967 5.88862 14.1861 5.81418 14.2227 5.64875L14.192 5.65109C14.1944 5.67237 14.1897 5.69247 14.1802 5.71137C14.1589 5.70309 14.1424 5.69837 14.1306 5.69956L14.1294 5.68656C14.1247 5.62628 14.1495 5.55422 14.2062 5.46912L14.2204 5.46793L14.2464 5.56956L14.2771 5.56722C14.2759 5.56012 14.2842 5.51993 14.3007 5.4455C14.2996 5.43012 14.2877 5.42068 14.2641 5.4195L14.2346 5.4384C14.2322 5.41712 14.2334 5.36159 14.2369 5.27297L14.2216 5.27415C14.1956 5.24815 14.1826 5.22687 14.1814 5.20915L14.0124 5.22568C14.0112 5.21387 14.0053 5.19615 13.9935 5.17372C13.9923 5.15834 14.0301 5.14297 14.1081 5.12762L14.1424 5.14062L14.1743 5.12172C14.1755 5.13234 14.1814 5.13706 14.1932 5.1359L14.2251 5.117C14.2263 5.12762 14.2322 5.13234 14.244 5.13115L14.2594 5.13L14.257 5.09572C14.2334 5.09809 14.1707 5.09809 14.0715 5.09453L14.0396 5.11581L14.0384 5.0969C13.2455 5.16187 12.7953 5.19853 12.6877 5.20915C12.6736 5.21034 12.618 5.20915 12.5199 5.20678C12.5211 5.21978 12.5093 5.22687 12.4857 5.22925L12.4514 5.21387L12.3356 5.24343C12.3084 5.24578 12.2623 5.24459 12.1985 5.23753C12.1808 5.25168 12.1595 5.25997 12.1335 5.26234C12.1193 5.2635 12.3025 5.25287 12.4727 5.24106C12.4549 5.25525 12.4278 5.2635 12.39 5.26706C12.364 5.26943 12.3415 5.26587 12.3226 5.25525C12.2966 5.26706 12.2127 5.28597 12.0721 5.31431L12.0378 5.30134L11.4848 5.3864C11.4635 5.37578 11.4387 5.37222 11.4103 5.37459C11.3808 5.37697 11.3312 5.38759 11.2626 5.4065L10.9956 5.51756L11.0157 5.55065C11.0287 5.54947 11.0476 5.5424 11.07 5.5294L11.1646 5.53765L11.1527 5.62628C11.0653 5.66528 11.0145 5.72318 11.0003 5.79647C10.8691 5.85434 10.8041 5.89572 10.8041 5.92053L10.8053 5.9359L10.8254 5.93472L10.8608 5.91581L10.9022 5.96543L10.9081 6.03397C10.9105 6.05525 10.6895 6.51965 10.2476 7.42718C9.86468 8.30162 9.66381 8.78022 9.6449 8.86647C9.51375 8.90309 9.43809 8.95628 9.41565 9.02718C9.41803 9.04962 9.457 9.065 9.53262 9.0709L9.53618 9.10515L9.5019 9.16187L9.50781 9.23043C9.51137 9.26587 9.60709 9.29306 9.79497 9.31197C9.79378 9.30015 9.79972 9.29306 9.81269 9.29187C9.81625 9.3344 9.80443 9.41712 9.77725 9.54003L9.79734 9.53884C9.87531 9.4325 9.91197 9.35922 9.9084 9.31906L9.92497 9.31787C9.94387 9.31668 9.96397 9.33797 9.98759 9.38403C9.96397 9.3935 9.88125 9.58137 9.73943 9.9489L9.75953 9.98197L9.77962 9.98081C9.95331 9.54122 10.062 9.29778 10.1069 9.25168C10.335 9.23159 10.7297 9.19143 11.2898 9.13115L11.3252 9.1099C11.3264 9.12172 11.3335 9.12762 11.3465 9.12643L11.3832 9.1229L11.4186 9.10162C11.4198 9.11343 11.4269 9.11934 11.4399 9.11815L11.8641 9.08153C11.9764 9.07209 12.0295 9.03781 12.0248 8.9799C12.0236 8.96456 12.0898 8.94681 12.2233 8.9279C12.2363 8.92672 12.2552 8.93028 12.2812 8.93856C12.2801 8.9279 12.3474 8.91728 12.4821 8.90547C12.4857 8.83456 12.5081 8.79675 12.5483 8.79322L12.5447 8.75893C12.5069 8.76247 12.4644 8.77193 12.4148 8.78847C12.3262 8.78375 12.2694 8.77665 12.2458 8.76837C12.2222 8.78137 12.2044 8.78847 12.1914 8.78965L11.896 8.79912L11.8606 8.81803C11.8594 8.80737 11.8523 8.80265 11.8393 8.80384L11.8227 8.80503L11.7849 8.82393C11.7837 8.81328 11.753 8.80503 11.6916 8.79675L11.6538 8.81918L11.5805 8.82509L11.5793 8.80618C11.9598 8.76484 12.1477 8.71284 12.143 8.6514C12.1678 8.64903 12.1808 8.66084 12.1832 8.68568L12.2942 8.65731L12.2907 8.62303L11.3796 8.64784C11.3808 8.65968 11.3749 8.66675 11.3619 8.66793L11.2508 8.6585C11.2224 8.66084 11.1988 8.66912 11.1799 8.68331L11.1386 8.66793C11.0239 8.6774 10.9388 8.69159 10.8821 8.70931C10.8041 8.7034 10.7179 8.70456 10.6222 8.71284L10.4177 8.73056L10.3232 8.71993C10.3185 8.65968 10.4354 8.36306 10.6765 7.83131C10.7462 7.65168 10.81 7.53943 10.8715 7.4969C10.8845 7.49572 10.9034 7.50043 10.9294 7.51106L11.0747 7.46143L11.1492 7.47325C11.2744 7.46262 11.4198 7.42718 11.5864 7.36572C11.6278 7.36218 11.6585 7.36456 11.6809 7.374L11.792 7.348L12.1229 7.31965C12.2635 7.30784 12.4159 7.27709 12.5814 7.22628L12.5778 7.19203C12.5164 7.19793 12.4845 7.18731 12.4821 7.16247C12.4786 7.1164 12.4337 7.0975 12.3474 7.10456L12.3439 7.07031L12.4349 7.04431L12.6736 7.02422L12.67 6.98997C12.6606 6.99112 12.6121 6.98997 12.5223 6.9864L12.5187 6.94978L12.6109 6.9415C12.6357 6.93915 12.6464 6.92731 12.644 6.90368C12.5199 6.90725 12.4573 6.90134 12.4561 6.88478C11.5911 6.92731 11.1575 6.93559 11.1551 6.9084C11.1421 6.90959 11.1244 6.91787 11.1007 6.93206L11.0783 6.89659C11.3075 6.40975 11.4422 6.16397 11.4812 6.1604C11.4824 6.17931 11.473 6.21003 11.4517 6.2514L11.4529 6.26675L11.4895 6.26322C11.5805 6.04578 11.6573 5.93353 11.7211 5.92881C11.9929 5.90515 11.6833 5.88743 12.2647 5.79647C12.2883 5.80709 12.3049 5.81181 12.3167 5.81062C12.5447 5.76456 12.8626 5.71609 13.2703 5.66647L13.2679 5.63218L13.0505 5.65228L13.0482 5.61803C13.0742 5.61565 13.0954 5.60737 13.1132 5.59322L13.1143 5.61212C13.1262 5.61093 13.1427 5.60265 13.164 5.58847C13.2018 5.58493 13.2301 5.58847 13.2502 5.59912C13.3258 5.57903 13.3873 5.56722 13.4322 5.56247L13.5681 5.54947C13.6012 5.52822 13.6165 5.50931 13.6154 5.49159L13.6142 5.47622C13.5799 5.47975 13.5409 5.4774 13.4948 5.46912C13.4937 5.45022 13.5031 5.43722 13.5256 5.43131L13.7784 5.40768L13.8942 5.37812C13.8954 5.39112 13.9013 5.39587 13.9108 5.39587C13.9226 5.39468 13.9392 5.3864 13.9604 5.37222C13.9663 5.3734 13.9734 5.3734 13.9793 5.37459C13.964 5.4065 13.9462 5.45259 13.9285 5.51284L13.8954 5.51522C13.8931 5.49275 13.8872 5.47268 13.8765 5.45493L13.86 5.45612C13.5527 6.31165 13.4157 6.7099 13.1321 7.3669C13.0801 7.53472 13.0363 7.62806 12.9985 7.64815C12.9997 7.66706 13.0115 7.6765 13.0316 7.67415C13.0387 7.75687 13.0198 7.8384 12.9737 7.91875C12.8425 8.2969 12.7551 8.50368 12.7102 8.5415L12.7397 8.71993C12.7409 8.73884 12.7315 8.74947 12.7114 8.75184L12.6807 8.75422C12.6759 8.70456 12.6582 8.68093 12.6263 8.6845L12.6097 8.68568C12.5696 8.74831 12.5388 8.82037 12.5187 8.90428L12.5495 8.9019C12.5908 8.87475 12.6097 8.84284 12.6062 8.80618L12.6677 8.80028L12.7031 8.81328C12.6747 8.85818 12.6617 8.89365 12.6641 8.92081L12.6807 8.94918L12.6405 9.04372L12.6417 9.05909C12.6771 9.05553 12.7161 9.06734 12.7575 9.09215C12.7858 9.08981 12.8165 9.07681 12.8508 9.05434C12.8862 9.05081 13.0186 9.04962 13.2467 9.04962L13.3613 9.01062C13.5007 9.00943 13.5232 9.013 13.6437 9.00237L13.6933 8.99762L13.7193 8.9799L13.7205 8.99528C13.847 8.98462 13.8552 8.9929 13.9545 9.00472L13.9557 9.02009L13.886 9.026L13.8883 9.05553C13.9096 9.05318 13.9285 9.04725 13.9439 9.03428C13.9616 9.03309 13.9722 9.04253 13.9734 9.06381C13.9451 9.06618 13.9132 9.07325 13.8777 9.08509L13.847 9.07443C13.7985 9.08743 13.8092 9.091 13.7761 9.09334L13.7276 9.0839C13.7288 9.09215 13.7241 9.09806 13.7158 9.09806C13.717 9.117 13.7276 9.12643 13.7453 9.12525L13.795 9.12053L14.0537 9.09806L14.1518 9.07681C14.153 9.08509 14.1566 9.08981 14.1648 9.08862L14.2121 9.0709L14.3007 9.06381C14.3693 9.0579 14.3681 9.05318 14.517 9.02953C14.5158 9.02009 14.5193 9.01653 14.5264 9.01537L14.5276 9.02834C14.7699 8.987 14.7852 8.98462 14.8242 8.97162L14.8277 8.97872C14.888 8.96456 14.8537 8.96809 14.8703 8.95628C14.8715 8.9669 14.875 8.97162 14.8809 8.97162L14.9235 8.96809L14.9211 8.93618L14.8348 8.935L14.8337 8.93265C14.8301 8.93381 14.8277 8.93381 14.8242 8.935H14.8124V8.93737C14.7545 8.94918 14.7533 8.9409 14.7155 8.94447L14.4992 8.95628L14.4981 8.9409L14.6186 8.92437L14.6623 8.92081L14.6872 8.90309L14.6883 8.91847C14.8585 8.90428 14.9187 8.94681 15.7057 8.77903C15.7483 8.77547 15.7447 8.74003 15.7719 8.66675C15.7575 8.66773 15.7431 8.66445 15.7306 8.65731C15.6656 8.68212 15.6313 8.67031 15.5061 8.6904C15.4954 8.69159 15.4872 8.68212 15.4836 8.66322L15.4824 8.65022L15.6029 8.65375C15.6254 8.6514 15.6691 8.64784 15.7341 8.61122C15.7341 8.62187 15.7105 8.62778 15.7247 8.62659V8.62659ZM9.90606 8.71993L9.8505 8.72465C9.84815 8.70222 9.87768 8.61712 9.93912 8.47178L9.97578 8.46825C9.97697 8.5025 9.9545 8.5864 9.90606 8.71993ZM9.9734 8.45053L9.97222 8.43515C9.97103 8.41625 9.98287 8.40325 10.0089 8.39734L10.01 8.41268C10.0112 8.43515 9.9994 8.44815 9.9734 8.45053V8.45053ZM10.712 9.02128L10.7132 9.03662L10.621 9.0449L10.6198 9.02953L10.712 9.02128ZM10.6009 9.01181C10.6021 9.03072 10.5737 9.052 10.5122 9.07325L10.3988 9.065L10.3622 9.06853L10.3587 9.03428L10.6009 9.01181V9.01181ZM11.3477 5.57431L11.2922 5.57903L11.291 5.56012C11.2898 5.54122 11.3004 5.52822 11.3241 5.52231L11.3442 5.52112L11.382 5.53647C11.3832 5.55893 11.3725 5.57193 11.3477 5.57431V5.57431ZM12.1926 5.40887L12.2103 5.40768L12.2127 5.44193L12.1619 5.44668C12.1607 5.42778 12.1702 5.41478 12.1926 5.40887ZM11.9799 5.48331L11.896 5.47384L11.8948 5.4585C12.0047 5.44903 12.0413 5.43722 12.1087 5.41831C12.1099 5.43131 12.1217 5.43603 12.143 5.43368L12.1453 5.46793L12.1122 5.4715C12.0862 5.47384 12.0638 5.47031 12.0449 5.45968C12.0248 5.47268 12.0035 5.48093 11.9799 5.48331V5.48331ZM12.0851 5.78937L12.0839 5.774L12.2198 5.761L12.221 5.77637L12.0851 5.78937ZM12.2304 5.67118L12.2292 5.65228L12.2954 5.64637L12.2966 5.66528L12.2304 5.67118ZM12.2458 5.43959L12.2281 5.44078L12.2434 5.40412L12.3947 5.38997L12.3959 5.40887C12.3569 5.4124 12.3061 5.42303 12.2458 5.43959V5.43959ZM12.3226 5.76572L12.3202 5.73147L12.3864 5.72556C12.4089 5.72318 12.4207 5.73381 12.4219 5.75747L12.3226 5.76572V5.76572ZM12.7232 5.21978L12.6381 5.24343L12.6227 5.24459C12.5826 5.24815 12.5306 5.24697 12.4691 5.24106C12.579 5.23397 12.6842 5.22568 12.7232 5.21978V5.21978ZM12.6322 5.59793L12.6334 5.61328L12.5164 5.62393L12.5152 5.60856L12.6322 5.59793ZM12.8236 5.6889C12.8224 5.67475 12.8 5.66528 12.7539 5.66056L12.6369 5.69365L12.5471 5.69718C12.527 5.683 12.5164 5.67356 12.5152 5.66647L12.6192 5.67237L12.8532 5.63456L12.9725 5.63928L12.9737 5.65818C12.9146 5.66409 12.865 5.67475 12.8236 5.6889ZM14.0278 5.37812C14.0419 5.37931 14.0514 5.37931 14.0549 5.37931C14.0963 5.33915 14.1424 5.30725 14.1956 5.28478C14.153 5.4715 14.0868 5.60975 13.9959 5.69956L13.9297 5.65937C13.9852 5.51875 14.0183 5.4254 14.0278 5.37812V5.37812ZM13.8245 5.72675L13.8411 5.72556C13.8186 5.76809 13.7985 5.79053 13.782 5.79172L13.7784 5.74681C13.7891 5.74681 13.8044 5.73972 13.8245 5.72675ZM13.6933 6.03987C13.7252 5.91225 13.756 5.84018 13.7843 5.82128L13.7855 5.83662C13.769 5.95481 13.743 6.01743 13.7087 6.02215L13.7146 6.09659C13.6862 6.13678 13.6732 6.1675 13.6744 6.19112L13.6579 6.19231L13.6484 6.0895C13.6673 6.08715 13.6827 6.07059 13.6933 6.03987V6.03987ZM13.6425 6.21003C13.6437 6.22778 13.6319 6.26912 13.6083 6.33293L13.5917 6.33412L13.5882 6.28922C13.6106 6.23722 13.6295 6.21122 13.6425 6.21003ZM12.6889 8.97753L12.6877 8.96456L12.7185 8.96218L12.722 9.00709C12.7055 9.00828 12.6937 8.99881 12.6889 8.97753ZM14.0514 9.013C14.0502 9.00237 14.0455 8.99762 14.0349 8.99881L13.9581 9.0059L13.9569 8.99053H13.964L14.1459 8.97518L14.1471 8.99053C14.0939 8.9929 14.062 9.00118 14.0514 9.013V9.013ZM13.9604 8.97518C13.9675 8.97872 13.964 8.98228 13.9604 8.98462C13.9569 8.98347 13.9522 8.9799 13.9604 8.97518ZM13.9699 8.76247L13.8682 8.77075L13.8671 8.75537L13.9592 8.74712L14.0396 8.72703C14.0408 8.73647 14.0455 8.74003 14.0561 8.73884C14.1518 8.72231 14.1424 8.71759 14.1885 8.71403C14.2038 8.71284 14.2133 8.72231 14.2145 8.74122L13.9699 8.76247V8.76247ZM14.3256 8.73175C14.2688 8.72584 14.2653 8.72112 14.2251 8.72465L14.2239 8.71165L14.3149 8.7034L14.3161 8.7164C14.3067 8.71759 14.3409 8.71993 14.3256 8.73175ZM14.3327 8.71522L14.3315 8.70222L14.3811 8.6975L14.3823 8.7105L14.3327 8.71522ZM14.4425 8.70575L14.4414 8.69275C14.4496 8.69159 14.4614 8.68568 14.4768 8.67384C14.5016 8.6715 14.5146 8.68803 14.517 8.70693L14.4425 8.70575V8.70575ZM14.5832 8.68803L14.582 8.67268L14.6422 8.66793L14.6434 8.68331L14.5832 8.68803ZM14.6671 8.68093C14.6659 8.66322 14.673 8.65259 14.6883 8.65022L14.7084 8.67622C14.7072 8.66793 14.7108 8.66322 14.7179 8.66203L14.7332 8.6904L14.6671 8.68093ZM13.7749 9.06618L13.7725 9.03662L13.7631 9.03781L13.7654 9.06734L13.7749 9.06618ZM15.8511 8.5285C15.8606 8.52259 15.8653 8.51668 15.8428 8.51315C15.8322 8.52497 15.8547 8.5285 15.831 8.52968L15.8322 8.54031C15.8346 8.53797 15.8405 8.5344 15.8452 8.53087L15.8322 8.5415V8.54268L15.8074 8.57459L15.857 8.55687H15.8629L15.8606 8.52731L15.8511 8.5285ZM15.9374 8.59587L15.9279 8.59706L15.9303 8.62659L16 8.62068C15.9988 8.60178 15.9527 8.59587 15.9374 8.59587ZM15.8298 8.54387L15.831 8.54268V8.5415C15.831 8.5415 15.8298 8.54268 15.8298 8.54387Z" fill="black"/>
<path d="M11.2933 6.35656L11.2945 6.37547L11.3335 6.37194C11.3323 6.36013 11.3371 6.34122 11.3453 6.31756L11.3418 6.28331C11.3252 6.2845 11.3087 6.30931 11.2933 6.35656V6.35656ZM10.9199 5.4585L10.9164 5.42422L10.8608 5.42894L10.8644 5.46322L10.9199 5.4585V5.4585ZM9.83634 7.48744C9.83397 7.45553 9.73472 7.33147 9.53856 7.11284C9.535 7.07269 9.60238 7.01241 9.74063 6.93325L10.1353 6.58938C10.2239 6.47709 10.2759 6.29513 10.2913 6.04225L10.2866 5.98434C10.2712 5.80944 10.1447 5.66884 9.90487 5.56131C9.76306 5.46559 9.50781 5.41241 9.13916 5.40294C8.83428 5.42894 8.43603 5.53766 7.94566 5.73028C7.81094 5.82719 7.65731 5.92406 7.48478 6.02097L7.48716 6.05053C7.49778 6.04934 7.51431 6.04344 7.53325 6.03044C7.55331 6.02806 7.56516 6.03753 7.56631 6.05644L7.59587 6.04106L7.61003 6.03988L7.61122 6.05288C7.61241 6.06825 7.50606 6.15213 7.291 6.30222L7.30753 6.33294L7.29334 6.33413L7.25791 6.32113C7.25909 6.33175 7.24372 6.33884 7.21419 6.34122L7.21537 6.35422L7.24963 6.39675C7.239 6.39794 7.22247 6.39322 7.2 6.38494C7.15037 6.38966 7.10191 6.41566 7.05347 6.46528L7.07356 6.37784C7.14566 6.06706 7.19528 5.79172 7.22128 5.55303L7.21772 5.53766C7.16809 5.50575 7.11966 5.46084 7.07475 5.40413C7.07594 5.3675 7.07594 5.34622 7.07475 5.3415L7.07119 5.3285L7.05703 5.33206C6.90103 5.56603 6.60088 5.96544 6.15541 6.53028C5.81625 6.93206 5.64134 7.15537 5.63072 7.20028C5.49247 7.34328 5.42628 7.42953 5.43337 7.45909C5.39675 7.48272 5.38137 7.50634 5.38731 7.53234C5.37666 7.53472 5.36956 7.53116 5.36722 7.52053C5.30813 7.61625 5.22069 7.67769 5.10369 7.70487L4.98078 7.73322C4.96425 7.73678 4.95597 7.74859 4.95716 7.76869L4.96072 7.78403L5.00678 7.77341L5.01034 7.78641L4.90634 7.82659L4.722 7.86912L4.62512 7.87503C4.61094 7.88922 4.70191 7.87384 4.66647 7.88212L4.54594 7.9105C4.47269 7.92703 4.4325 7.92112 4.42541 7.89159L4.41122 7.89512C4.41359 7.90812 4.41478 7.91756 4.41241 7.92584L4.40531 7.89631L4.30841 7.91875C4.30134 7.87384 4.17016 7.71078 3.91609 7.42953C3.91138 7.37519 4.00119 7.296 4.18434 7.19322L4.70191 6.73825C4.81772 6.58938 4.88625 6.35066 4.90872 6.02216L4.90163 5.94534C4.88153 5.71375 4.71375 5.52703 4.39822 5.38287C4.21153 5.25644 3.87594 5.18906 3.39144 5.17844C2.98966 5.21269 2.465 5.35569 1.81978 5.60503C1.64253 5.73381 1.44047 5.86144 1.21359 5.98787L1.21713 6.02806C1.2325 6.02687 1.25259 6.01862 1.27741 6.00444C1.30341 6.00206 1.31759 6.01388 1.31994 6.03753L1.36012 6.01506L1.38022 6.01388L1.38137 6.03278C1.38256 6.05169 1.24194 6.16159 0.957156 6.36247L0.979625 6.39794L0.959531 6.39912L0.915812 6.38375C0.917 6.39556 0.896906 6.40384 0.855531 6.40737L0.857906 6.42866L0.905156 6.48066C0.889813 6.48184 0.868531 6.47709 0.841375 6.46766C0.749187 6.47591 0.659375 6.54209 0.57075 6.66734L0.593219 6.70281C0.670031 6.63191 0.714906 6.59647 0.727906 6.59528L0.732656 6.65319C0.719656 6.65434 0.699563 6.66263 0.672375 6.67681L0.720844 6.75006C0.812352 6.65117 0.915973 6.56423 1.02925 6.49128C1.08478 6.50547 1.11434 6.52319 1.1155 6.54209L1.15806 6.53856C1.46294 6.31284 1.76425 6.14978 2.06322 6.04934L2.06678 6.0895C2.01122 6.17222 1.97341 6.21478 1.95331 6.21713C1.95569 6.2455 1.96516 6.27031 1.98287 6.29159C1.98759 6.34241 1.85169 6.68509 1.57638 7.31847C0.95125 8.79084 0.426594 9.88034 0 10.5846C0.0011875 10.5988 0.00946875 10.6177 0.0248125 10.6413C0.13 10.6165 0.196156 10.5906 0.224531 10.5657L0.246969 10.5634L0.250531 10.6035L0.2895 10.6L0.329688 10.5776C0.330875 10.5894 0.343875 10.5953 0.371062 10.5929L0.374594 10.6331C0.378125 10.6721 0.355688 10.7312 0.308406 10.8127C0.265875 10.8612 0.219781 10.9628 0.171344 11.1176L0.172531 11.1365L0.211531 11.1329C0.381688 10.9427 0.5105 10.756 0.599125 10.574C1.09544 10.4287 1.47356 10.2857 1.73591 10.1451C1.99941 10.1226 2.20028 10.0529 2.33737 9.93825L2.335 9.917L2.23575 9.94653L2.21328 9.94891L2.21094 9.92763C2.40472 9.89809 2.53825 9.85553 2.61272 9.79647C2.98966 9.50575 3.27444 9.30016 3.46706 9.17844C3.86294 8.88775 4.12053 8.60413 4.23753 8.32881C4.25878 8.32406 4.28006 8.31934 4.30369 8.31344C4.35922 8.31109 4.38997 8.30991 4.39822 8.30753C4.39587 8.29691 4.40059 8.291 4.41122 8.28863C4.49984 8.27919 4.45731 8.29453 4.51403 8.28153L4.66294 8.24728L4.68775 8.24134L4.67594 8.24844C4.69247 8.25081 4.71019 8.24962 4.73028 8.24491L4.74091 8.28863L4.06381 9.36513L3.91375 9.55303L3.84047 9.79881L3.85466 9.79528L3.92791 9.76456L3.90428 9.86028L3.91138 9.88863L3.93147 9.91344C3.922 9.91581 3.91847 9.92172 3.92081 9.93234L3.92438 9.94772L3.95509 9.94063C4 9.90163 4.01891 9.86619 4.01181 9.83428C4.06025 9.84253 4.09216 9.84609 4.10872 9.84137L4.11225 9.85672C4.08272 9.86381 4.06734 9.88744 4.065 9.92763L4.06853 9.94297L4.08509 9.93944C4.33088 9.67119 4.93353 8.75303 5.41684 8.13028C5.40147 8.06294 5.65319 7.96956 6.17312 7.84903L6.18966 7.8455C6.20856 7.92703 6.16841 8.12437 6.06913 8.43753C6.00531 8.62659 5.97459 8.73056 5.97931 8.74712C5.89659 8.99881 5.85759 9.13472 5.86234 9.15597L5.678 9.75981C5.55862 10.0694 5.46766 10.3944 5.40384 10.7371C5.41447 10.7347 5.43103 10.7359 5.45466 10.7418L5.48066 10.7193C5.483 10.73 5.49009 10.7335 5.50075 10.7312L5.49009 10.6874L5.57047 10.6851C5.59409 10.6792 5.61419 10.6496 5.63072 10.5953C5.62719 10.5137 5.64372 10.47 5.68034 10.4606C5.72997 10.2668 5.76072 10.1699 5.77134 10.1663C5.81744 9.97372 5.85169 9.86381 5.87416 9.83663C5.94388 9.58613 5.99469 9.45731 6.02778 9.44903L6.03487 9.47975L5.98406 9.61094C5.89541 10.0044 5.80562 10.3152 5.71462 10.5433L5.74062 10.6567L5.75716 10.6532C5.97697 10.1805 6.29366 9.24459 6.70606 7.8455C6.71787 7.72259 6.77697 7.62687 6.88212 7.55953L6.8585 7.53472L6.85494 7.52172C6.90222 7.51106 6.93531 7.49219 6.95422 7.46619C6.95184 7.45553 6.9105 7.44019 6.83012 7.41891L7.03575 6.53737C7.08066 6.49719 7.10666 6.47594 7.11491 6.47594L7.11847 6.52081C7.10784 6.522 7.09128 6.52791 7.07237 6.54091L7.11137 6.59647C7.18228 6.51966 7.25909 6.45347 7.34297 6.39794C7.38553 6.40975 7.40678 6.42394 7.40916 6.43809L7.43988 6.43575C7.67384 6.26441 7.90309 6.1415 8.12881 6.06706L8.13116 6.09659C8.08981 6.15922 8.06144 6.19112 8.04609 6.19231C8.04844 6.21359 8.05434 6.2325 8.065 6.24903C8.06853 6.28803 7.96691 6.548 7.75894 7.03012C7.28391 8.14681 6.88566 8.97281 6.56187 9.50931C6.56306 9.51994 6.57016 9.53413 6.58316 9.55303C6.66234 9.53413 6.71316 9.51403 6.73325 9.49512L6.74741 9.49394L6.74978 9.52347L6.78288 9.52112L6.81241 9.50575C6.81359 9.51403 6.82422 9.51756 6.84431 9.51641L6.84669 9.54831C6.84903 9.57666 6.8325 9.62156 6.79588 9.683C6.76159 9.71966 6.72616 9.79647 6.68834 9.91344L6.6895 9.92881L6.72025 9.92644C6.84903 9.78228 6.94712 9.64047 7.01447 9.50103C7.39144 9.38997 7.67859 9.28241 7.87709 9.17606C8.07919 9.15834 8.23159 9.10634 8.33559 9.01891L8.33441 9.00353L8.25759 9.026L8.24106 9.02719L8.23987 9.01181C8.38641 8.99053 8.48922 8.95747 8.54475 8.91375C8.83072 8.69394 9.04697 8.53678 9.1935 8.44459C9.64962 8.11256 9.86234 7.7935 9.83634 7.48744V7.48744ZM9.75834 7.50753L9.76897 7.62687C9.75481 7.65644 9.73944 7.67178 9.72525 7.67297L9.70753 7.46972C9.74062 7.48153 9.75716 7.49334 9.75834 7.50753V7.50753ZM0.810625 6.54566L0.790563 6.54681L0.787 6.51019L0.868531 6.50309L0.869719 6.522C0.856719 6.52319 0.836625 6.53028 0.810625 6.54566V6.54566ZM0.412406 10.5291C0.365156 10.5078 0.322594 10.4996 0.285969 10.5031L0.28125 10.4452C0.278875 10.4228 0.291875 10.4074 0.32025 10.4015C0.346219 10.3991 0.361594 10.418 0.363969 10.4558C0.4325 10.3719 0.470313 10.3294 0.477406 10.3282L0.521125 10.3459C0.506938 10.4641 0.470312 10.5244 0.412406 10.5291V10.5291ZM4.66766 6.07769C4.64756 6.08006 4.60737 6.01744 4.5495 5.89334L4.54594 5.85672C4.58375 5.85319 4.62275 5.91462 4.66409 6.04106L4.66766 6.07769V6.07769ZM4.61094 5.63694L4.59438 5.67594L4.01653 5.43484C4.40178 5.44784 4.60031 5.51522 4.61094 5.63694ZM2.17075 7.73206L2.08922 7.73916L2.08569 7.7025L2.16722 7.69541L2.17075 7.73206ZM2.10456 6.47356L2.12466 6.47238L2.12941 6.53028C2.1105 6.53147 2.08569 6.55981 2.05494 6.61419L2.05141 6.574C2.08803 6.53028 2.10694 6.49719 2.10456 6.47356V6.47356ZM1.93322 6.87769L1.94031 6.9545L1.92025 6.95569L1.91316 6.87888L1.93322 6.87769ZM1.84344 7.02187L1.88244 7.01831C1.87887 7.08212 1.86116 7.11641 1.82925 7.11875L1.80916 7.11994C1.83397 7.07741 1.84578 7.04431 1.84344 7.02187V7.02187ZM1.77606 7.22275L1.79853 7.22038L1.79969 7.23928L1.76306 7.30075L1.72406 7.30428L1.72291 7.28538C1.76191 7.28184 1.77962 7.26175 1.77606 7.22275V7.22275ZM1.70991 7.40356L1.69809 7.50044L1.678 7.50163L1.66972 7.40591L1.70991 7.40356V7.40356ZM1.04697 9.28834C1.02097 9.42069 0.992625 9.48803 0.963063 9.49041L0.961906 9.4715C0.954813 9.4065 0.983156 9.34506 1.04697 9.28834V9.28834ZM0.92525 9.55184L0.926437 9.57075C0.928812 9.59675 0.917 9.61212 0.891 9.61328L0.889813 9.59438C0.887438 9.57194 0.89925 9.55775 0.92525 9.55184ZM0.889813 10.099L0.95125 10.0931L0.953625 10.1143C0.93825 10.1155 0.918156 10.1238 0.893344 10.138L0.854344 10.1415C0.852 10.1214 0.865 10.1061 0.889813 10.099V10.099ZM2.63869 9.55894C2.29366 9.72909 2.09041 9.84491 2.03012 9.90516C1.65672 10.0352 1.47119 10.1155 1.47475 10.1474C1.14269 10.2786 0.924062 10.3755 0.818906 10.4358C0.794094 10.4381 0.758656 10.4287 0.711375 10.4074C0.705469 10.34 0.736188 10.2857 0.801188 10.2419C0.859094 10.2372 0.914625 10.2455 0.967812 10.2679C1.02925 10.236 1.13678 10.2006 1.28922 10.1628L1.28569 10.1226L1.16278 10.1332C1.17812 10.112 1.29631 10.0564 1.51847 9.96663L1.57991 9.96072L1.58109 9.97963C1.47594 9.98906 1.41803 10.0198 1.40503 10.0753C1.40737 10.1002 1.42156 10.1108 1.44756 10.1084C1.52675 10.0588 1.56572 10.0293 1.56456 10.021C1.71463 9.99263 2.12941 9.77519 2.80888 9.36987L2.81241 9.4065C2.81359 9.42422 2.75569 9.47384 2.63869 9.55894V9.55894ZM1.59647 9.90163C1.69572 9.89334 1.78081 9.85319 1.85169 9.78347C1.88006 9.78109 1.89544 9.79172 1.89659 9.81653C1.84816 9.82128 1.75481 9.86144 1.61891 9.93944L1.59881 9.94063L1.59647 9.90163ZM3.278 8.61003L2.75688 9.02362C2.36928 9.27769 2.16131 9.40531 2.13056 9.40769C1.51375 9.74681 1.12969 9.92291 0.980812 9.93591L0.958344 9.93825C0.97725 9.86853 1.25141 9.30725 1.78316 8.25081C2.01713 8.23072 2.38581 8.122 2.88803 7.9235L3.01094 7.91284C3.265 7.89041 3.45525 7.94003 3.5805 8.05819L3.58759 8.135C3.49425 8.40562 3.39025 8.56397 3.278 8.61003V8.61003ZM2.25938 8.03694L2.34328 8.02984L2.34447 8.04875L2.26056 8.05584L2.25938 8.03694ZM3.43753 7.83722L3.49897 7.83131C3.55569 7.8585 3.58522 7.88212 3.58759 7.90341L3.58878 7.92231C3.53441 7.92703 3.48359 7.89866 3.43753 7.83722V7.83722ZM3.60413 6.88834C3.54978 6.95331 3.40088 7.06441 3.15747 7.22038C3.07709 7.22747 2.77812 7.34328 2.26056 7.57016C2.23469 7.55834 2.20618 7.55345 2.17784 7.55597L2.17431 7.51934C2.16841 7.44491 2.20147 7.35156 2.27475 7.23813C2.31491 7.02541 2.35866 6.90369 2.40709 6.87416L2.83841 5.904C2.83369 5.84372 2.92584 5.79763 3.11491 5.76572L3.17637 5.75981L3.18109 5.81537C3.36662 5.787 3.48241 5.77047 3.52731 5.76691C3.87003 5.73738 4.04844 5.80709 4.06262 5.97372L4.10162 5.97016L4.09334 5.87209L4.13591 5.86853C4.23634 5.92406 4.29069 5.99144 4.29778 6.07059C4.3025 6.12497 4.27297 6.19231 4.21034 6.27269C4.18434 6.27503 4.16897 6.25613 4.16663 6.21831L4.12406 6.22187L4.11462 6.34003C3.94091 6.6 3.81447 6.73353 3.7365 6.74063C3.66559 6.83869 3.62188 6.88716 3.60413 6.88834ZM3.86884 7.56781C3.83338 7.54416 3.80503 7.53353 3.78375 7.53472L3.77903 7.47681L3.81803 7.47325L3.90428 7.52409C3.90784 7.55125 3.896 7.56544 3.86884 7.56781V7.56781ZM4.143 7.89275C4.18081 7.90813 4.20325 7.92466 4.20797 7.94003L4.18906 7.94475L4.19025 7.94594C4.18672 7.94594 4.18197 7.94713 4.17844 7.94831L4.15006 7.97075L4.143 7.89275V7.89275ZM4.16897 8.05584L4.16544 8.04047L4.21506 8.02866L4.21863 8.04403L4.16897 8.05584ZM4.28834 8.18937C4.33916 8.18109 4.36397 8.17756 4.4585 8.15628L4.46203 8.17162L4.28244 8.213C4.28478 8.20472 4.28716 8.19647 4.28834 8.18937ZM4.46322 8.26381C4.38759 8.27091 4.40412 8.26144 4.28359 8.28863L4.28006 8.27325L4.43131 8.22481L4.50341 8.20828L4.5105 8.23662C4.47741 8.24372 4.50103 8.24372 4.46322 8.26381ZM4.62275 8.226C4.60503 8.23072 4.59084 8.22247 4.58256 8.20237L4.62866 8.19172C4.64875 8.187 4.66175 8.19528 4.66647 8.21537L4.62275 8.226V8.226ZM5.05525 7.76041L5.05169 7.74506L5.12616 7.72731L5.13325 7.75569L5.05525 7.76041ZM5.51728 10.5941C5.522 10.5728 5.52319 10.5575 5.52081 10.5468L5.53737 10.5433C5.55747 10.5386 5.56928 10.5457 5.574 10.5646L5.57756 10.5799L5.51728 10.5941V10.5941ZM5.84106 7.88212L5.80797 7.87622C5.75481 7.8975 5.70991 7.91284 5.67325 7.92112L5.64253 7.92822C5.62481 7.93294 5.61063 7.92584 5.60353 7.90694L5.81978 7.85731L5.89069 7.82422L5.91434 7.85141C5.88006 7.8585 5.85525 7.86912 5.84106 7.88212V7.88212ZM6.00769 7.82894L6.00413 7.81359C6.01478 7.81122 6.02894 7.80297 6.04431 7.78759L6.19794 7.75213L6.20147 7.7675C6.11994 7.78759 6.05494 7.80769 6.00769 7.82894ZM6.03131 7.51816C6.02069 7.52053 6.0065 7.52997 5.98878 7.54416C5.98641 7.53353 5.96516 7.53353 5.92497 7.54297C5.91787 7.51344 6.03131 7.47209 6.26647 7.41772L6.29956 7.41062L6.30666 7.439C6.14122 7.48744 6.04903 7.51463 6.03131 7.51816ZM6.44491 7.0715C6.42837 7.25938 6.36219 7.36572 6.24519 7.39291L6.24166 7.37756L6.13766 7.41772L6.09159 7.42838C6.06794 7.43428 6.04669 7.43309 6.02778 7.42719L6.01831 7.38581C6.01478 7.37047 6.16484 7.16247 6.46972 6.76306L6.50516 6.76897C6.51816 6.82334 6.49809 6.92378 6.44491 7.0715ZM7.17637 6.44519L7.16219 6.44638L7.15981 6.41684L7.22128 6.41094L7.22244 6.42628C7.21181 6.42866 7.19647 6.43456 7.17637 6.44519V6.44519ZM6.87503 9.4715C6.83959 9.45494 6.80769 9.44784 6.7805 9.45022L6.77697 9.40531C6.77578 9.38997 6.78522 9.37931 6.80531 9.37341C6.82541 9.37106 6.83722 9.38522 6.83959 9.41594C6.89041 9.35097 6.91875 9.31787 6.92466 9.31787L6.95656 9.33087C6.94475 9.42069 6.91759 9.46794 6.87503 9.4715V9.4715ZM10.1058 6.09187C10.0904 6.09306 10.0608 6.04578 10.0148 5.95006L10.0124 5.92053C10.0419 5.91816 10.0727 5.96425 10.1034 6.05878L10.1058 6.09187V6.09187ZM10.0632 5.75391L10.049 5.78462L9.61181 5.60147C9.90369 5.61094 10.0549 5.66175 10.0632 5.75391ZM8.20916 7.34566L8.14772 7.35156L8.14534 7.322L8.20678 7.31609L8.20916 7.34566ZM8.15834 6.38966L8.17488 6.38847L8.17844 6.43338C8.16306 6.43456 8.14416 6.45584 8.12172 6.49719L8.11934 6.46766C8.14653 6.43338 8.15953 6.40738 8.15834 6.38966V6.38966ZM8.02953 6.69691L8.03428 6.75481L8.01772 6.756L8.013 6.69809L8.02953 6.69691ZM7.95981 6.80678L7.99053 6.80444C7.987 6.85406 7.974 6.88006 7.95156 6.88241L7.935 6.88359C7.95272 6.85053 7.961 6.82453 7.95981 6.80678V6.80678ZM7.91019 6.95806L7.92438 6.95687L7.92556 6.97222L7.89838 7.0195L7.86766 7.02187L7.86647 7.0065C7.89838 7.00413 7.91256 6.98759 7.91019 6.95806V6.95806ZM7.86056 7.09512L7.84994 7.17075L7.83575 7.17194L7.82984 7.0975L7.86056 7.09512ZM7.35597 8.5285C7.33591 8.62778 7.31462 8.67859 7.29216 8.68094L7.291 8.66794C7.28744 8.61831 7.30872 8.57103 7.35597 8.5285ZM7.26263 8.72822L7.26381 8.74122C7.26619 8.76247 7.25672 8.77428 7.23544 8.77547L7.23428 8.76012C7.23309 8.74475 7.24253 8.73413 7.26263 8.72822V8.72822ZM7.23663 9.14416L7.28391 9.14062L7.28506 9.15597C7.27444 9.15716 7.25791 9.16306 7.239 9.17372L7.20828 9.17606C7.20709 9.15953 7.21653 9.14891 7.23663 9.14416V9.14416ZM8.56366 8.73412C8.30369 8.86294 8.14887 8.95037 8.10044 8.99528C7.81684 9.09453 7.67622 9.15597 7.67859 9.18078C7.42687 9.28125 7.26144 9.35331 7.18347 9.39941C7.16456 9.40059 7.13738 9.3935 7.10191 9.37697C7.09719 9.32616 7.12081 9.28478 7.17047 9.25406C7.21538 9.25053 7.25791 9.25644 7.29691 9.27297C7.34416 9.24934 7.42569 9.22334 7.5415 9.19378L7.53916 9.16425L7.44344 9.17253C7.45525 9.15597 7.54622 9.11344 7.71522 9.04491L7.76247 9.04134L7.76366 9.05434C7.68331 9.06144 7.63841 9.08509 7.62894 9.12762C7.63013 9.14653 7.64194 9.15597 7.66203 9.15363C7.72112 9.11463 7.74947 9.09216 7.74947 9.08509C7.86294 9.065 8.17725 8.89956 8.69366 8.58997L8.696 8.6195C8.696 8.63131 8.65228 8.66912 8.56366 8.73412V8.73412ZM7.77194 8.99409C7.84875 8.987 7.91375 8.95747 7.96809 8.90547C7.98819 8.90428 8 8.91256 8.00119 8.93147C7.96572 8.935 7.896 8.96456 7.79084 9.02128L7.77431 9.02244L7.77194 8.99409V8.99409ZM9.05053 8.01213L8.65703 8.32881C8.36278 8.52141 8.20325 8.61831 8.17844 8.62069C7.7105 8.87828 7.41978 9.01181 7.30516 9.02128L7.28862 9.02244C7.30281 8.96928 7.51197 8.54269 7.91609 7.7415C8.09216 7.72616 8.37106 7.64225 8.75391 7.491L8.84962 7.48272C9.04225 7.46619 9.18641 7.504 9.28094 7.59497L9.28569 7.65287C9.21359 7.85612 9.13559 7.97547 9.05053 8.01213V8.01213ZM8.27769 7.57725L8.33916 7.57134L8.34031 7.58672L8.27888 7.59262L8.27769 7.57725V7.57725ZM9.17222 7.42481L9.2195 7.42128C9.26322 7.44253 9.28569 7.46144 9.28684 7.47681L9.28803 7.48981C9.24669 7.49334 9.20769 7.47209 9.17222 7.42481V7.42481ZM9.29631 6.70516C9.25494 6.75481 9.14269 6.83988 8.95953 6.95806C8.89809 6.96397 8.67119 7.05141 8.27888 7.22156C8.25997 7.21447 8.23869 7.21212 8.21625 7.21328L8.21387 7.18375C8.20916 7.12703 8.23397 7.05612 8.28834 6.96987C8.31906 6.80678 8.35331 6.71581 8.38878 6.69453L8.71847 5.95716C8.71491 5.91344 8.78462 5.878 8.92644 5.85081L8.97372 5.84728L8.97725 5.89216C9.11669 5.86972 9.20412 5.85672 9.23959 5.85319C9.49956 5.83072 9.63544 5.88272 9.64609 6.01034L9.67681 6.00797L9.67091 5.93706L9.70162 5.93472C9.77725 5.97606 9.81744 6.02569 9.82216 6.08478C9.82569 6.12731 9.80444 6.17931 9.75953 6.23959C9.73944 6.24194 9.72763 6.22778 9.72525 6.19703L9.69453 6.19941L9.68509 6.28803C9.55391 6.48775 9.45819 6.59053 9.39794 6.59528C9.34475 6.66734 9.31166 6.704 9.29631 6.70516V6.70516ZM9.43456 7.19675L9.43103 7.15184L9.46175 7.1495L9.52791 7.18966C9.52909 7.20856 9.51966 7.21922 9.49956 7.22156C9.47119 7.20384 9.44994 7.19556 9.43456 7.19675V7.19675ZM3.93381 10.0671L3.90309 10.0742L3.87709 10.0966C3.88184 10.1155 3.89366 10.1226 3.91375 10.1179C3.93381 10.1132 3.94209 10.1013 3.93738 10.0824L3.93381 10.0671V10.0671ZM3.81684 9.83428L3.82037 9.84963C3.84047 9.84491 3.84875 9.83309 3.84403 9.81419L3.84047 9.79881C3.82156 9.80353 3.81328 9.81538 3.81684 9.83428V9.83428ZM4.65347 8.26262L4.67594 8.24844C4.67119 8.24844 4.66766 8.24725 4.66409 8.24609C4.65584 8.24844 4.65228 8.25434 4.65347 8.26262ZM4.64875 7.85494L4.68419 7.84669L4.67709 7.81594L4.64166 7.82422L4.64875 7.85494V7.85494ZM12.9997 9.04844L12.9193 9.039L12.9052 9.06972L12.9063 9.08509L13.3849 9.04491L13.3826 9.01538L12.9997 9.04844ZM13.4369 9.01181L13.4393 9.04134H13.444L13.4417 9.01181H13.4369ZM15.4446 8.74947L15.447 8.77903L15.499 8.78847L15.4966 8.75894L15.4446 8.74947V8.74947ZM15.3713 8.75537C15.0121 8.83575 14.9672 8.82156 14.8916 8.82747L14.8939 8.857L14.927 8.85466L14.9447 8.85347L14.94 8.84994L14.979 8.83456C15.3347 8.79556 15.3761 8.80975 15.3725 8.76956L15.3713 8.75537ZM13.2148 8.23309L13.1829 8.22247C13.1569 8.29216 13.1439 8.33353 13.1451 8.34534L13.1462 8.35834C13.1711 8.35716 13.1935 8.31462 13.2148 8.23309ZM12.7823 8.00031L12.7811 7.98494L12.7646 7.98612L12.735 8.00503L12.7516 8.03338C12.774 8.03103 12.7846 8.02038 12.7823 8.00031V8.00031ZM13.7217 8.97163L13.7193 8.94209L13.7099 8.94328L13.7122 8.97281L13.7217 8.97163V8.97163ZM15.6715 8.53206L15.6939 8.52969C15.7069 8.5285 15.7128 8.51788 15.7117 8.49897L15.6987 8.47059C15.6171 8.47769 15.5793 8.48125 15.5132 8.51787L15.512 8.5025L15.4139 8.51197C15.4115 8.48241 15.4033 8.46706 15.3903 8.46825L15.3394 8.47297C15.2803 8.47769 15.252 8.47534 15.2224 8.49778C15.2213 8.48716 15.2177 8.48241 15.2118 8.48241L15.1551 8.48716L15.122 8.50606C15.1208 8.49541 15.1173 8.49069 15.1114 8.49069L15.0913 8.50841L15.0901 8.49306L15.0109 8.48716L14.992 8.48834L14.9944 8.51787L15.0346 8.5285L15.0724 8.52616C15.0854 8.53441 15.0996 8.53678 15.1161 8.53559L15.1492 8.51906L15.1504 8.53206C14.9648 8.57813 14.966 8.56988 14.8384 8.59113C14.8242 8.58169 14.8136 8.57697 14.8065 8.57812L14.8041 8.5805C14.79 8.57931 14.7817 8.56988 14.7805 8.5545L14.8467 8.54622C14.8514 8.54622 14.8549 8.55097 14.8916 8.55806C14.9447 8.53206 14.9471 8.52141 14.9755 8.51906L14.9731 8.4895C14.7911 8.52497 14.8644 8.50131 14.6363 8.52141L14.6257 8.52259L14.6233 8.49306C14.9164 8.45759 14.8183 8.47769 14.9187 8.44934C14.9199 8.45997 14.9235 8.46469 14.9294 8.46469C14.9402 8.4537 14.9543 8.44662 14.9696 8.44459L14.9897 8.44344C15.0925 8.43516 15.1267 8.45525 15.33 8.39853L15.3312 8.41153L15.3643 8.39497L15.395 8.39263C15.3926 8.36306 15.4375 8.35834 15.4529 8.35716L15.4505 8.32525C15.0937 8.39734 15.0003 8.37725 14.901 8.40563L14.8998 8.39263C14.8065 8.40916 14.803 8.40206 14.7793 8.40325C14.7722 8.40444 14.7616 8.41034 14.7498 8.42216C14.7486 8.41153 14.7451 8.40678 14.738 8.40678C14.7344 8.40678 14.7332 8.40797 14.7321 8.40797L14.4295 8.45759C14.4284 8.44934 14.4248 8.44459 14.4177 8.44578C14.2606 8.47887 14.3031 8.48478 14.0927 8.50369C14.0833 8.50487 14.0703 8.50959 14.0538 8.52022C14.0526 8.51197 14.0478 8.50725 14.0372 8.50841L13.9084 8.51906L13.8222 8.54031C13.821 8.53206 13.8162 8.52731 13.8056 8.5285C13.7572 8.5415 13.7146 8.54978 13.6803 8.55212H13.678C13.6567 8.5545 13.6886 8.54622 13.6721 8.53916L13.6461 8.5545C13.6083 8.55806 13.6284 8.55213 13.4984 8.55331C13.2703 8.58169 13.2951 8.58522 13.2703 8.58641L13.1852 8.5805C13.1864 8.58878 13.1817 8.59469 13.1722 8.59469C13.0753 8.58169 13.0257 8.56631 13.0245 8.54859C13.0375 8.45644 13.06 8.40916 13.0919 8.40678L13.1084 8.40563L13.0942 8.43634L13.1108 8.43516C13.1415 8.41859 13.1557 8.40325 13.1545 8.38906L13.1522 8.35716L13.1214 8.35953L13.1191 8.32997C13.1167 8.30753 13.1202 8.28744 13.1285 8.27091L13.1982 8.15862L13.2006 8.18819L13.2337 8.18581L13.2313 8.15628L13.2124 8.12909C13.2372 8.10781 13.2561 8.096 13.2715 8.09481L13.2703 8.07947L13.2254 8.083L13.2219 8.03809C13.3117 7.85141 13.3542 7.74269 13.3518 7.71197L13.3837 7.72497C13.4038 7.72378 13.4133 7.71197 13.4121 7.69069L13.3814 7.69306L13.3802 7.68006C13.378 7.65848 13.3821 7.63673 13.392 7.61744C13.4405 7.56663 13.4629 7.51581 13.4582 7.46263C13.4677 7.46144 13.4724 7.46619 13.4736 7.47681C13.5149 7.45319 13.5468 7.39053 13.5705 7.28656C13.6437 7.15422 13.7477 6.8895 13.8836 6.49366C14.1436 5.79409 14.1329 5.71966 14.1696 5.55422L14.1388 5.55656C14.1412 5.57784 14.1365 5.59794 14.127 5.61684C14.1058 5.60856 14.0892 5.60384 14.0774 5.60503L14.0762 5.59203C14.0715 5.53175 14.0963 5.45969 14.153 5.37459L14.1672 5.37341L14.1932 5.47503L14.2239 5.47269C14.2227 5.46559 14.231 5.42541 14.2476 5.35097C14.2464 5.33559 14.2346 5.32616 14.2109 5.32497L14.1814 5.34387C14.179 5.32259 14.1802 5.26706 14.1838 5.17844L14.1684 5.17963C14.1424 5.15363 14.1294 5.13234 14.1282 5.11462L13.9592 5.13116C13.9581 5.11934 13.9522 5.10162 13.9403 5.07916C13.9392 5.06381 13.977 5.04844 14.0549 5.03309L14.0892 5.04609L14.1211 5.02719C14.1223 5.03781 14.1282 5.04253 14.14 5.04134L14.1719 5.02244C14.1731 5.03309 14.179 5.03781 14.1908 5.03663L14.2062 5.03544L14.2038 5.00119C14.1802 5.00353 14.1176 5.00353 14.0183 5L13.9864 5.02128L13.9852 5.00237C13.1923 5.06734 12.7421 5.104 12.6346 5.11462C12.6204 5.11581 12.5648 5.11463 12.4668 5.11225C12.4679 5.12525 12.4561 5.13234 12.4325 5.13472L12.3982 5.11934L12.2824 5.14891C12.2552 5.15125 12.2092 5.15006 12.1453 5.14297C12.1276 5.15716 12.1063 5.16544 12.0803 5.16781C12.0662 5.16897 12.2493 5.15834 12.4195 5.14653C12.4018 5.16072 12.3746 5.16897 12.3368 5.17253C12.3108 5.17487 12.2883 5.17134 12.2694 5.16072C12.2434 5.17253 12.1595 5.19144 12.0189 5.21978L11.9847 5.20678L11.4316 5.29188C11.4103 5.28125 11.3855 5.27769 11.3572 5.28006C11.3276 5.28241 11.278 5.29306 11.2095 5.31197L10.9424 5.42303L10.9625 5.45612C10.9755 5.45494 10.9944 5.44784 11.0168 5.43484L11.1114 5.44313L11.0996 5.53175C11.0121 5.57075 10.9613 5.62866 10.9471 5.70191C10.816 5.75981 10.751 5.80119 10.751 5.826L10.7522 5.84134L10.7722 5.84019L10.8077 5.82128L10.849 5.87091L10.8549 5.93944C10.8573 5.96072 10.6363 6.42509 10.1944 7.33266C9.81153 8.20709 9.61062 8.68569 9.59172 8.77194C9.46056 8.80856 9.38494 8.86175 9.36247 8.93266C9.36484 8.95509 9.40384 8.97047 9.47947 8.97638L9.483 9.01062L9.44875 9.06734L9.45466 9.13591C9.45819 9.17134 9.55391 9.19853 9.74181 9.21744C9.74063 9.20562 9.74653 9.19853 9.75953 9.19734C9.76306 9.23988 9.75125 9.32259 9.72406 9.4455L9.74416 9.44431C9.82216 9.33797 9.85878 9.26469 9.85525 9.22453L9.87178 9.22334C9.89069 9.22216 9.91078 9.24344 9.93441 9.2895C9.91078 9.29897 9.82806 9.48684 9.68625 9.85434L9.70634 9.88744L9.72644 9.88625C9.90016 9.44669 10.0089 9.20325 10.0538 9.15716C10.2818 9.13706 10.6765 9.09691 11.2366 9.03662L11.2721 9.01534C11.2733 9.02719 11.2803 9.03309 11.2933 9.03191L11.33 9.02834L11.3654 9.00709C11.3666 9.01891 11.3737 9.02481 11.3867 9.02362L11.8109 8.987C11.9232 8.97753 11.9764 8.94328 11.9716 8.88538C11.9705 8.87 12.0366 8.85228 12.1702 8.83337C12.1832 8.83219 12.2021 8.83575 12.2281 8.844C12.2269 8.83338 12.2942 8.82275 12.429 8.81094C12.4325 8.74003 12.4549 8.70222 12.4951 8.69866L12.4916 8.66441C12.4538 8.66794 12.4112 8.67741 12.3616 8.69394C12.273 8.68922 12.2163 8.68213 12.1926 8.67384C12.169 8.68684 12.1513 8.69394 12.1383 8.69513L11.8428 8.70456L11.8074 8.72347C11.8062 8.71284 11.7991 8.70812 11.7861 8.70931L11.7696 8.71047L11.7317 8.72941C11.7306 8.71875 11.6998 8.71047 11.6384 8.70222L11.6006 8.72466L11.5273 8.73056L11.5262 8.71166C11.9067 8.67031 12.0945 8.61831 12.0898 8.55687C12.1146 8.5545 12.1276 8.56631 12.13 8.59113L12.2411 8.56278L12.2375 8.5285L11.3264 8.55331C11.3276 8.56513 11.3217 8.57222 11.3087 8.57341L11.1976 8.56397C11.1693 8.56631 11.1457 8.57459 11.1267 8.58878L11.0854 8.57341C10.9707 8.58287 10.8857 8.59703 10.8289 8.61478C10.751 8.60887 10.6647 8.61003 10.569 8.61831L10.3646 8.63603L10.27 8.62541C10.2653 8.56513 10.3823 8.26853 10.6233 7.73678C10.6931 7.55716 10.7569 7.44491 10.8183 7.40237C10.8313 7.40119 10.8502 7.40591 10.8762 7.41653L11.0216 7.36691L11.096 7.37872C11.2213 7.36809 11.3666 7.33266 11.5332 7.27119C11.5746 7.26766 11.6053 7.27003 11.6278 7.27947L11.7388 7.25347L12.0697 7.22509C12.2103 7.21328 12.3628 7.18256 12.5282 7.13175L12.5247 7.0975C12.4632 7.10341 12.4313 7.09275 12.429 7.06794C12.4254 7.02188 12.3805 7.00294 12.2942 7.01003L12.2907 6.97578L12.3817 6.94978L12.6204 6.92969L12.6168 6.89544C12.6074 6.89659 12.5589 6.89544 12.4691 6.89188L12.4656 6.85525L12.5577 6.84697C12.5826 6.84463 12.5932 6.83278 12.5908 6.80916C12.4668 6.81269 12.4041 6.80678 12.403 6.79025C11.538 6.83278 11.1043 6.84106 11.1019 6.81387C11.0889 6.81506 11.0712 6.82334 11.0476 6.83753L11.0251 6.80206C11.2543 6.31522 11.3891 6.06941 11.4281 6.06588C11.4292 6.08478 11.4198 6.1155 11.3997 6.15688L11.4009 6.17222L11.4375 6.16869C11.5285 5.95125 11.6053 5.839 11.6691 5.83428C11.9409 5.81063 11.6313 5.79291 12.2127 5.70191C12.2363 5.71256 12.2529 5.71728 12.2647 5.71609C12.4928 5.67 12.8106 5.62156 13.2183 5.57194L13.2159 5.53766L12.9985 5.55775L12.9962 5.52347C13.0222 5.52112 13.0434 5.51284 13.0612 5.49866L13.0623 5.51756C13.0742 5.51641 13.0907 5.50812 13.112 5.49394C13.1498 5.49041 13.1781 5.49394 13.1982 5.50456C13.2738 5.4845 13.3353 5.47266 13.3802 5.46794L13.5161 5.45494C13.5492 5.43369 13.5646 5.41478 13.5634 5.39703L13.5622 5.38169C13.5279 5.38522 13.4889 5.38288 13.4428 5.37459C13.4417 5.35569 13.4511 5.34269 13.4736 5.33678L13.7264 5.31316L13.8422 5.28359C13.8434 5.29659 13.8493 5.30131 13.8588 5.30131C13.8706 5.30016 13.8872 5.29187 13.9084 5.27769C13.9143 5.27887 13.9214 5.27887 13.9273 5.28006C13.912 5.31197 13.8943 5.35806 13.8765 5.41831L13.8434 5.42069C13.8411 5.39822 13.8352 5.37812 13.8245 5.36041L13.808 5.36159C13.5008 6.21713 13.3637 6.61538 13.0801 7.27238C13.0281 7.44019 12.9843 7.53353 12.9465 7.55363C12.9477 7.57253 12.9595 7.58197 12.9796 7.57962C12.9867 7.66234 12.9678 7.74387 12.9217 7.82422C12.7905 8.20237 12.7031 8.40916 12.6582 8.44697L12.6877 8.62541C12.6889 8.64431 12.6795 8.65494 12.6594 8.65731L12.6287 8.65969C12.6239 8.61003 12.6062 8.58641 12.5743 8.58997L12.5577 8.59113C12.5176 8.65375 12.4868 8.72584 12.4668 8.80975L12.4975 8.80737C12.5388 8.78022 12.5577 8.74831 12.5542 8.71166L12.6157 8.70575L12.6511 8.71875C12.6227 8.76366 12.6098 8.79913 12.6121 8.82628L12.6287 8.85466L12.5885 8.94919L12.5897 8.96456C12.6251 8.961 12.6641 8.97281 12.7055 8.99763C12.7338 8.99528 12.7646 8.98228 12.7988 8.95981C12.8343 8.95628 12.9666 8.95509 13.1947 8.95509L13.3093 8.91609C13.4488 8.91491 13.4712 8.91847 13.5917 8.90781L13.6413 8.90309L13.6673 8.88538L13.6685 8.90075C13.795 8.89009 13.8033 8.89837 13.9025 8.91019L13.9037 8.92556L13.834 8.93147L13.8363 8.961C13.8576 8.95862 13.8765 8.95272 13.8919 8.93972C13.9096 8.93856 13.9202 8.948 13.9214 8.96928C13.8931 8.97162 13.8612 8.97872 13.8257 8.99053L13.795 8.97991C13.7465 8.99291 13.7572 8.99644 13.7241 8.99881L13.6756 8.98938C13.6768 8.99763 13.6721 9.00353 13.6638 9.00353C13.665 9.02244 13.6756 9.03191 13.6933 9.03072L13.743 9.026L14.0018 9.00353L14.0998 8.98228C14.101 8.99053 14.1046 8.99528 14.1128 8.99409L14.1601 8.97638L14.2487 8.96928C14.3173 8.96337 14.3161 8.95862 14.465 8.935C14.4638 8.92556 14.4673 8.922 14.4744 8.92081L14.4756 8.93381C14.7179 8.89247 14.7332 8.89009 14.7722 8.87709L14.7758 8.88419C14.836 8.87 14.8018 8.87356 14.8183 8.86175C14.8195 8.87237 14.823 8.87709 14.8289 8.87709L14.8715 8.87356L14.8691 8.84166L14.7829 8.84047L14.7817 8.83809C14.7781 8.83928 14.7758 8.83928 14.7722 8.84047H14.7604V8.84284C14.7025 8.85466 14.7013 8.84637 14.6635 8.84994L14.4473 8.86175L14.4461 8.84637L14.5666 8.82984L14.6103 8.82628L14.6352 8.80856L14.6363 8.82394C14.8065 8.80975 14.8668 8.85228 15.6538 8.6845C15.6963 8.68094 15.6927 8.6455 15.7199 8.57222C15.7055 8.57321 15.6911 8.56993 15.6786 8.56278C15.6136 8.58759 15.5793 8.57578 15.4541 8.59588C15.4434 8.59706 15.4352 8.58759 15.4316 8.56869L15.4304 8.55569L15.5509 8.55922C15.5734 8.55687 15.6171 8.55331 15.6821 8.51669C15.6821 8.52731 15.6573 8.53322 15.6715 8.53206H15.6715V8.53206ZM9.85287 8.62541L9.79734 8.63013C9.79497 8.60769 9.82453 8.52259 9.88597 8.37725L9.92259 8.37372C9.92378 8.40797 9.90131 8.49188 9.85287 8.62541V8.62541ZM9.92025 8.35597L9.91906 8.34063C9.91788 8.32172 9.92969 8.30872 9.95569 8.30281L9.95687 8.31816C9.95806 8.34062 9.94622 8.35362 9.92025 8.35597ZM10.6588 8.92672L10.66 8.94209L10.5678 8.95038L10.5666 8.935L10.6588 8.92672ZM10.5477 8.91728C10.5489 8.93619 10.5205 8.95747 10.4591 8.97872L10.3456 8.97047L10.309 8.974L10.3055 8.93972L10.5477 8.91728ZM11.2945 5.47975L11.239 5.4845L11.2378 5.46559C11.2366 5.44669 11.2473 5.43369 11.2709 5.42778L11.291 5.42659L11.3288 5.44194C11.33 5.46441 11.3193 5.47741 11.2945 5.47975ZM12.1394 5.31431L12.1572 5.31316L12.1595 5.34741L12.1087 5.35212C12.1075 5.33322 12.117 5.32025 12.1394 5.31431V5.31431ZM11.9267 5.38878L11.8428 5.37931L11.8417 5.36397C11.9516 5.3545 11.9882 5.34269 12.0555 5.32378C12.0567 5.33678 12.0685 5.3415 12.0898 5.33916L12.0922 5.37341L12.0591 5.37697C12.0331 5.37931 12.0106 5.37578 11.9917 5.36513C11.9716 5.37813 11.9504 5.38641 11.9267 5.38878V5.38878ZM12.0319 5.69484L12.0307 5.67947L12.1666 5.66647L12.1678 5.68184L12.0319 5.69484ZM12.1772 5.57666L12.1761 5.55775L12.2423 5.55184L12.2434 5.57075L12.1772 5.57666ZM12.1926 5.34506L12.1749 5.34622L12.1903 5.30959L12.3415 5.29541L12.3427 5.31431C12.3037 5.31787 12.2529 5.3285 12.1926 5.34506ZM12.2694 5.67119L12.2671 5.63694L12.3333 5.63103C12.3557 5.62866 12.3675 5.63928 12.3687 5.66294L12.2694 5.67119ZM12.67 5.12525L12.5849 5.14891L12.5696 5.15006C12.5294 5.15363 12.4774 5.15244 12.4159 5.14653C12.5258 5.13944 12.631 5.13116 12.67 5.12525V5.12525ZM12.579 5.50341L12.5802 5.51875L12.4632 5.52941L12.462 5.51403L12.579 5.50341ZM12.7705 5.59438C12.7693 5.58022 12.7468 5.57075 12.7008 5.56603L12.5837 5.59913L12.4939 5.60266C12.4738 5.58847 12.4632 5.57903 12.462 5.57194L12.566 5.57784L12.8 5.54003L12.9193 5.54475L12.9205 5.56366C12.8614 5.56956 12.8118 5.58022 12.7705 5.59438V5.59438ZM13.9746 5.28359C13.9888 5.28478 13.9982 5.28478 14.0018 5.28478C14.0431 5.24459 14.0892 5.21269 14.1424 5.19025C14.0998 5.37697 14.0337 5.51522 13.9427 5.60503L13.8765 5.56484C13.9321 5.42422 13.9652 5.33087 13.9746 5.28359ZM13.7713 5.63219L13.7879 5.63103C13.7654 5.67356 13.7453 5.696 13.7288 5.69719L13.7253 5.65228C13.7359 5.65228 13.7513 5.64519 13.7713 5.63219V5.63219ZM13.6402 5.94534C13.6721 5.81772 13.7028 5.74566 13.7312 5.72675L13.7323 5.74209C13.7158 5.86025 13.6898 5.92291 13.6555 5.92763L13.6614 6.00206C13.6331 6.04225 13.6201 6.07297 13.6213 6.09659L13.6047 6.09778L13.5953 5.99497C13.6142 5.99263 13.6295 5.97606 13.6402 5.94534V5.94534ZM13.5894 6.1155C13.5905 6.13322 13.5787 6.17459 13.5551 6.23841L13.5386 6.23959L13.535 6.19469C13.5575 6.14269 13.5764 6.11669 13.5893 6.1155H13.5894ZM12.6357 8.883L12.6346 8.87L12.6653 8.86766L12.6688 8.91256C12.6523 8.91375 12.6405 8.90428 12.6357 8.883V8.883ZM13.9982 8.91847C13.997 8.90781 13.9923 8.90309 13.9817 8.90428L13.9049 8.91138L13.9037 8.896H13.9108L14.0927 8.88066L14.0939 8.896C14.0408 8.89837 14.0089 8.90666 13.9982 8.91847V8.91847ZM13.9073 8.88066C13.9143 8.88419 13.9108 8.88775 13.9073 8.89009C13.9037 8.88891 13.899 8.88537 13.9073 8.88066ZM13.9167 8.66794L13.8151 8.67622L13.8139 8.66084L13.9061 8.65259L13.9864 8.6325C13.9876 8.64194 13.9923 8.6455 14.003 8.64431C14.0987 8.62778 14.0892 8.62303 14.1353 8.6195C14.1507 8.61831 14.1601 8.62778 14.1613 8.64669L13.9167 8.66794V8.66794ZM14.2724 8.63722C14.2157 8.63131 14.2121 8.62659 14.1719 8.63013L14.1707 8.61713L14.2618 8.60888L14.2629 8.62188C14.2535 8.62303 14.2878 8.62541 14.2724 8.63722ZM14.2795 8.62069L14.2783 8.60769L14.3279 8.60294L14.3291 8.61594L14.2795 8.62069ZM14.3894 8.61122L14.3882 8.59822C14.3965 8.59706 14.4083 8.59113 14.4236 8.57931C14.4484 8.57697 14.4614 8.5935 14.4638 8.61241L14.3894 8.61122ZM14.53 8.5935L14.5288 8.57812L14.5891 8.57341L14.5903 8.58878L14.53 8.5935ZM14.6139 8.58641C14.6127 8.56869 14.6198 8.55806 14.6352 8.55569L14.6552 8.58169C14.6541 8.57341 14.6576 8.56869 14.6647 8.5675L14.6801 8.59588L14.6139 8.58641ZM15.7767 8.44934L15.7778 8.44816V8.44697C15.7778 8.44697 15.7767 8.44816 15.7767 8.44934ZM15.7979 8.43397C15.8074 8.42806 15.8121 8.42216 15.7897 8.41863C15.779 8.43044 15.8015 8.43397 15.7778 8.43516L15.779 8.44578C15.7814 8.44344 15.7873 8.43987 15.792 8.43634L15.779 8.44697V8.44816L15.7542 8.48006L15.8038 8.46234H15.8097L15.8074 8.43278L15.7979 8.43397V8.43397ZM15.8842 8.50134L15.8748 8.5025L15.8771 8.53206L15.9468 8.52616C15.9457 8.50725 15.8996 8.50134 15.8842 8.50134V8.50134Z" fill="#F9DC3E"/>
</g>
<defs>
<clipPath id="clip0">
<rect width="16" height="6.2528" fill="white" transform="translate(0 5)"/>
</clipPath>
</defs>
</svg>
