<svg viewBox="0 0 16 16" xmlns="http://www.w3.org/2000/svg">
  <path d="M13.4543 12.9411C12.085 13.6485 10.29 14.038 8.4 14.038C6.50995 14.038 4.71501 13.6484 3.34566 12.941C2.86259 12.6914 2.44608 12.4087 2.09754 12.1C2.03469 12.2862 2 12.4773 2 12.6728C2 14.499 4.86541 15.9794 8.4 15.9794C11.9346 15.9794 14.8 14.499 14.8 12.6728C14.8 12.4773 14.7653 12.2862 14.7023 12.1001C14.3539 12.4087 13.9374 12.6915 13.4543 12.9411Z" fill="#FCA285"/>
  <path d="M13.4543 9.76167C12.085 10.4691 10.29 10.8586 8.4 10.8586C6.50995 10.8586 4.71501 10.469 3.34566 9.76154C2.86259 9.51194 2.44608 9.22931 2.09754 8.92058C2.03469 9.10682 2 9.29792 2 9.49338C2 11.3196 4.86541 12.8 8.4 12.8C11.9346 12.8 14.8 11.3196 14.8 9.49338C14.8 9.29792 14.7653 9.10682 14.7023 8.92071C14.3539 9.22931 13.9374 9.51207 13.4543 9.76167Z" fill="#FCA285"/>
  <path d="M8.4 6.61325C11.9346 6.61325 14.8 5.13282 14.8 3.30662C14.8 1.48043 11.9346 0 8.4 0C4.86538 0 2 1.48043 2 3.30662C2 5.13282 4.86538 6.61325 8.4 6.61325Z" fill="#FCA285"/>
  <path d="M13.4543 6.66829C12.085 7.37575 10.29 7.76538 8.4 7.76538C6.50995 7.76538 4.71501 7.37575 3.34566 6.66829C2.86259 6.41869 2.44608 6.13607 2.09754 5.82733C2.03469 6.01344 2 6.20455 2 6.4C2 8.22618 4.86541 9.70663 8.4 9.70663C11.9346 9.70663 14.8 8.22618 14.8 6.4C14.8 6.20455 14.7653 6.01344 14.7023 5.82733C14.3539 6.13607 13.9374 6.41869 13.4543 6.66829Z" fill="#FCA285"/>
  <path d="M13 13C13 13.275 12.775 13.5 12.5 13.5H1.5C1.225 13.5 1 13.275 1 13V8C1 7.725 1.225 7.5 1.5 7.5H12.5C12.775 7.5 13 7.725 13 8V13Z" fill="#F15642"/>
  <path d="M3.0665 9.8335C3.1585 9.0575 4.3295 8.918 4.881 9.342C5.153 9.5615 4.8655 9.9095 4.625 9.7335C4.3295 9.546 3.6575 9.458 3.5735 9.873C3.4655 10.529 5.205 10.1535 5.1765 11.217C5.1485 12.2325 3.6775 12.256 3.1255 11.8005C2.9935 11.6925 2.9975 11.517 3.07 11.4085C3.1735 11.305 3.2895 11.269 3.4255 11.381C3.7535 11.6045 4.597 11.7725 4.657 11.2045C4.6055 10.6135 2.9425 10.969 3.0665 9.8335Z" fill="white"/>
  <path d="M8.2965 11.5445L8.3605 11.62C8.624 11.86 8.2805 12.252 8.0125 12L7.877 11.8925C7.669 12.036 7.4255 12.1045 7.1015 12.1045C6.398 12.1045 5.594 11.62 5.594 10.6365C5.594 9.653 6.3935 9.1535 7.1015 9.1535C7.8445 9.1535 8.5725 9.653 8.5725 10.6365C8.5725 11.0165 8.476 11.297 8.2965 11.5445ZM8.056 10.6365C8.056 10.001 7.5565 9.6775 7.101 9.6775C6.6095 9.6775 6.1255 10.0005 6.1255 10.6365C6.1255 11.121 6.537 11.5805 7.101 11.5805C7.2445 11.5805 7.3845 11.5445 7.5245 11.5085L7.069 11.0885C6.857 10.8325 7.193 10.4685 7.4605 10.7045L7.9125 11.156C8.012 11.0165 8.056 10.8445 8.056 10.6365Z" fill="white"/>
  <path d="M9.1615 9.4735C9.1615 9.3415 9.2735 9.2295 9.4135 9.2295C9.5415 9.2295 9.6495 9.342 9.6495 9.4735V11.4765H10.737C11.1285 11.4765 11.137 12 10.737 12H9.414C9.274 12 9.162 11.9005 9.162 11.7565V9.4735H9.1615Z" fill="white"/>
</svg>
