<svg viewBox="0 0 16 16" xmlns="http://www.w3.org/2000/svg">
  <path d="M2.28421 14.4011L1 0H15.1087L13.8229 14.3987L8.04561 16L2.28421 14.4011Z" fill="#1572B6"/>
  <path d="M8.05437 14.7765L12.7228 13.4819L13.8206 1.17757H8.05437V14.7765Z" fill="#33A9DC"/>
  <path d="M8.05437 6.39469H10.3918L10.5527 4.58633H8.05437V2.821H12.4838L12.4415 3.29499L12.0074 8.16241H8.05437V6.39469Z" fill="white"/>
  <path d="M8.06401 10.9819H8.05604L6.08908 10.4505L5.96321 9.04206H4.19143L4.4392 11.8152L8.05763 12.8222H8.06799V10.9819H8.06401Z" fill="#EBEBEB"/>
  <path d="M10.242 8.08528L10.0293 10.4489L8.05915 10.9803V12.8206L11.6799 11.8168L11.7062 11.5181L12.0137 8.08448H10.242V8.08528Z" fill="white"/>
  <path d="M8.06086 2.821V4.58713H3.79557L3.75893 4.19041L3.67846 3.29499L3.63624 2.821H8.06086ZM8.05448 6.39469V8.16082H6.10985L6.0756 7.7641L5.99513 6.86868L5.95291 6.39469H8.05369H8.05448Z" fill="#EBEBEB"/>
</svg>
