<svg viewBox="0 0 16 16" xmlns="http://www.w3.org/2000/svg">
  <path d="M0.45726 5.71956C0.45726 5.71956 0.0785099 5.44154 0.53301 5.0703L1.59193 4.10607C1.59193 4.10607 1.89493 3.78144 2.21529 4.06428L11.9871 11.5982V15.2109C11.9871 15.2109 11.9823 15.7782 11.2674 15.7155L0.45726 5.71956Z" fill="#2489CA"/>
  <path d="M2.97597 8.04834L0.457261 10.3802C0.457261 10.3802 0.198446 10.5762 0.457261 10.9266L1.62666 12.0097C1.62666 12.0097 1.90441 12.3134 2.31473 11.9679L4.98494 9.90609L2.97597 8.04834Z" fill="#1070B3"/>
  <path d="M7.39794 8.06755L12.0172 4.47572L11.9872 0.882285C11.9872 0.882285 11.7899 0.0980282 11.1318 0.506227L4.98496 6.20334L7.39794 8.06755Z" fill="#0877B9"/>
  <path d="M11.2675 15.7204C11.5358 16 11.8609 15.9084 11.8609 15.9084L15.4606 14.1021C15.9214 13.7823 15.8567 13.3853 15.8567 13.3853V2.59864C15.8567 2.12455 15.3801 1.96063 15.3801 1.96063L12.2602 0.42909C11.5784 1.07532e-06 11.1318 0.506229 11.1318 0.506229C11.1318 0.506229 11.7063 0.0851761 11.9872 0.882285V15.1451C11.9872 15.2431 11.9667 15.3395 11.9256 15.4263C11.8436 15.595 11.6652 15.7525 11.2376 15.6866L11.2675 15.7204Z" fill="#3C99D4"/>
</svg>
