<svg viewBox="0 0 16 16" xmlns="http://www.w3.org/2000/svg">
  <path d="M8.00469 15.2547L10.9487 6.19406H5.06062L8.00462 15.2547H8.00469Z" fill="#E24329"/>
  <path d="M8.00469 15.2548L5.06063 6.194H0.934753L8.00469 15.2548Z" fill="#FC6D26"/>
  <path d="M0.934777 6.194L0.0401523 8.94752C0.000374511 9.06993 0.000369024 9.20179 0.0401366 9.3242C0.0799042 9.44662 0.157403 9.5533 0.261527 9.62896L8.00471 15.2547L0.934715 6.19406L0.934777 6.194Z" fill="#FCA326"/>
  <path d="M0.934753 6.19406H5.06063L3.28757 0.736877C3.19632 0.456064 2.79907 0.456127 2.70788 0.736877L0.934753 6.19406Z" fill="#E24329"/>
  <path d="M8.00469 15.2548L10.9487 6.194H15.0746L8.00462 15.2548H8.00469Z" fill="#FC6D26"/>
  <path d="M15.0745 6.194L15.9691 8.94752C16.0089 9.06994 16.0089 9.2018 15.9691 9.32422C15.9293 9.44663 15.8518 9.55331 15.7477 9.62896L8.00468 15.2547L15.0745 6.19406V6.194Z" fill="#FCA326"/>
  <path d="M15.0746 6.19406H10.9487L12.7218 0.736877C12.8131 0.456064 13.2103 0.456127 13.3015 0.736877L15.0746 6.19406Z" fill="#E24329"/>
</svg>
