<svg viewBox="0 0 16 16" xmlns="http://www.w3.org/2000/svg">
  <path d="M13.7687 8.89371C13.2093 8.89687 12.7249 9.03121 12.3187 9.23124C12.1687 8.93437 12.0187 8.67496 11.9937 8.48124C11.9656 8.25624 11.9312 8.11871 11.9656 7.85C11.9999 7.58122 12.1562 7.19997 12.1562 7.16872C12.153 7.1406 12.1218 7.0031 11.7999 6.99997C11.4781 6.99685 11.1999 7.06247 11.1687 7.14685C11.1375 7.23122 11.075 7.42497 11.0343 7.62497C10.9781 7.91872 10.3906 8.95933 10.0562 9.5062C9.94683 9.29371 9.85308 9.10621 9.8343 8.95618C9.80621 8.73121 9.7718 8.59368 9.80621 8.32496C9.84058 8.05618 9.99683 7.67497 9.99683 7.64372C9.99371 7.61559 9.96246 7.47809 9.64061 7.47497C9.31871 7.47184 9.04062 7.53747 9.00937 7.62184C8.97812 7.70622 8.94374 7.90622 8.87499 8.09996C8.80934 8.29371 8.02809 10.0312 7.82496 10.4843C7.72184 10.7156 7.63125 10.8999 7.56559 11.0249C7.49997 11.1499 7.56247 11.0343 7.55622 11.0468C7.49997 11.1531 7.46872 11.2124 7.46872 11.2124V11.2156C7.42497 11.2937 7.37809 11.3687 7.35619 11.3687C7.34056 11.3687 7.30931 11.1593 7.36244 10.8719C7.47806 10.2687 7.75931 9.32811 7.75622 9.29374C7.75622 9.27811 7.80931 9.11246 7.57493 9.02811C7.34681 8.94374 7.26559 9.08436 7.24681 9.08436C7.22806 9.08436 7.21244 9.13436 7.21244 9.13436C7.21244 9.13436 7.46556 8.07503 6.72806 8.07503C6.26557 8.07503 5.62807 8.57815 5.31244 9.03752C5.11245 9.14689 4.68745 9.37811 4.23745 9.62502C4.06558 9.71877 3.88745 9.81877 3.7187 9.90939L3.68436 9.87183C2.79061 8.91871 1.13749 8.24371 1.20624 6.96247C1.23124 6.49685 1.39374 5.26873 4.38126 3.78124C6.82813 2.5625 8.78749 2.89687 9.12808 3.64062C9.61246 4.70311 8.08121 6.6781 5.53751 6.96247C4.56876 7.07185 4.05936 6.69685 3.93126 6.55622C3.79689 6.40935 3.77814 6.4031 3.72814 6.43122C3.64689 6.47497 3.69689 6.60622 3.72814 6.68435C3.80314 6.88122 4.11564 7.23122 4.64689 7.40622C5.11248 7.55934 6.25 7.64372 7.625 7.11247C9.16562 6.5156 10.3687 4.85936 10.0156 3.47499C9.65624 2.06563 7.31875 1.60313 5.10938 2.3875C3.79373 2.85625 2.36874 3.58749 1.34374 4.54686C0.125 5.68435 -0.0687496 6.6781 0.0125 7.0906C0.296905 8.56246 2.32499 9.52183 3.13749 10.2312C3.09686 10.253 3.05936 10.2749 3.02499 10.2937C2.61874 10.4937 1.07187 11.3031 0.684372 12.1593C0.246874 13.128 0.753122 13.8249 1.09062 13.9187C2.13437 14.2093 3.20311 13.6874 3.78123 12.8281C4.3562 11.9687 4.28748 10.8531 4.02186 10.3437L4.01245 10.325L4.3312 10.1375C4.53748 10.0156 4.7406 9.90308 4.9187 9.80617C4.81873 10.078 4.74682 10.3999 4.70935 10.8687C4.6656 11.4187 4.8906 12.1312 5.18748 12.4124C5.31873 12.5342 5.47498 12.5374 5.57185 12.5374C5.9156 12.5374 6.07185 12.253 6.24372 11.9124C6.45622 11.4968 6.64372 11.0155 6.64372 11.0155C6.64372 11.0155 6.40935 12.3187 7.04997 12.3187C7.28434 12.3187 7.51872 12.0155 7.62497 11.8593V11.8624C7.62497 11.8624 7.63122 11.853 7.64372 11.8312C7.65683 11.8118 7.66933 11.792 7.68122 11.7718V11.7656C7.77497 11.6031 7.98434 11.2312 8.29684 10.6156C8.69993 9.82183 9.08746 8.82808 9.08746 8.82808C9.08746 8.82808 9.12496 9.07183 9.24058 9.47183C9.3093 9.70936 9.4593 9.9687 9.57493 10.2218C9.48118 10.3531 9.42493 10.4281 9.42493 10.4281L9.42805 10.4312C9.35308 10.5312 9.26868 10.6375 9.18121 10.7437C8.86246 11.125 8.48121 11.5594 8.43121 11.6844C8.37184 11.8312 8.38434 11.9406 8.49996 12.0281C8.58434 12.0906 8.73434 12.1031 8.89371 12.0906C9.18121 12.0718 9.38121 12 9.48121 11.9562C9.63746 11.9 9.81558 11.8156 9.98746 11.6906C10.3 11.4594 10.4906 11.1313 10.4718 10.6938C10.4625 10.4531 10.3843 10.2156 10.2875 9.99064C10.3156 9.95001 10.3437 9.90936 10.3718 9.86564C10.8656 9.14374 11.2468 8.35002 11.2468 8.35002C11.2468 8.35002 11.2843 8.59377 11.3999 8.99377C11.4593 9.19689 11.5781 9.4188 11.6843 9.63755C11.2218 10.0157 10.9312 10.4532 10.8312 10.7407C10.6468 11.2719 10.7906 11.5125 11.0625 11.5688C11.1843 11.5938 11.3593 11.5375 11.4905 11.4813C11.653 11.4282 11.8499 11.3375 12.0312 11.2032C12.3437 10.9719 12.6437 10.65 12.6281 10.2157C12.6187 10.0157 12.5656 9.8188 12.4937 9.6313C12.8874 9.4688 13.3968 9.37505 14.0437 9.45317C15.4343 9.61567 15.7093 10.4844 15.6562 10.8469C15.6031 11.2094 15.3125 11.4094 15.2156 11.4719C15.1187 11.5313 15.0874 11.5532 15.0968 11.5969C15.1093 11.6626 15.1531 11.6594 15.2374 11.6469C15.3531 11.6282 15.9687 11.3501 15.9937 10.6814C16.0312 9.82186 15.2156 8.88437 13.7687 8.89371V8.89371ZM3.04374 12.5093C2.58436 13.0124 1.93749 13.2031 1.66249 13.0406C1.36562 12.8687 1.48121 12.1281 2.04687 11.5937C2.39061 11.2687 2.83749 10.9687 3.13124 10.7843C3.19686 10.7437 3.29686 10.6844 3.41561 10.6124C3.43436 10.6 3.44686 10.5937 3.44686 10.5937C3.46873 10.5812 3.49373 10.5656 3.51873 10.5499C3.72811 11.3124 3.52811 11.9812 3.04374 12.5093V12.5093ZM6.4031 10.225C6.24372 10.6156 5.90622 11.6187 5.7031 11.5624C5.52807 11.5156 5.42185 10.7562 5.66869 10.0062C5.79369 9.62805 6.05932 9.17808 6.21557 9.00305C6.46872 8.7218 6.74369 8.62805 6.81247 8.74368C6.89372 8.89371 6.5031 9.9812 6.4031 10.225ZM9.17496 11.5499C9.10621 11.5843 9.04371 11.6093 9.01558 11.5906C8.99371 11.5781 9.04368 11.5312 9.04368 11.5312C9.04368 11.5312 9.39055 11.1594 9.52805 10.9875C9.60618 10.8875 9.69993 10.7719 9.79992 10.6406V10.6781C9.79996 11.1281 9.36871 11.4281 9.17496 11.5499ZM11.3124 11.0624C11.2624 11.0249 11.2687 10.9093 11.4374 10.5468C11.5031 10.4031 11.653 10.1625 11.9124 9.93433C11.9437 10.0281 11.9624 10.1187 11.9593 10.2031C11.9562 10.7656 11.5562 10.9749 11.3124 11.0624Z" fill="#CF649A"/>
</svg>
