<svg viewBox="0 0 16 16" xmlns="http://www.w3.org/2000/svg">
  <path d="M7.94123 15.9998C3.67817 15.9704 -0.0285671 12.4324 0.000165941 7.93739C0.0277906 3.61224 3.62198 -0.0293105 8.06938 0.000177847C12.3917 0.0288991 16.0383 3.61667 15.9997 8.01214C16.0355 12.3677 12.3709 16.0306 7.94123 15.9998ZM7.94123 15.9998C3.67817 15.9704 -0.0285671 12.4324 0.000165941 7.93739C0.0277906 3.61224 3.62198 -0.0293105 8.06938 0.000177847C12.3917 0.0288991 16.0383 3.61667 15.9997 8.01214C16.0355 12.3677 12.3709 16.0306 7.94123 15.9998Z" fill="white"/>
  <path d="M7.94904 14.9373C4.25202 14.9118 1.03773 11.8437 1.06264 7.94571C1.08663 4.19491 4.20346 1.03698 8.06019 1.06266C11.8084 1.08756 14.9707 4.19891 14.9372 8.01058C14.9683 11.7876 11.7905 14.964 7.94904 14.9373ZM7.94904 14.9373C4.25202 14.9118 1.03773 11.8437 1.06264 7.94571C1.08663 4.19491 4.20346 1.03698 8.06019 1.06266C11.8084 1.08756 14.9707 4.19891 14.9372 8.01058C14.9683 11.7876 11.7905 14.964 7.94904 14.9373Z" fill="#49A32B"/>
  <path d="M10.583 7.99726C10.5652 8.3279 10.2763 8.60245 9.99164 8.55454C9.99028 8.55454 9.98883 8.55454 9.98738 8.55454C9.67206 8.55496 9.41615 8.29964 9.41581 7.98432C9.42653 7.66815 9.68874 7.41896 10.005 7.42432C10.3203 7.42586 10.6 7.69232 10.583 7.99726ZM5.51257 11.2013C5.63147 11.2047 5.75045 11.2022 5.88755 11.2022V12.0638C5.03538 12.2079 4.33343 11.9659 4.16117 11.2456C4.10219 10.9807 4.06594 10.7113 4.05266 10.4402C4.03436 10.1533 4.06602 9.86305 4.04415 9.57658C3.98355 8.78832 3.88143 8.51922 3.125 8.48194V7.50092C3.17921 7.48824 3.23419 7.47888 3.28951 7.47266C3.70423 7.45224 3.87904 7.32509 3.97181 6.91658C4.01402 6.68705 4.03904 6.45471 4.04645 6.22143C4.0793 5.77037 4.06764 5.31198 4.14279 4.86824C4.25138 4.22654 4.64977 3.91479 5.30781 3.8799C5.49504 3.86986 5.68287 3.87837 5.89504 3.87837V4.75905C5.80772 4.76526 5.72772 4.77794 5.64823 4.77556C5.11198 4.75913 5.08423 4.94177 5.04508 5.38569C5.02066 5.66407 5.05436 5.94722 5.03538 6.22654C5.01555 6.50449 4.97836 6.781 4.92406 7.05437C4.8467 7.45054 4.60313 7.74517 4.2656 7.99522C4.92083 8.4216 4.99538 9.08415 5.03794 9.75692C5.06083 10.1185 5.05036 10.4825 5.08704 10.8423C5.11564 11.1215 5.22423 11.1927 5.51257 11.2013ZM6.06483 7.42432C6.06823 7.42432 6.07155 7.42432 6.07496 7.42432C6.38823 7.42952 6.63811 7.68764 6.63292 8.001C6.63292 8.0113 6.63257 8.02152 6.63198 8.03173C6.61436 8.33794 6.35189 8.57181 6.04568 8.5542C6.03334 8.55445 6.02109 8.5542 6.00874 8.5536C5.69691 8.53811 5.45666 8.27275 5.47215 7.96092C5.48764 7.64909 5.753 7.40883 6.06483 7.42432ZM8.01709 7.42432C8.35972 7.42169 8.5873 7.64373 8.58909 7.98245C8.59096 8.33028 8.37521 8.55283 8.03479 8.55428C7.68857 8.55581 7.46066 8.33683 7.45879 8.00015C7.45777 7.98296 7.45751 7.96577 7.45802 7.94858C7.46764 7.64943 7.71794 7.41471 8.01709 7.42432ZM12.1046 6.99522C12.1957 7.33564 12.3732 7.4553 12.7316 7.47164C12.7903 7.47437 12.8487 7.48432 12.9293 7.49326V8.47403C12.8857 8.48832 12.841 8.49905 12.7956 8.50603C12.3154 8.5359 12.0965 8.73292 12.048 9.21445C12.017 9.52186 12.0196 9.83266 11.9983 10.1412C11.9893 10.4799 11.9585 10.8177 11.906 11.1524C11.7835 11.7589 11.4048 12.0614 10.7792 12.0984C10.5779 12.1103 10.375 12.1002 10.1579 12.1002V11.2236C10.2748 11.2164 10.3779 11.2065 10.4813 11.204C10.8551 11.195 10.9873 11.0745 11.0056 10.7033C11.0259 10.2955 11.0347 9.88713 11.0529 9.47922C11.0794 8.8896 11.2408 8.36288 11.7901 7.99513C11.4758 7.77105 11.2235 7.49964 11.1581 7.13369C11.079 6.69011 11.0535 6.23675 11.011 5.78696C10.9899 5.56211 10.991 5.3353 10.969 5.11062C10.9453 4.86807 10.7787 4.78415 10.5579 4.77871C10.4315 4.77564 10.3045 4.77811 10.1428 4.77811V3.92211C11.1746 3.75079 11.8874 4.09411 11.9536 5.08135C11.9813 5.4959 11.9773 5.91241 12.0038 6.32696C12.0155 6.55249 12.0492 6.77632 12.1046 6.99522Z" fill="white"/>
</svg>
