<svg viewBox="0 0 16 16" xmlns="http://www.w3.org/2000/svg">
  <path d="M4 0C3.45 0 3 0.45 3 1V15C3 15.55 3.45 16 4 16H14C14.55 16 15 15.55 15 15V4L11 0H4Z" fill="#FFCBBB"/>
  <path d="M12 4H15L11 0V3C11 3.55 11.45 4 12 4Z" fill="#B0B7BD"/>
  <path d="M15 7L12 4H15V7Z" fill="#CAD1D8"/>
  <path d="M13 13C13 13.275 12.775 13.5 12.5 13.5H1.5C1.225 13.5 1 13.275 1 13V8C1 7.725 1.225 7.5 1.5 7.5H12.5C12.775 7.5 13 7.725 13 8V13Z" fill="#F15642"/>
  <path d="M3.0665 9.8335C3.1585 9.0575 4.3295 8.918 4.881 9.342C5.153 9.5615 4.8655 9.9095 4.625 9.7335C4.3295 9.546 3.6575 9.458 3.5735 9.873C3.4655 10.529 5.205 10.1535 5.1765 11.217C5.1485 12.2325 3.6775 12.256 3.1255 11.8005C2.9935 11.6925 2.9975 11.517 3.07 11.4085C3.1735 11.305 3.2895 11.269 3.4255 11.381C3.7535 11.6045 4.597 11.7725 4.657 11.2045C4.6055 10.6135 2.9425 10.969 3.0665 9.8335Z" fill="white"/>
  <path d="M8.2965 11.5445L8.3605 11.62C8.624 11.86 8.2805 12.252 8.0125 12L7.877 11.8925C7.669 12.036 7.4255 12.1045 7.1015 12.1045C6.398 12.1045 5.594 11.62 5.594 10.6365C5.594 9.653 6.3935 9.1535 7.1015 9.1535C7.8445 9.1535 8.5725 9.653 8.5725 10.6365C8.5725 11.0165 8.476 11.297 8.2965 11.5445ZM8.056 10.6365C8.056 10.001 7.5565 9.6775 7.101 9.6775C6.6095 9.6775 6.1255 10.0005 6.1255 10.6365C6.1255 11.121 6.537 11.5805 7.101 11.5805C7.2445 11.5805 7.3845 11.5445 7.5245 11.5085L7.069 11.0885C6.857 10.8325 7.193 10.4685 7.4605 10.7045L7.9125 11.156C8.012 11.0165 8.056 10.8445 8.056 10.6365Z" fill="white"/>
  <path d="M9.1615 9.4735C9.1615 9.3415 9.2735 9.2295 9.4135 9.2295C9.5415 9.2295 9.6495 9.342 9.6495 9.4735V11.4765H10.737C11.1285 11.4765 11.137 12 10.737 12H9.414C9.274 12 9.162 11.9005 9.162 11.7565V9.4735H9.1615V9.4735Z" fill="white"/>
  <path d="M12.5 13.5H3V14H12.5C12.775 14 13 13.775 13 13.5V13C13 13.275 12.775 13.5 12.5 13.5Z" fill="#CAD1D8"/>
</svg>
