<svg viewBox="0 0 16 16" xmlns="http://www.w3.org/2000/svg">
  <path d="M0 0H16V16H0V0Z" fill="#F0DB4F"/>
  <path d="M14.6905 12.1841C14.5734 11.4541 14.0973 10.8411 12.6875 10.2693C12.1977 10.0442 11.6517 9.88295 11.489 9.51183C11.4312 9.29586 11.4236 9.17418 11.4601 9.04338C11.565 8.61904 12.0715 8.48672 12.473 8.60839C12.7316 8.69508 12.9764 8.89434 13.124 9.2122C13.8145 8.76506 13.8129 8.76809 14.2951 8.46088C14.1186 8.18711 14.0243 8.06085 13.9087 7.94376C13.4935 7.47987 12.9278 7.24108 12.0228 7.25934C11.8662 7.27911 11.708 7.30039 11.5513 7.32017C11.0997 7.43424 10.6692 7.67151 10.4168 7.98939C9.65934 8.84872 9.87531 10.3529 10.797 10.9719C11.705 11.6533 13.0388 11.8085 13.2091 12.4457C13.3749 13.226 12.6358 13.4784 11.9012 13.3887C11.3597 13.2762 11.0586 13.0009 10.7331 12.5005C10.1339 12.8473 10.1339 12.8473 9.51792 13.2016C9.66392 13.521 9.81752 13.6655 10.0624 13.9423C11.2213 15.118 14.1217 15.0602 14.6418 13.2807C14.6631 13.2199 14.8031 12.8123 14.6905 12.1841V12.1841ZM8.69813 7.35362H7.20156C7.20156 8.64641 7.1955 9.93009 7.1955 11.2229C7.1955 12.0457 7.23808 12.8001 7.10424 13.0313C6.88523 13.486 6.31793 13.4298 6.05938 13.3415C5.79626 13.2123 5.66242 13.0282 5.50729 12.7682C5.46471 12.6936 5.43277 12.6358 5.42211 12.6313C5.01604 12.8792 4.61146 13.1286 4.20538 13.3765C4.40768 13.7917 4.70576 14.1522 5.08751 14.3864C5.65785 14.7286 6.42438 14.8336 7.22591 14.6495C7.74758 14.4974 8.19776 14.1826 8.4335 13.7035C8.77418 13.0754 8.70117 12.3149 8.69813 11.4738C8.70574 10.102 8.69813 8.73007 8.69813 7.35362Z" fill="#323330"/>
</svg>
