<svg viewBox="0 0 16 16" xmlns="http://www.w3.org/2000/svg">
  <g clip-path="url(#java1)">
    <path d="M12.2392 12.6166H12.179V12.5829H12.3413V12.6166H12.2814V12.7849H12.2392V12.6166V12.6166ZM12.5629 12.6254H12.5619L12.5022 12.7849H12.4749L12.4155 12.6254H12.4148V12.7849H12.3751V12.583H12.4335L12.4886 12.726L12.5434 12.583H12.6016V12.7849H12.5629L12.5629 12.6254V12.6254Z" fill="#E76F00"/>
    <path d="M6.84385 8.48716C6.84385 8.48716 6.42452 8.73101 7.14227 8.81353C8.01181 8.91273 8.45621 8.8985 9.41444 8.71714C9.41444 8.71714 9.66637 8.87511 10.0182 9.01192C7.87011 9.93256 5.15663 8.9586 6.84385 8.48716ZM6.58137 7.2858C6.58137 7.2858 6.11105 7.63393 6.82933 7.70823C7.75819 7.80405 8.49173 7.81189 9.76104 7.56748C9.76104 7.56748 9.93664 7.74546 10.2127 7.8428C7.61549 8.60224 4.7227 7.90269 6.58137 7.2858" fill="#5382A1"/>
    <path d="M8.79425 5.24778C9.32356 5.85715 8.65521 6.40555 8.65521 6.40555C8.65521 6.40555 9.99915 5.71176 9.38194 4.84297C8.80546 4.03275 8.36337 3.63022 10.7566 2.24226C10.7567 2.24223 7 3.18043 8.79425 5.24778" fill="#E76F00"/>
    <path d="M11.6353 9.37584C11.6353 9.37584 11.9456 9.63156 11.2935 9.82934C10.0536 10.205 6.13287 10.3184 5.0437 9.84433C4.65217 9.67397 5.38639 9.4376 5.61735 9.388C5.85822 9.33576 5.99587 9.3455 5.99587 9.3455C5.56045 9.03876 3.18149 9.94776 4.78748 10.2081C9.16723 10.9184 12.7714 9.88828 11.6353 9.37584V9.37584ZM7.04553 6.04103C7.04553 6.04103 5.05118 6.51473 6.33928 6.68674C6.88315 6.75956 7.96736 6.74309 8.97723 6.65847C9.80258 6.58884 10.6314 6.44084 10.6314 6.44084C10.6314 6.44084 10.3403 6.56548 10.1298 6.70922C8.10456 7.24189 4.1922 6.99407 5.31852 6.44924C6.27105 5.9888 7.04553 6.04103 7.04553 6.04103V6.04103ZM10.6231 8.04081C12.6819 6.971 11.73 5.94289 11.0656 6.08143C10.9028 6.11532 10.8301 6.14469 10.8301 6.14469C10.8301 6.14469 10.8906 6.04999 11.006 6.009C12.3204 5.54689 13.3313 7.37191 10.5817 8.09476C10.5817 8.09476 10.6137 8.06631 10.6231 8.04081Z" fill="#5382A1"/>
    <path d="M9.38189 0.00106049C9.38189 0.00106049 10.522 1.14158 8.30052 2.89544C6.5191 4.30229 7.8943 5.10445 8.29978 6.02099C7.25996 5.08274 6.49686 4.25686 7.00881 3.48818C7.7602 2.35982 9.84191 1.81275 9.38189 0.00106049" fill="#E76F00"/>
    <path d="M7.2478 10.9397C9.22391 11.0662 12.2585 10.8695 12.3303 9.93449C12.3303 9.93449 12.1922 10.2889 10.6971 10.5705C9.01052 10.8878 6.93024 10.8508 5.69643 10.6474C5.69649 10.6473 5.94903 10.8564 7.2478 10.9397" fill="#5382A1"/>
    <path d="M6.92397 14.5126C6.73755 14.6743 6.54066 14.765 6.36397 14.765C6.11177 14.765 5.97552 14.6138 5.97552 14.3713C5.97552 14.1089 6.12153 13.9171 6.7072 13.9171H6.92394L6.92397 14.5126V14.5126ZM7.43836 15.0929V13.2964C7.43836 12.8375 7.17661 12.5347 6.54551 12.5347C6.17708 12.5347 5.85434 12.6256 5.59203 12.7417L5.66775 13.0597C5.87428 12.9839 6.14162 12.9133 6.40402 12.9133C6.76757 12.9133 6.92397 13.0597 6.92397 13.3623V13.5894H6.74252C5.85922 13.5894 5.46077 13.9323 5.46077 14.4469C5.46077 14.8911 5.72335 15.1435 6.21775 15.1435C6.53554 15.1435 6.77277 15.0123 6.99454 14.8203L7.03479 15.093L7.43836 15.0929V15.0929ZM9.15505 15.0929H8.51351L7.7414 12.5802H8.30169L8.78076 14.124L8.88727 14.5883C9.12965 13.917 9.3011 13.2359 9.38684 12.5802H9.93184C9.78579 13.4076 9.52304 14.3158 9.15505 15.0929V15.0929ZM11.6162 14.5126C11.4294 14.6743 11.2322 14.765 11.0555 14.765C10.8037 14.765 10.6671 14.6138 10.6671 14.3713C10.6671 14.1089 10.8135 13.9171 11.3991 13.9171H11.6162V14.5126ZM12.1305 15.0929V13.2964C12.1305 12.8375 11.8682 12.5347 11.2378 12.5347C10.8691 12.5347 10.5462 12.6256 10.284 12.7417L10.3597 13.0597C10.5663 12.9839 10.8341 12.9133 11.0963 12.9133C11.4596 12.9133 11.6162 13.0597 11.6162 13.3623V13.5894H11.4344C10.5509 13.5894 10.1526 13.9323 10.1526 14.4469C10.1526 14.8911 10.415 15.1435 10.9093 15.1435C11.2273 15.1435 11.4644 15.0123 11.6865 14.8203L11.7269 15.093L12.1305 15.0929V15.0929ZM4.89675 15.5196C4.75011 15.7337 4.51327 15.9031 4.25397 15.999L4 15.7001C4.19736 15.5988 4.36663 15.4353 4.44527 15.2829C4.5133 15.1475 4.54145 14.9728 4.54145 14.5553V11.6865H5.08796V14.5159C5.08793 15.0742 5.0433 15.2997 4.89675 15.5196" fill="#E76F00"/>
  </g>
  <defs>
    <clipPath id="java1">
      <rect width="8.6016" height="16" fill="white" transform="translate(4)"/>
    </clipPath>
  </defs>
</svg>
