<svg viewBox="0 0 16 16" xmlns="http://www.w3.org/2000/svg">
  <path d="M14.383 12.9571C14.2711 13.7902 13.7104 14.5106 12.9258 14.8309C12.5413 14.9907 12.1247 15.0392 11.7082 14.9907C11.308 14.9429 10.9071 14.8145 10.4913 14.5748C9.91497 14.2538 9.33789 13.7581 8.66525 13.0213C9.72236 11.7238 10.3629 10.539 10.6033 9.4819C10.7153 8.98544 10.7317 8.53677 10.6832 8.12019C10.619 7.72004 10.4749 7.35125 10.2509 7.03098C9.75446 6.31056 8.92131 5.89399 7.99261 5.89399C7.06391 5.89399 6.23076 6.32624 5.73431 7.03098C5.51035 7.35125 5.36626 7.72004 5.30206 8.12019C5.23786 8.53677 5.25428 9.00112 5.38194 9.4819C5.62233 10.539 6.27854 11.7402 7.31997 13.037C6.66301 13.7738 6.071 14.2703 5.49392 14.5905C5.07735 14.8309 4.6772 14.9593 4.27705 15.0071C3.86421 15.0534 3.44689 14.9981 3.06018 14.8473C2.27556 14.5271 1.7149 13.8059 1.60292 12.9735C1.55514 12.5733 1.58725 12.1732 1.74701 11.7245C1.79479 11.564 1.87541 11.4043 1.95529 11.2124C2.06727 10.9563 2.19568 10.6838 2.32334 10.4113L2.33976 10.3792C3.44465 7.99254 4.63017 5.55804 5.86346 3.18776L5.91124 3.09145C6.03965 2.85181 6.16731 2.595 6.29571 2.35461C6.42412 2.09854 6.5682 1.85816 6.74439 1.64987C7.08108 1.2654 7.52901 1.05711 8.02546 1.05711C8.52191 1.05711 8.97059 1.2654 9.30653 1.64987C9.48272 1.85816 9.6268 2.09854 9.75521 2.35461C9.88361 2.595 10.0113 2.85106 10.1397 3.09071L10.1882 3.18701C11.4051 5.57298 12.5906 8.00747 13.6955 10.3942V10.4099C13.8239 10.6659 13.9359 10.9548 14.0635 11.2109C14.1434 11.4035 14.224 11.5633 14.2718 11.723C14.3995 12.1404 14.4472 12.5405 14.383 12.9571V12.9571ZM7.99261 12.2038C7.12811 11.1146 6.56745 10.0896 6.37485 9.22508C6.29497 8.85629 6.27854 8.53602 6.32707 8.24785C6.35917 7.99179 6.45547 7.76708 6.58313 7.57521C6.88772 7.14296 7.39985 6.87047 7.99261 6.87047C8.58537 6.87047 9.11392 7.12729 9.40209 7.57521C9.5305 7.76782 9.62605 7.99179 9.65816 8.24785C9.70593 8.53602 9.69026 8.87271 9.61038 9.22508C9.41851 10.0739 8.85786 11.0989 7.99261 12.2038V12.2038ZM15.2162 11.3714C15.1363 11.1795 15.0557 10.9713 14.9758 10.7951C14.8474 10.5069 14.7197 10.2344 14.607 9.97835L14.5913 9.96267C13.4864 7.56028 12.3009 5.12579 11.052 2.7234L11.0042 2.6271C10.8758 2.38671 10.7481 2.13065 10.6197 1.87458C10.4592 1.58641 10.2994 1.28182 10.0434 0.993654C9.5305 0.35237 8.79366 0 8.00904 0C7.20799 0 6.48757 0.35237 5.95827 0.960806C5.71789 1.24897 5.5417 1.55356 5.38194 1.84173C5.25353 2.0978 5.12587 2.35386 4.99747 2.59425L4.94969 2.68981C3.71639 5.0922 2.5152 7.52669 1.41031 9.92908L1.39464 9.96118C1.28265 10.2172 1.15425 10.4897 1.02584 10.7779C0.93999 10.9675 0.860109 11.1601 0.785455 11.3542C0.577168 11.947 0.512965 12.5077 0.592846 13.084C0.769031 14.2852 1.57007 15.2945 2.67496 15.7424C3.09154 15.9186 3.52379 15.9985 3.97246 15.9985C4.10087 15.9985 4.26063 15.9828 4.38903 15.9664C4.91759 15.9022 5.46182 15.7268 5.99037 15.4222C6.64734 15.0541 7.27145 14.5256 7.97619 13.7566C8.68093 14.5256 9.32146 15.0541 9.962 15.4222C10.4906 15.7268 11.0348 15.9022 11.5633 15.9664C11.6917 15.9828 11.8515 15.9985 11.9799 15.9985C12.4286 15.9985 12.8765 15.9186 13.2774 15.7424C14.3987 15.2938 15.1833 14.2688 15.3595 13.084C15.4879 12.5241 15.4237 11.9642 15.2162 11.3714V11.3714Z" fill="#E0565B"/>
</svg>
