<svg viewBox="0 0 16 16" xmlns="http://www.w3.org/2000/svg">
  <path d="M4.72106 12.4441C5.01909 12.8599 5.43944 13.0861 5.97539 13.0861C6.66994 13.0861 7.22909 12.7989 7.61118 12.2923C7.944 11.8511 8.12244 11.2631 8.12244 10.6744V9.84012L6.45409 9.85179L6.38715 11.0231C6.38715 11.4235 6.24506 11.5567 5.88715 11.5567C5.60991 11.5567 5.41362 11.2665 5.35144 10.7597L5.06762 8.67471C4.95689 7.95582 4.68718 7.3975 4.28224 6.99244C3.9353 6.64538 3.50015 6.42185 3.01047 6.31009L1.6353 5.94744C1.44135 5.94744 1.30115 6.09974 1.30115 6.27291C1.30115 6.56006 1.33518 6.70068 1.50227 6.90547C1.55006 6.96406 1.62718 7.01591 1.73506 7.06997C1.84641 7.12576 1.99103 7.18347 2.16191 7.24253C2.29941 7.29009 2.44618 7.33585 2.59291 7.37832C2.65334 7.3958 2.71393 7.4127 2.77468 7.42903C3.29803 7.57006 3.6998 8.07262 3.7585 8.59815L4.23512 11.0404C4.30944 11.6112 4.4683 12.0914 4.72106 12.4441ZM8.10874 9.88024H6.51227L6.51465 10.0296L6.52977 10.9739C6.52977 11.3691 6.24321 11.6116 5.85641 11.6116C5.57841 11.6116 5.3178 11.3184 5.00697 10.7094L4.10421 8.95947C3.70118 8.26021 3.16033 7.87806 2.31544 7.71212L1.03524 7.38323C0.830825 7.38323 0.674442 7.63621 0.674442 7.81662C0.674442 8.02274 0.764325 8.24112 0.902354 8.41162C1.02706 8.56574 1.29188 8.70012 1.53853 8.75194L2.07591 8.86647C2.50291 9.01068 2.89871 9.30468 3.08277 9.65194L3.76271 11.2818C4.01897 11.8432 4.28118 12.2541 4.59477 12.5506C4.96215 12.8981 5.39489 13.0788 5.91124 13.0788C6.38433 13.0788 6.8753 12.9104 7.25509 12.6089C7.67721 12.2738 7.93633 11.7997 7.97077 11.237L8.10874 9.88024Z" fill="#053949"/>
  <path d="M4.34435 10.0664L4.05012 8.55938C3.976 7.91979 3.49344 7.31815 2.86359 7.14832C2.84644 7.14378 2.82932 7.13917 2.81221 7.1345C2.77074 7.12318 2.7245 7.1102 2.67465 7.09579C2.53241 7.05462 2.39024 7.01026 2.258 6.96456C2.09829 6.90935 1.96459 6.85603 1.86682 6.80703C1.828 6.78756 1.79576 6.7692 1.77094 6.7525C1.74968 6.73823 1.73576 6.72641 1.73018 6.71956C1.61438 6.57762 1.59526 6.49868 1.59526 6.27291C1.59526 6.2652 1.59909 6.25573 1.60562 6.24862C1.60706 6.24709 2.93785 6.59509 2.93785 6.59509C3.38206 6.69618 3.76832 6.89435 4.07423 7.20038C4.4335 7.55973 4.67541 8.06056 4.77653 8.71694L5.05976 10.7974C5.13753 11.4314 5.42123 11.8508 5.88715 11.8508C6.40206 11.8508 6.67985 11.5917 6.68126 11.0316L6.73197 10.144L7.82832 10.1363V10.6744C7.82832 11.2019 7.66879 11.7275 7.37635 12.1152C7.04906 12.5491 6.57626 12.792 5.97538 12.792C5.91562 12.7921 5.85591 12.7885 5.79659 12.7812C5.0332 12.7346 4.51218 12.2144 4.03321 11.1663L3.34921 9.52676C3.12335 9.0947 2.66029 8.75118 2.16126 8.58485L1.59944 8.4642C1.41282 8.42497 1.207 8.32056 1.13097 8.22659C1.03256 8.10503 0.968559 7.94953 0.968559 7.81659C0.968559 7.80017 0.984647 7.75385 1.00856 7.7152C1.01579 7.70347 1.02312 7.69338 1.02985 7.6855L2.25059 7.99909C3.01803 8.149 3.48706 8.4792 3.846 9.10044L4.34435 10.0664Z" fill="#00D8FE"/>
  <path d="M4.34435 10.0664L4.05012 8.55938C3.976 7.91979 3.49344 7.31815 2.86359 7.14832C2.84644 7.14378 2.82932 7.13917 2.81221 7.1345C2.77074 7.12318 2.7245 7.1102 2.67465 7.09579C2.53241 7.05462 2.39024 7.01026 2.258 6.96456C2.09829 6.90935 1.96459 6.85603 1.86682 6.80703C1.828 6.78756 1.79576 6.7692 1.77094 6.7525C1.74968 6.73823 1.73576 6.72641 1.73018 6.71956C1.61438 6.57762 1.59526 6.49868 1.59526 6.27291C1.59526 6.2652 1.59909 6.25573 1.60562 6.24862C1.60706 6.24709 2.93785 6.59509 2.93785 6.59509C3.38206 6.69618 3.76832 6.89435 4.07423 7.20038C4.4335 7.55973 4.67541 8.06056 4.77653 8.71694L5.05976 10.7974C5.13753 11.4314 5.42123 11.8508 5.88715 11.8508C6.40206 11.8508 6.67985 11.5917 6.68126 11.0316L6.73197 10.144L7.82832 10.1363V10.6744C7.82832 11.2019 7.66879 11.7275 7.37635 12.1152C7.04906 12.5491 6.57626 12.792 5.97538 12.792C5.91562 12.7921 5.85591 12.7885 5.79659 12.7812C5.0332 12.7346 4.51218 12.2144 4.03321 11.1663L3.34921 9.52676C3.12335 9.0947 2.66029 8.75118 2.16126 8.58485L1.59944 8.4642C1.41282 8.42497 1.207 8.32056 1.13097 8.22659C1.03256 8.10503 0.968559 7.94953 0.968559 7.81659C0.968559 7.80017 0.984647 7.75385 1.00856 7.7152C1.01579 7.70347 1.02312 7.69338 1.02985 7.6855L2.25059 7.99909C3.01803 8.149 3.48706 8.4792 3.846 9.10044L4.34435 10.0664Z" fill="#00D8FE"/>
  <path d="M1.02588 7.66091C1.05165 7.70521 1.08165 7.7469 1.11547 7.78541C1.19806 7.87938 1.4215 7.98379 1.62412 8.02302L2.23412 8.14367C2.77594 8.30999 3.27871 8.65355 3.52394 9.08558L4.26659 10.7251C4.36759 10.9286 4.47029 11.1123 4.57635 11.2764C4.55612 11.1744 4.53939 11.0716 4.52618 10.9685L4.34435 10.037L3.846 9.07099C3.48706 8.44976 3.01803 8.11955 2.25059 7.96964L1.02985 7.65611L1.02588 7.66094V7.66091Z" fill="black" fill-opacity="0.25"/>
  <path d="M6.97539 10.1421V10.9685C6.97539 11.536 6.74653 12.1155 5.94139 12.1155C5.45144 12.1155 4.95241 11.8139 4.78971 10.6786L4.47318 8.49788C4.39106 7.85829 3.75438 6.9652 3.05624 6.79538C3.02953 6.78897 2.05977 6.50306 1.95141 6.45409C1.90835 6.43462 1.80612 6.37347 1.79991 6.36659C1.76244 6.32517 1.73412 6.28912 1.71276 6.2532C1.87147 6.29409 2.99768 6.59509 2.99768 6.59509C3.4323 6.69618 3.81021 6.89435 4.1095 7.20038C4.46097 7.55973 4.69768 8.06056 4.79659 8.71694L5.07368 10.7974C5.1498 11.4314 5.42739 11.8508 5.88318 11.8508C6.38697 11.8508 6.65877 11.5917 6.66012 11.0316L6.70974 10.144L6.97539 10.1421Z" fill="black" fill-opacity="0.25"/>
  <path d="M8.15185 10.8508V9.82141H6.44597V9.96847C6.44597 11.2922 6.08318 11.8655 5.2695 11.8655C4.55147 11.8655 4.05759 11.3526 3.74321 10.511C3.38456 9.55088 2.84062 9.11552 1.78018 9.11552H0.328324C0.144853 9.11552 3.3176e-07 9.26682 3.3176e-07 9.44955C-0.000200391 9.67797 0.0906877 9.89704 0.25253 10.0582C0.414337 10.2201 0.633979 10.3109 0.862883 10.3105L1.78368 10.3067C1.97506 10.3067 2.16003 10.4468 2.35003 10.733C2.50838 10.9716 2.64177 11.2543 2.85374 11.7679C3.04379 12.2284 3.30432 12.6188 3.65277 12.913C4.07906 13.2729 4.61565 13.4685 5.2695 13.4685C5.97344 13.4685 6.68953 13.2119 7.23029 12.7627C7.81412 12.2777 8.15185 11.6085 8.15185 10.8508Z" fill="#053949"/>
  <path d="M7.85774 10.1155V10.8508C7.85774 11.5178 7.56112 12.1055 7.04235 12.5364C6.55459 12.9416 5.90509 13.1744 5.2695 13.1744C4.685 13.1744 4.21565 13.0033 3.8425 12.6883C3.53379 12.4276 3.29897 12.0758 3.12562 11.6557C2.90641 11.1246 2.76747 10.8301 2.59506 10.5704C2.35618 10.2104 2.09485 10.0126 1.78306 10.0126L0.862265 10.0164C0.711486 10.0167 0.566816 9.95683 0.460323 9.85009C0.353755 9.74407 0.293925 9.59989 0.294117 9.44956C0.294117 9.42648 0.310235 9.40965 0.328323 9.40965H1.78018C2.70912 9.40965 3.1495 9.76212 3.46768 10.6139C3.61974 11.021 3.8195 11.3718 4.07688 11.6391C4.39968 11.9743 4.79715 12.1596 5.2695 12.1596C6.24671 12.1596 6.70821 11.4828 6.7385 10.1155H7.85774Z" fill="#00D8FE"/>
  <path d="M0.303207 9.42242C0.330031 9.45653 0.367913 9.48712 0.415325 9.53015C0.516648 9.62206 0.652943 9.67436 0.798913 9.67436H2.00479C2.677 9.67436 3.0265 10.1995 3.46553 11.1662C3.631 11.5305 4.08229 12.4096 5.35773 12.4096C6.63317 12.4096 7.00479 11.1645 7.00479 10.5861V10.1155H6.7385C6.7082 11.4828 6.2467 12.1596 5.2695 12.1596C4.79715 12.1596 4.39968 11.9743 4.07685 11.6391C3.8195 11.3718 3.61976 11.021 3.46768 10.6139C3.1495 9.76215 2.70912 9.40965 1.78018 9.40965H0.328325C0.318678 9.40965 0.30959 9.41445 0.303207 9.42242Z" fill="black" fill-opacity="0.25"/>
  <path d="M11.2297 12.4441C10.9317 12.8599 10.5113 13.0861 9.97538 13.0861C9.28082 13.0861 8.72168 12.7989 8.33959 12.2923C8.00676 11.8511 7.82832 11.2631 7.82832 10.6744V9.84012L9.49668 9.85179L9.56362 11.0231C9.56362 11.4235 9.70571 11.5567 10.0636 11.5567C10.3409 11.5567 10.5371 11.2665 10.5993 10.7597L10.8831 8.67471C10.9939 7.95582 11.2636 7.3975 11.6685 6.99244C12.0155 6.64538 12.4506 6.42185 12.9403 6.31009L14.3155 5.94744C14.5094 5.94744 14.6496 6.09974 14.6496 6.27291C14.6496 6.56006 14.6156 6.70068 14.4485 6.90547C14.4007 6.96406 14.3236 7.01591 14.2157 7.06997C14.1044 7.12576 13.9597 7.18347 13.7889 7.24253C13.6514 7.29009 13.5046 7.33585 13.3579 7.37832C13.2974 7.3958 13.2368 7.4127 13.1761 7.42903C12.6527 7.57006 12.251 8.07262 12.1923 8.59815L11.7156 11.0404C11.6413 11.6112 11.4825 12.0914 11.2297 12.4441ZM7.84203 9.88024H9.4385L9.43612 10.0296L9.421 10.9739C9.421 11.3691 9.70756 11.6116 10.0944 11.6116C10.3724 11.6116 10.633 11.3184 10.9438 10.7094L11.8466 8.95947C12.2496 8.26021 12.7904 7.87806 13.6353 7.71212L14.9155 7.38323C15.1199 7.38323 15.2763 7.63621 15.2763 7.81662C15.2763 8.02274 15.1864 8.24112 15.0484 8.41162C14.9237 8.56574 14.6589 8.70012 14.4122 8.75194L13.8749 8.86647C13.4479 9.01068 13.0521 9.30468 12.868 9.65194L12.1881 11.2818C11.9318 11.8432 11.6696 12.2541 11.356 12.5506C10.9886 12.8981 10.5559 13.0788 10.0395 13.0788C9.56644 13.0788 9.07547 12.9104 8.69568 12.6089C8.27356 12.2738 8.01444 11.7997 7.98 11.237L7.84203 9.88024Z" fill="#053949"/>
  <path d="M11.6064 10.0664L11.9006 8.55938C11.9748 7.91979 12.4573 7.31815 13.0872 7.14832C13.1503 7.13145 13.2133 7.11394 13.2761 7.09579C13.4184 7.05462 13.5605 7.01026 13.6928 6.96456C13.8525 6.90935 13.9862 6.85603 14.0839 6.80703C14.1228 6.78756 14.155 6.76921 14.1798 6.7525C14.2011 6.73823 14.215 6.72641 14.2206 6.71956C14.3364 6.57762 14.3555 6.49868 14.3555 6.27291C14.3555 6.2652 14.3517 6.25573 14.3451 6.24862C14.3437 6.24709 13.0129 6.59509 13.0129 6.59509C12.5687 6.69618 12.1824 6.89435 11.8765 7.20038C11.5173 7.55974 11.2754 8.06056 11.1742 8.71694L10.891 10.7974C10.8132 11.4314 10.5295 11.8508 10.0636 11.8508C9.5487 11.8508 9.27091 11.5917 9.2695 11.0316L9.21879 10.144L8.12244 10.1363V10.6744C8.12244 11.2019 8.28197 11.7275 8.57441 12.1152C8.90171 12.5491 9.3745 12.792 9.97538 12.792C10.0369 12.792 10.0966 12.7884 10.1542 12.7812C10.9176 12.7347 11.4386 12.2144 11.9176 11.1663L12.6016 9.52677C12.8274 9.09471 13.2905 8.75118 13.7895 8.58485L14.3513 8.46421C14.5379 8.42497 14.7438 8.32056 14.8198 8.22659C14.9182 8.10503 14.9822 7.94953 14.9822 7.81659C14.9822 7.80018 14.9661 7.75385 14.9422 7.71521C14.9359 7.70478 14.9287 7.69485 14.9209 7.6855L13.7002 7.99909C12.9327 8.149 12.4637 8.47921 12.1048 9.10044L11.6064 10.0664Z" fill="#00D8FE"/>
  <path d="M11.6064 10.0664L11.9006 8.55938C11.9748 7.91979 12.4573 7.31815 13.0872 7.14832C13.1503 7.13145 13.2133 7.11394 13.2761 7.09579C13.4184 7.05462 13.5605 7.01026 13.6928 6.96456C13.8525 6.90935 13.9862 6.85603 14.0839 6.80703C14.1228 6.78756 14.155 6.76921 14.1798 6.7525C14.2011 6.73823 14.215 6.72641 14.2206 6.71956C14.3364 6.57762 14.3555 6.49868 14.3555 6.27291C14.3555 6.2652 14.3517 6.25573 14.3451 6.24862C14.3437 6.24709 13.0129 6.59509 13.0129 6.59509C12.5687 6.69618 12.1824 6.89435 11.8765 7.20038C11.5173 7.55974 11.2754 8.06056 11.1742 8.71694L10.891 10.7974C10.8132 11.4314 10.5295 11.8508 10.0636 11.8508C9.5487 11.8508 9.27091 11.5917 9.2695 11.0316L9.21879 10.144L8.12244 10.1363V10.6744C8.12244 11.2019 8.28197 11.7275 8.57441 12.1152C8.90171 12.5491 9.3745 12.792 9.97538 12.792C10.0369 12.792 10.0966 12.7884 10.1542 12.7812C10.9176 12.7347 11.4386 12.2144 11.9176 11.1663L12.6016 9.52677C12.8274 9.09471 13.2905 8.75118 13.7895 8.58485L14.3513 8.46421C14.5379 8.42497 14.7438 8.32056 14.8198 8.22659C14.9182 8.10503 14.9822 7.94953 14.9822 7.81659C14.9822 7.80018 14.9661 7.75385 14.9422 7.71521C14.9359 7.70478 14.9287 7.69485 14.9209 7.6855L13.7002 7.99909C12.9327 8.149 12.4637 8.47921 12.1048 9.10044L11.6064 10.0664Z" fill="#00D8FE"/>
  <path d="M14.9249 7.66091C14.8991 7.70521 14.8691 7.74691 14.8353 7.78541C14.7527 7.87938 14.5293 7.98379 14.3266 8.02303L13.7166 8.14368C13.1748 8.31 12.6721 8.65356 12.4268 9.08559L11.6842 10.7251C11.5832 10.9286 11.4805 11.1123 11.3744 11.2764C11.3946 11.1744 11.4114 11.0717 11.4246 10.9685L11.6064 10.037L12.1048 9.071C12.4637 8.44977 12.9327 8.11956 13.7002 7.96965L14.9209 7.65606L14.9249 7.66088V7.66091Z" fill="black" fill-opacity="0.25"/>
  <path d="M8.97538 10.1421V10.9685C8.97538 11.536 9.20424 12.1155 10.0094 12.1155C10.4993 12.1155 10.9984 11.8139 11.1611 10.6786L11.4776 8.49788C11.5597 7.85829 12.1964 6.9652 12.8945 6.79538C12.9212 6.78897 13.891 6.50306 13.9994 6.45409C14.0424 6.43462 14.1446 6.37347 14.1509 6.36659C14.1883 6.32517 14.2166 6.28912 14.238 6.2532C14.0793 6.29409 12.9531 6.59509 12.9531 6.59509C12.5185 6.69618 12.1406 6.89435 11.8413 7.20038C11.4898 7.55973 11.2531 8.06056 11.1542 8.71694L10.8771 10.7974C10.801 11.4314 10.5234 11.8508 10.0676 11.8508C9.5638 11.8508 9.292 11.5917 9.29065 11.0316L9.24103 10.144L8.97538 10.1421Z" fill="black" fill-opacity="0.25"/>
  <path d="M7.79891 10.8508V9.82141H9.50479V9.96847C9.50479 11.2922 9.86759 11.8655 10.6813 11.8655C11.3993 11.8655 11.8932 11.3526 12.2076 10.511C12.5662 9.55088 13.1101 9.11552 14.1706 9.11552H15.6224C15.8059 9.11552 15.9508 9.26682 15.9508 9.44955C15.951 9.67797 15.8601 9.89704 15.6982 10.0582C15.5364 10.2201 15.3168 10.3109 15.0879 10.3105L14.1671 10.3067C13.9757 10.3067 13.7907 10.4468 13.6007 10.733C13.4424 10.9716 13.309 11.2543 13.097 11.7679C12.907 12.2284 12.6464 12.6188 12.298 12.913C11.8717 13.2729 11.3351 13.4685 10.6813 13.4685C9.97732 13.4685 9.26124 13.2119 8.72047 12.7627C8.13665 12.2777 7.79891 11.6085 7.79891 10.8508Z" fill="#053949"/>
  <path d="M8.09303 10.1155V10.8508C8.09303 11.5178 8.38965 12.1055 8.90841 12.5364C9.39617 12.9416 10.0457 13.1744 10.6813 13.1744C11.2658 13.1744 11.7351 13.0033 12.1083 12.6883C12.417 12.4276 12.6518 12.0758 12.8251 11.6557C13.0443 11.1246 13.1833 10.8301 13.3557 10.5704C13.5946 10.2104 13.8559 10.0126 14.1677 10.0126L15.0885 10.0164C15.2414 10.0164 15.3843 9.95609 15.4904 9.85009C15.597 9.74407 15.6568 9.59989 15.6566 9.44956C15.6566 9.42648 15.6405 9.40965 15.6224 9.40965H14.1706C13.2416 9.40965 12.8013 9.76212 12.4831 10.6139C12.331 11.021 12.1313 11.3718 11.8739 11.6391C11.5511 11.9743 11.1536 12.1596 10.6813 12.1596C9.70406 12.1596 9.24256 11.4828 9.21226 10.1155H8.09303Z" fill="#00D8FE"/>
  <path d="M15.6476 9.42242C15.6207 9.45653 15.5829 9.48712 15.5354 9.53015C15.4341 9.62206 15.2978 9.67436 15.1519 9.67436H13.946C13.2738 9.67436 12.9243 10.1995 12.4852 11.1662C12.3198 11.5305 11.8685 12.4096 10.593 12.4096C9.31759 12.4096 8.94597 11.1645 8.94597 10.5861V10.1155H9.21226C9.24256 11.4828 9.70406 12.1596 10.6813 12.1596C11.1536 12.1596 11.5511 11.9743 11.8739 11.6391C12.1313 11.3718 12.331 11.021 12.4831 10.6139C12.8013 9.76215 13.2416 9.40965 14.1706 9.40965H15.6224C15.6321 9.40965 15.6412 9.41445 15.6476 9.42242Z" fill="black" fill-opacity="0.25"/>
  <path d="M9.10394 10.4384C9.10394 10.4384 8.30747 10.6522 7.90921 10.6522C7.51097 10.6522 6.72912 10.4384 6.72912 10.4384C6.6613 10.4384 6.60632 10.3834 6.60632 10.3156V7.53651C6.60632 7.50394 6.61926 7.47271 6.64229 7.44968C6.66532 7.42665 6.69655 7.41371 6.72912 7.41371H9.10394C9.17176 7.41371 9.22674 7.46869 9.22674 7.53651V10.3156C9.22675 10.3482 9.21382 10.3794 9.19079 10.4025C9.16776 10.4255 9.13651 10.4384 9.10394 10.4384Z" fill="#00D8FE"/>
  <path d="M8.73002 10.8904C8.63478 10.9108 8.54393 10.9288 8.45812 10.9442C8.23319 10.9844 8.05181 11.0051 7.90921 11.0051C7.76793 11.0051 7.58987 10.9848 7.37034 10.9453C7.28365 10.9297 7.19159 10.9113 7.09458 10.8901C6.95357 10.8593 6.81322 10.8256 6.67325 10.7888C6.67136 10.7883 6.66963 10.7879 6.66804 10.7874C6.43255 10.7572 6.25338 10.5561 6.25338 10.3156V7.5365C6.25338 7.27374 6.46636 7.06076 6.72912 7.06076H9.10394C9.3667 7.06076 9.57968 7.27374 9.57968 7.5365V10.3155C9.57977 10.5565 9.39988 10.758 9.16367 10.7876C9.01987 10.8248 8.87532 10.8591 8.73002 10.8904ZM9.1155 10.4379C9.1782 10.4321 9.22676 10.3792 9.22674 10.3155V7.5365C9.22674 7.46866 9.17177 7.4137 9.10394 7.4137H6.72912C6.66129 7.4137 6.60632 7.46866 6.60632 7.5365V10.3156C6.60632 10.3791 6.65479 10.432 6.71733 10.4378L6.73274 10.4393L6.74766 10.4434C6.75069 10.4442 6.7541 10.4451 6.76331 10.4476C6.89814 10.483 7.0337 10.5156 7.16978 10.5453C7.26265 10.5655 7.35055 10.5831 7.43285 10.5979C7.63354 10.6341 7.79244 10.6522 7.90921 10.6522C8.02734 10.6522 8.18976 10.6337 8.39593 10.5968C8.47758 10.5821 8.56449 10.5649 8.65584 10.5453C8.80034 10.5142 8.94417 10.48 9.08723 10.4428L9.10116 10.4392L9.1155 10.4379Z" fill="#043849"/>
  <mask id="maskStyleguidist0" maskUnits="userSpaceOnUse" x="6" y="7" width="4" height="4">
  <path d="M9.10393 10.4384C9.10393 10.4384 8.30747 10.6522 7.9092 10.6522C7.51097 10.6522 6.72912 10.4384 6.72912 10.4384C6.6613 10.4384 6.60632 10.3834 6.60632 10.3156V7.53651C6.60632 7.50394 6.61926 7.47271 6.64229 7.44968C6.66532 7.42665 6.69655 7.41371 6.72912 7.41371H9.10393C9.17175 7.41371 9.22673 7.46869 9.22673 7.53651V10.3156C9.22674 10.3482 9.21381 10.3794 9.19078 10.4025C9.16775 10.4255 9.13651 10.4384 9.10393 10.4384Z" fill="white"/>
  </mask>
  <g mask="url(#maskStyleguidist0)">
  <path d="M6.59303 8.292H7.24009L6.88715 10.7626H6.59303V8.292Z" fill="black" fill-opacity="0.25"/>
  </g>
  <path d="M6.577 9.50739C6.98379 9.50739 7.31356 9.17824 7.31356 8.77221C7.31356 8.36618 6.98379 8.03703 6.577 8.03703C6.17021 8.03703 5.84044 8.36618 5.84044 8.77221C5.84044 9.17824 6.17021 9.50739 6.577 9.50739Z" fill="white"/>
  <path d="M6.577 9.68385C6.07282 9.68385 5.66397 9.27577 5.66397 8.7722C5.66397 8.26864 6.07282 7.86056 6.577 7.86056C7.08118 7.86056 7.49003 8.26864 7.49003 8.7722C7.49003 9.27577 7.08118 9.68385 6.577 9.68385ZM6.577 9.33091C6.8864 9.33091 7.13709 9.08069 7.13709 8.7722C7.13709 8.46371 6.8864 8.2135 6.577 8.2135C6.2676 8.2135 6.01691 8.46371 6.01691 8.7722C6.01691 9.08069 6.2676 9.33091 6.577 9.33091Z" fill="#063A49"/>
  <path d="M6.577 9.00331C6.7043 9.00331 6.8075 8.90012 6.8075 8.77282C6.8075 8.64552 6.7043 8.54232 6.577 8.54232C6.4497 8.54232 6.3465 8.64552 6.3465 8.77282C6.3465 8.90012 6.4497 9.00331 6.577 9.00331Z" fill="#053949"/>
  <path d="M9.22406 9.50739C9.63085 9.50739 9.96062 9.17824 9.96062 8.77221C9.96062 8.36618 9.63085 8.03703 9.22406 8.03703C8.81727 8.03703 8.4875 8.36618 8.4875 8.77221C8.4875 9.17824 8.81727 9.50739 9.22406 9.50739Z" fill="white"/>
  <path d="M9.22406 9.68385C8.71988 9.68385 8.31103 9.27577 8.31103 8.7722C8.31103 8.26864 8.71988 7.86056 9.22406 7.86056C9.72824 7.86056 10.1371 8.26864 10.1371 8.7722C10.1371 9.27577 9.72824 9.68385 9.22406 9.68385ZM9.22406 9.33091C9.53346 9.33091 9.78415 9.08069 9.78415 8.7722C9.78415 8.46371 9.53346 8.2135 9.22406 8.2135C8.91465 8.2135 8.66397 8.46371 8.66397 8.7722C8.66397 9.08069 8.91465 9.33091 9.22406 9.33091Z" fill="#063A49"/>
  <path d="M9.22406 9.00331C9.35136 9.00331 9.45456 8.90012 9.45456 8.77282C9.45456 8.64552 9.35136 8.54232 9.22406 8.54232C9.09676 8.54232 8.99356 8.64552 8.99356 8.77282C8.99356 8.90012 9.09676 9.00331 9.22406 9.00331Z" fill="#053949"/>
  <path d="M8.62818 8.56909C8.54811 8.58205 8.46787 8.59394 8.38734 8.6048C8.18972 8.63127 8.03064 8.64489 7.90703 8.64489C7.78486 8.64489 7.62804 8.63123 7.43364 8.60468C7.35928 8.59455 7.28025 8.5826 7.19684 8.56894C7.07286 8.5486 6.94921 8.52631 6.82539 8.50197C5.96177 8.48638 5.33053 7.92085 5.33053 7.11333V5.18388C5.33053 3.75683 6.48736 2.6 7.91441 2.6C9.34473 2.6 10.5025 3.7559 10.5025 5.18388V7.11332C10.5025 7.92109 9.8709 8.48669 9.00683 8.50201C8.88093 8.52634 8.75467 8.54871 8.62818 8.56909ZM8.98698 8.14931C9.67526 8.1427 10.1496 7.72178 10.1496 7.11333V5.18388C10.1496 3.95095 9.14994 2.95294 7.91441 2.95294C6.68228 2.95294 5.68347 3.95176 5.68347 5.18388V7.11333C5.68347 7.72171 6.15768 8.14262 6.84577 8.14928L6.86238 8.14944L6.87867 8.1527L6.89253 8.15547C7.01266 8.1791 7.13316 8.20084 7.25393 8.22065C7.3343 8.23381 7.41021 8.24529 7.48134 8.25498C7.66133 8.27955 7.80357 8.29195 7.90703 8.29195C8.01226 8.29195 8.15706 8.27955 8.34033 8.255C8.41764 8.24458 8.49481 8.23314 8.57192 8.22067C8.69996 8.20003 8.82766 8.17732 8.95497 8.15255L8.97083 8.14946L8.98698 8.14931Z" fill="#043849"/>
  <mask id="maskStyleguidist1" maskUnits="userSpaceOnUse" x="5" y="2" width="6" height="7">
  <path d="M8.97097 8.14935C8.97097 8.14935 8.26168 8.29194 7.90703 8.29194C7.55871 8.29194 6.86209 8.14935 6.86209 8.14935C6.21115 8.14935 5.68347 7.76427 5.68347 7.11332V5.18388C5.68347 3.95177 6.6823 2.95294 7.91441 2.95294C9.15074 2.95294 10.1496 3.95177 10.1496 5.18388V7.11332C10.1496 7.76427 9.62188 8.14935 8.97097 8.14935Z" fill="white"/>
  </mask>
  <g mask="url(#maskStyleguidist1)">
  <path d="M8.97097 8.14935C8.97097 8.14935 8.26168 8.29194 7.90703 8.29194C7.55871 8.29194 6.86209 8.14935 6.86209 8.14935C6.21115 8.14935 5.68347 7.76427 5.68347 7.11332V5.18388C5.68347 3.95177 6.6823 2.95294 7.91441 2.95294C9.15074 2.95294 10.1496 3.95177 10.1496 5.18388V7.11332C10.1496 7.76427 9.62188 8.14935 8.97097 8.14935Z" fill="#00D8FE"/>
  </g>
  <mask id="maskStyleguidist2" maskUnits="userSpaceOnUse" x="5" y="2" width="6" height="7">
  <path d="M8.97097 8.14935C8.97097 8.14935 8.26168 8.29194 7.90703 8.29194C7.55871 8.29194 6.86209 8.14935 6.86209 8.14935C6.21115 8.14935 5.68347 7.76427 5.68347 7.11332V5.18388C5.68347 3.95177 6.6823 2.95294 7.91441 2.95294C9.15074 2.95294 10.1496 3.95177 10.1496 5.18388V7.11332C10.1496 7.76427 9.62188 8.14935 8.97097 8.14935Z" fill="white"/>
  </mask>
  <g mask="url(#maskStyleguidist2)">
  <path d="M6.29812 7.0545V4.53682C6.29812 3.4083 7.13621 2.47606 8.22386 2.32718C8.12272 2.31314 8.02073 2.30602 7.91862 2.30585H7.91442C6.6823 2.30585 5.68344 3.30468 5.68344 4.53679V7.05447C5.68344 7.70541 6.21112 8.23309 6.86206 8.23309H7.47671C6.8258 8.23312 6.29812 7.70544 6.29812 7.0545Z" fill="black" fill-opacity="0.25"/>
  </g>
  <mask id="maskStyleguidist3"  maskUnits="userSpaceOnUse" x="5" y="2" width="6" height="7">
  <path d="M8.97097 8.14935C8.97097 8.14935 8.26168 8.29194 7.90703 8.29194C7.55871 8.29194 6.86209 8.14935 6.86209 8.14935C6.21115 8.14935 5.68347 7.76427 5.68347 7.11332V5.18388C5.68347 3.95177 6.6823 2.95294 7.91441 2.95294C9.15074 2.95294 10.1496 3.95177 10.1496 5.18388V7.11332C10.1496 7.76427 9.62188 8.14935 8.97097 8.14935Z" fill="white"/>
  </mask>
  <g mask="url(#maskStyleguidist3)">
  <path d="M7.67648 7.253C7.80378 7.253 7.90698 7.1498 7.90698 7.0225C7.90698 6.8952 7.80378 6.792 7.67648 6.792C7.54918 6.792 7.44598 6.8952 7.44598 7.0225C7.44598 7.1498 7.54918 7.253 7.67648 7.253Z" fill="black" fill-opacity="0.25"/>
  </g>
  <mask id="maskStyleguidist4" maskUnits="userSpaceOnUse" x="5" y="2" width="6" height="7">
  <path d="M8.97097 8.14935C8.97097 8.14935 8.26168 8.29194 7.90703 8.29194C7.55871 8.29194 6.86209 8.14935 6.86209 8.14935C6.21115 8.14935 5.68347 7.76427 5.68347 7.11332V5.18388C5.68347 3.95177 6.6823 2.95294 7.91441 2.95294C9.15074 2.95294 10.1496 3.95177 10.1496 5.18388V7.11332C10.1496 7.76427 9.62188 8.14935 8.97097 8.14935Z" fill="white"/>
  </mask>
  <g mask="url(#maskStyleguidist4)">
  <path d="M7.05882 6.04712C7.18612 6.04712 7.28932 5.94392 7.28932 5.81662C7.28932 5.68932 7.18612 5.58612 7.05882 5.58612C6.93152 5.58612 6.82832 5.68932 6.82832 5.81662C6.82832 5.94392 6.93152 6.04712 7.05882 6.04712Z" fill="black" fill-opacity="0.25"/>
  </g>
  <mask id="maskStyleguidist5" maskUnits="userSpaceOnUse" x="5" y="2" width="6" height="7">
  <path d="M8.97097 8.14935C8.97097 8.14935 8.26168 8.29194 7.90703 8.29194C7.55871 8.29194 6.86209 8.14935 6.86209 8.14935C6.21115 8.14935 5.68347 7.76427 5.68347 7.11332V5.18388C5.68347 3.95177 6.6823 2.95294 7.91441 2.95294C9.15074 2.95294 10.1496 3.95177 10.1496 5.18388V7.11332C10.1496 7.76427 9.62188 8.14935 8.97097 8.14935Z" fill="white"/>
  </mask>
  <g mask="url(#maskStyleguidist5)">
  <path d="M7.91653 4.92192C8.04383 4.92192 8.14702 4.81872 8.14702 4.69142C8.14702 4.56411 8.04383 4.46091 7.91653 4.46091C7.78923 4.46091 7.68603 4.56411 7.68603 4.69142C7.68603 4.81872 7.78923 4.92192 7.91653 4.92192Z" fill="black" fill-opacity="0.25"/>
  </g>
  <mask id="maskStyleguidist6" maskUnits="userSpaceOnUse" x="5" y="2" width="6" height="7">
  <path d="M8.97097 8.14935C8.97097 8.14935 8.26168 8.29194 7.90703 8.29194C7.55871 8.29194 6.86209 8.14935 6.86209 8.14935C6.21115 8.14935 5.68347 7.76427 5.68347 7.11332V5.18388C5.68347 3.95177 6.6823 2.95294 7.91441 2.95294C9.15074 2.95294 10.1496 3.95177 10.1496 5.18388V7.11332C10.1496 7.76427 9.62188 8.14935 8.97097 8.14935Z" fill="white"/>
  </mask>
  <g mask="url(#maskStyleguidist6)">
  <path d="M8.7647 6.10594C8.89201 6.10594 8.99521 6.00274 8.99521 5.87544C8.99521 5.74814 8.89201 5.64494 8.7647 5.64494C8.6374 5.64494 8.5342 5.74814 8.5342 5.87544C8.5342 6.00274 8.6374 6.10594 8.7647 6.10594Z" fill="black" fill-opacity="0.25"/>
  </g>
</svg>
