<svg viewBox="0 0 16 16" fill="none" xmlns="http://www.w3.org/2000/svg">
  <path fill-rule="evenodd" clip-rule="evenodd" d="M13.526 14.719L10.9982 11.1368H4.98928L2.47417 14.7185L13.526 14.719Z" fill="black" fill-opacity="0.57"/>
  <path fill-rule="evenodd" clip-rule="evenodd" d="M12.4474 11.674L11.5138 13.6244L10.8713 11.1957L12.4474 11.674ZM3.85068 11.674L4.4863 13.6244L5.12879 11.1957L3.85068 11.674Z" fill="#7F8082"/>
  <path fill-rule="evenodd" clip-rule="evenodd" d="M0.883812 5.22656L0.883327 5.22729L2.20872 13.6244H4.48666L4.30058 11.674H5.46935L5.61822 13.6244H10.3904L10.5393 11.674H11.7006L11.5146 13.6244H13.8073L15.1162 5.22656H0.883812Z" fill="url(#cordova_g1)" stroke="#D6D6D6" stroke-width="0.161633" stroke-linejoin="round"/>
  <path fill-rule="evenodd" clip-rule="evenodd" d="M4.13963 10.3886L4.8248 7.82151L4.77663 2.63712L3.49165 5.22701L4.13963 10.3886Z" fill="url(#cordova_g2)"/>
  <path fill-rule="evenodd" clip-rule="evenodd" d="M9.06016 2.12878H11.8997L11.8413 8.40477H8.84082L9.06016 2.12878ZM7.00628 2.13274L4.24053 2.13444L4.30608 8.38246H7.12189L7.00628 2.13274Z" fill="#293441"/>
  <path fill-rule="evenodd" clip-rule="evenodd" d="M4.52683 7.82101L4.13972 10.3882H11.883L11.4223 7.83936L4.52683 7.82101Z" fill="#2D3948"/>
  <path fill-rule="evenodd" clip-rule="evenodd" d="M11.8829 10.3886L11.2105 7.83973L11.2358 2.62018L12.5367 5.22636L11.8829 10.3886Z" fill="url(#cordova_g3)"/>
  <path fill-rule="evenodd" clip-rule="evenodd" d="M4.14557 10.3886L4.82443 7.82143L4.77627 2.63704L3.4914 5.22722L4.14557 10.3886Z" fill="url(#cordova_g4)"/>
  <path fill-rule="evenodd" clip-rule="evenodd" d="M6.71599 3.57927L6.97166 9.02955H8.96318L9.28402 3.57927H6.71599Z" fill="#2D3B48"/>
  <path fill-rule="evenodd" clip-rule="evenodd" d="M15.1162 5.22656L11.8613 0.0201874H4.12315L0.883811 5.22656H3.49177L4.76968 2.64673H6.87092L6.71595 3.57923H9.2839L9.14813 2.61849H11.2411L12.5366 5.22656H15.1162Z" fill="url(#cordova_g5)" stroke="#D6D6D6" stroke-width="0.161633" stroke-linejoin="round"/>
  <path opacity="0.45" fill-rule="evenodd" clip-rule="evenodd" d="M9.14825 2.61844L11.259 2.62018L12.5367 5.22651L11.8829 10.3885H6.97165L9.51019 5.22651L9.14825 2.61844Z" fill="#363F49"/>
  <path opacity="0.3" fill-rule="evenodd" clip-rule="evenodd" d="M9.51019 5.22656L6.97166 10.3886H4.13972L3.49177 5.2266L9.51019 5.22656Z" fill="url(#cordova_g6)"/>
  <path opacity="0.2" fill-rule="evenodd" clip-rule="evenodd" d="M4.76968 2.64673H6.87092L6.71595 3.57923H9.2839L9.51011 5.22656H3.49169L4.76968 2.64673Z" fill="url(#cordova_g7)"/>
  <path opacity="0.8" d="M10.1119 8.69479C10.3115 8.69479 10.4734 8.12099 10.4734 7.41318C10.4734 6.70536 10.3115 6.13156 10.1119 6.13156C9.91222 6.13156 9.75037 6.70536 9.75037 7.41318C9.75037 8.12099 9.91222 8.69479 10.1119 8.69479Z" fill="#05F0FF"/>
  <path opacity="0.9" d="M10.1119 8.56685C10.267 8.56685 10.3928 8.05882 10.3928 7.43214C10.3928 6.80547 10.267 6.29744 10.1119 6.29744C9.95669 6.29744 9.8309 6.80547 9.8309 7.43214C9.8309 8.05882 9.95669 8.56685 10.1119 8.56685Z" fill="white" stroke="#06EFFE" stroke-width="0.161678"/>
  <path opacity="0.9" d="M10.1119 8.48463C10.267 8.48463 10.3928 8.01483 10.3928 7.43531C10.3928 6.85578 10.267 6.38599 10.1119 6.38599C9.95669 6.38599 9.8309 6.85578 9.8309 7.43531C9.8309 8.01483 9.95669 8.48463 10.1119 8.48463Z" fill="#FEFFFF" stroke="#06EFFE" stroke-width="0.161573"/>
  <path opacity="0.8" d="M6.02284 8.87566C6.22249 8.87566 6.38433 8.30186 6.38433 7.59404C6.38433 6.88622 6.22249 6.31242 6.02284 6.31242C5.82319 6.31242 5.66134 6.88622 5.66134 7.59404C5.66134 8.30186 5.82319 8.87566 6.02284 8.87566Z" fill="#05F0FF"/>
  <path opacity="0.9" d="M6.02284 8.74771C6.17802 8.74771 6.30381 8.23969 6.30381 7.61301C6.30381 6.98633 6.17802 6.4783 6.02284 6.4783C5.86766 6.4783 5.74187 6.98633 5.74187 7.61301C5.74187 8.23969 5.86766 8.74771 6.02284 8.74771Z" fill="white" stroke="#06EFFE" stroke-width="0.161678"/>
  <path opacity="0.9" d="M6.02284 8.66549C6.17802 8.66549 6.30381 8.19569 6.30381 7.61617C6.30381 7.03665 6.17802 6.56685 6.02284 6.56685C5.86766 6.56685 5.74187 7.03665 5.74187 7.61617C5.74187 8.19569 5.86766 8.66549 6.02284 8.66549Z" fill="#FEFFFF" stroke="#06EFFE" stroke-width="0.161573"/>
  <path d="M4.76968 2.64673H6.87092L6.71595 3.57923H9.2839L9.14813 2.61848L11.2589 2.62022L12.5366 5.22656L11.8828 10.3886H4.13964L3.49169 5.2266L4.76968 2.64673Z" stroke="#D6D6D6" stroke-width="0.161633" stroke-linejoin="round"/>
  <path fill-rule="evenodd" clip-rule="evenodd" d="M12.5154 5.22656H3.48534Z" fill="white"/>
  <path d="M12.5154 5.22656H3.48534" stroke="white" stroke-width="0.161633"/>
  <linearGradient id="cordova_g1" x1="5292.99" y1="3295.4" x2="2384.42" y2="119.463" gradientUnits="userSpaceOnUse">
    <stop stop-color="#ACACAC"/>
    <stop offset="1" stop-color="#E9E9E9"/>
  </linearGradient>
  <radialGradient id="cordova_g2" cx="0" cy="0" r="1" gradientUnits="userSpaceOnUse" gradientTransform="translate(15624 -4119.05) rotate(-85.4139) scale(250.1 745.108)">
    <stop stop-color="#25303B"/>
    <stop offset="1" stop-color="#25303B" stop-opacity="0"/>
  </radialGradient>
  <linearGradient id="cordova_g3" x1="445.123" y1="2420.45" x2="-129.419" y2="1255.34" gradientUnits="userSpaceOnUse">
    <stop stop-color="#24303A"/>
    <stop offset="1" stop-color="#394958"/>
  </linearGradient>
  <linearGradient id="cordova_g4" x1="184.39" y1="2415.22" x2="755.132" y2="1249.33" gradientUnits="userSpaceOnUse">
    <stop stop-color="#24303A"/>
    <stop offset="1" stop-color="#394958"/>
  </linearGradient>
  <linearGradient id="cordova_g5" x1="5023.88" y1="558.091" x2="1537.27" y2="1514.23" gradientUnits="userSpaceOnUse">
    <stop stop-color="#E5E5E5"/>
    <stop offset="1" stop-color="white"/>
  </linearGradient>
  <linearGradient id="cordova_g6" x1="1100.22" y1="987.009" x2="1100.22" y2="1646.44" gradientUnits="userSpaceOnUse">
    <stop stop-color="white"/>
    <stop offset="0.5" stop-color="white" stop-opacity="0.532"/>
    <stop offset="1" stop-color="white" stop-opacity="0"/>
  </linearGradient>
  <linearGradient id="cordova_g7" x1="1171.03" y1="493.315" x2="1171.03" y2="328.608" gradientUnits="userSpaceOnUse">
    <stop stop-color="white"/>
    <stop offset="1" stop-color="white" stop-opacity="0"/>
  </linearGradient>
</svg>
