<svg viewBox="0 0 16 16" fill="none" xmlns="http://www.w3.org/2000/svg">
  <path fill-rule="evenodd" clip-rule="evenodd" d="M9.38691 1.83354L12.6768 3.73311C12.7718 3.63261 12.8808 3.54636 13.0005 3.47702C13.6828 3.08476 14.553 3.31766 14.9494 4C15.3416 4.68234 15.1087 5.55259 14.4264 5.94891C14.3076 6.01729 14.1797 6.06825 14.0464 6.10021V9.90074C14.1782 9.93275 14.3048 9.98336 14.4223 10.051C15.1087 10.4474 15.3416 11.3177 14.9453 12C14.553 12.6823 13.6787 12.9152 12.9964 12.523C12.8642 12.4471 12.7451 12.3505 12.6437 12.2367L9.37378 14.1246C9.42167 14.2696 9.44599 14.4213 9.44581 14.574C9.44581 15.3585 8.80847 16 8.01989 16C7.23131 16 6.59397 15.3625 6.59397 14.574C6.59397 14.4338 6.6141 14.2985 6.65165 14.1706L3.3626 12.2716C3.26866 12.3701 3.16119 12.4547 3.04343 12.523C2.35703 12.9152 1.48673 12.6823 1.09447 12C0.702265 11.3177 0.935163 10.4474 1.61745 10.051C1.73499 9.98334 1.86156 9.93272 1.99335 9.90068V6.10021C1.8601 6.06825 1.73214 6.01729 1.61339 5.94891C0.931046 5.5567 0.698149 4.68234 1.09041 4C1.48267 3.31766 2.35697 3.08476 3.03931 3.47702C3.15829 3.54599 3.26676 3.63169 3.36137 3.7315L6.65226 1.83143C6.61347 1.69976 6.59383 1.56319 6.59397 1.42593C6.59397 0.637455 7.23131 0 8.01989 0C8.80847 0 9.44581 0.637399 9.44581 1.42593C9.44581 1.56766 9.42523 1.70444 9.38691 1.83354ZM9.04415 2.41882L12.3419 4.32284C12.2894 4.50641 12.2744 4.69866 12.2976 4.88816C12.3209 5.07766 12.3821 5.26054 12.4775 5.42593C12.6782 5.77514 13.0053 6.00665 13.3682 6.09687V9.90213C13.3497 9.90663 13.3313 9.91158 13.313 9.91681L9.00583 2.45693C9.01884 2.44447 9.03164 2.43178 9.04415 2.41888V2.41882ZM7.03484 2.45776L2.72776 9.91754C2.70914 9.91215 2.69041 9.90714 2.67158 9.90252V6.09687C3.03453 6.00665 3.36154 5.77514 3.56229 5.42593C3.65787 5.26022 3.71909 5.07696 3.74228 4.88707C3.76548 4.69718 3.75017 4.50457 3.69729 4.32073L6.99413 2.41727C7.00742 2.431 7.02099 2.44452 7.03484 2.4577V2.45776ZM8.41832 2.79568L12.7244 10.2538C12.6258 10.3479 12.5412 10.4558 12.4734 10.574C12.4057 10.6916 12.3551 10.8181 12.3231 10.9499H3.71681C3.68476 10.8181 3.63411 10.6916 3.5664 10.574C3.49832 10.4566 3.41393 10.3494 3.31576 10.2556L7.62268 2.79601C7.7518 2.83319 7.88552 2.85199 8.01989 2.85186C8.15823 2.85186 8.29189 2.83228 8.41832 2.79568ZM9.07441 13.6134L12.3508 11.7217C12.341 11.6908 12.3322 11.6596 12.3245 11.6282H3.71498C3.71041 11.6467 3.70546 11.665 3.70018 11.6833L6.99257 13.5843C7.12552 13.446 7.28508 13.3361 7.46163 13.2612C7.63818 13.1862 7.82808 13.1477 8.01989 13.1481C8.2184 13.1477 8.41479 13.189 8.59641 13.2691C8.77803 13.3492 8.94085 13.4665 9.07441 13.6134V13.6134Z" fill="#E535AB"/>
</svg>
