<svg viewBox="0 0 16 16" xmlns="http://www.w3.org/2000/svg">
  <path d="M16 8.12597C16 7.06604 14.6726 6.06156 12.6376 5.43865C13.1072 3.36445 12.8985 1.71423 11.9788 1.18589C11.7668 1.06196 11.519 1.00326 11.2483 1.00326V1.73053C11.3983 1.73053 11.519 1.75989 11.6201 1.81533C12.0636 2.06971 12.256 3.03832 12.106 4.28414C12.0701 4.5907 12.0114 4.91358 11.9397 5.24297C11.3004 5.08642 10.6025 4.96576 9.86873 4.88748C9.42845 4.28414 8.97187 3.73624 8.51203 3.25683C9.57521 2.26865 10.5732 1.72727 11.2515 1.72727V1C10.3547 1 9.1806 1.63922 7.99348 2.74806C6.80636 1.64574 5.63229 1.01305 4.73543 1.01305V1.74032C5.41052 1.74032 6.41174 2.27843 7.47493 3.26009C7.01835 3.7395 6.56176 4.28414 6.12801 4.88748C5.39095 4.96576 4.69303 5.08642 4.05381 5.24623C3.9788 4.9201 3.92336 4.60375 3.88422 4.30045C3.73094 3.05463 3.9201 2.08602 4.36038 1.82837C4.45821 1.76967 4.58541 1.74358 4.73543 1.74358V1.01631C4.46148 1.01631 4.21362 1.07501 3.99837 1.19894C3.08194 1.72727 2.87648 3.37424 3.34937 5.44191C1.32083 6.06808 0 7.0693 0 8.12597C0 9.18589 1.32735 10.1904 3.36241 10.8133C2.89278 12.8875 3.10151 14.5377 4.0212 15.066C4.23318 15.19 4.48104 15.2487 4.75499 15.2487C5.65186 15.2487 6.82593 14.6095 8.01305 13.5006C9.20016 14.6029 10.3742 15.2356 11.2711 15.2356C11.545 15.2356 11.7929 15.1769 12.0082 15.053C12.9246 14.5247 13.13 12.8777 12.6572 10.81C14.6792 10.1871 16 9.18263 16 8.12597V8.12597ZM11.7538 5.95067C11.6331 6.37138 11.4831 6.80514 11.3135 7.23889C11.1798 6.97799 11.0395 6.71708 10.8863 6.45618C10.7362 6.19527 10.5764 5.94089 10.4166 5.69303C10.8797 5.76152 11.3265 5.84631 11.7538 5.95067ZM10.2601 9.42397C10.0057 9.86425 9.7448 10.2817 9.47411 10.6698C8.98818 10.7122 8.49572 10.735 8 10.735C7.50754 10.735 7.01508 10.7122 6.53241 10.6731C6.26172 10.285 5.99755 9.87077 5.74317 9.43375C5.49531 9.00652 5.27028 8.57277 5.06482 8.13575C5.26702 7.69874 5.49531 7.26172 5.73991 6.83449C5.99429 6.39421 6.2552 5.97676 6.52589 5.58867C7.01182 5.54627 7.50428 5.52344 8 5.52344C8.49246 5.52344 8.98492 5.54627 9.46759 5.58541C9.73828 5.9735 10.0024 6.38769 10.2568 6.8247C10.5047 7.25194 10.7297 7.68569 10.9352 8.12271C10.7297 8.55972 10.5047 8.99674 10.2601 9.42397ZM11.3135 9C11.4896 9.43701 11.6396 9.87403 11.7636 10.298C11.3363 10.4024 10.8863 10.4904 10.4199 10.5589C10.5797 10.3078 10.7395 10.0501 10.8895 9.78598C11.0395 9.52507 11.1798 9.2609 11.3135 9ZM8.00652 12.4798C7.70322 12.1667 7.39992 11.8178 7.09988 11.4362C7.3934 11.4492 7.69344 11.459 7.99674 11.459C8.3033 11.459 8.6066 11.4525 8.90338 11.4362C8.60987 11.8178 8.30656 12.1667 8.00652 12.4798ZM5.58011 10.5589C5.117 10.4904 4.6702 10.4056 4.24297 10.3013C4.36364 9.88055 4.51366 9.4468 4.68324 9.01305C4.81696 9.27395 4.9572 9.53486 5.11048 9.79576C5.26376 10.0567 5.4203 10.311 5.58011 10.5589ZM7.99022 3.77212C8.29352 4.0852 8.59682 4.43416 8.89686 4.81574C8.60334 4.80269 8.3033 4.79291 8 4.79291C7.69344 4.79291 7.39014 4.79943 7.09336 4.81574C7.38687 4.43416 7.69018 4.0852 7.99022 3.77212ZM5.57685 5.69303C5.41704 5.94415 5.25724 6.20179 5.10722 6.46596C4.9572 6.72686 4.81696 6.98777 4.68324 7.24867C4.50713 6.81166 4.35711 6.37464 4.23318 5.95067C4.66042 5.84957 5.11048 5.76152 5.57685 5.69303V5.69303ZM2.62536 9.77619C1.47085 9.28373 0.724011 8.63799 0.724011 8.12597C0.724011 7.61394 1.47085 6.96494 2.62536 6.47574C2.90583 6.35507 3.21239 6.24745 3.52874 6.14635C3.71464 6.78557 3.95923 7.45088 4.26254 8.13249C3.9625 8.81084 3.72116 9.47289 3.53852 10.1088C3.21565 10.0077 2.90909 9.89686 2.62536 9.77619ZM4.37994 14.4366C3.9364 14.1822 3.74399 13.2136 3.89401 11.9678C3.92988 11.6612 3.98859 11.3384 4.06033 11.009C4.69955 11.1655 5.39747 11.2862 6.13127 11.3645C6.57155 11.9678 7.02813 12.5157 7.48797 12.9951C6.42479 13.9833 5.42682 14.5247 4.74847 14.5247C4.60171 14.5214 4.47778 14.492 4.37994 14.4366V14.4366ZM12.1158 11.9515C12.2691 13.1973 12.0799 14.1659 11.6396 14.4236C11.5418 14.4823 11.4146 14.5084 11.2646 14.5084C10.5895 14.5084 9.58826 13.9702 8.52507 12.9886C8.98166 12.5092 9.43824 11.9645 9.87199 11.3612C10.6091 11.2829 11.307 11.1623 11.9462 11.0024C12.0212 11.3318 12.0799 11.6482 12.1158 11.9515V11.9515ZM13.3714 9.77619C13.0909 9.89686 12.7843 10.0045 12.468 10.1056C12.2821 9.46637 12.0375 8.80106 11.7342 8.11944C12.0342 7.44109 12.2756 6.77905 12.4582 6.14309C12.7811 6.24419 13.0876 6.35507 13.3746 6.47574C14.5291 6.9682 15.276 7.61394 15.276 8.12597C15.2727 8.63799 14.5259 9.287 13.3714 9.77619V9.77619Z" fill="#61DAFB"/>
  <path d="M7.99677 9.61634C8.8199 9.61634 9.48719 8.94905 9.48719 8.12592C9.48719 7.30278 8.8199 6.6355 7.99677 6.6355C7.17363 6.6355 6.50635 7.30278 6.50635 8.12592C6.50635 8.94905 7.17363 9.61634 7.99677 9.61634Z" fill="#61DAFB"/>
</svg>
