<svg viewBox="0 0 16 16" xmlns="http://www.w3.org/2000/svg">
  <path d="M2.15 14.45L0 1.67499L4 0.0249939L6.525 1.52499L8.875 0.274994L13.725 2.14999L11 16L2.15 14.45V14.45Z" fill="#00CDD7"/>
  <path d="M16 5.425L13.925 0.325L10.2 0L4.4 5.55L5.95 12.725L8.875 14.75L16 10.525L14.25 7.25L16 5.425Z" fill="url(#paint1_linear)"/>
  <path d="M12.8 4.65L14.25 7.25L16 5.425L14.725 2.25L12.8 4.65Z" fill="#00CDD7"/>
  <path d="M3 3H13V13H3V3Z" fill="black"/>
  <path d="M3.95 11.1251H7.7V11.7501H3.95V11.1251ZM8.85 7.85003L9.375 7.20002C9.75 7.50002 10.125 7.70003 10.6 7.70003C10.975 7.70003 11.2 7.55002 11.2 7.30002C11.2 7.07502 11.05 6.95002 10.375 6.77502C9.55 6.55002 9.025 6.32501 9.025 5.50001V5.47501C9.025 4.725 9.625 4.225 10.45 4.225C11.003 4.22267 11.5406 4.40773 11.975 4.75L11.5 5.45001C11.1982 5.21414 10.8323 5.07474 10.45 5.05C10.125 5.05 9.925 5.20001 9.925 5.42501C9.925 5.70001 10.1 5.80001 10.8 5.97501C11.625 6.20001 12.1 6.50002 12.1 7.22502C12.1 8.05003 11.475 8.52503 10.6 8.52503C9.95773 8.50142 9.34177 8.26384 8.85 7.85003ZM8.05 4.3L7.425 6.70002L6.725 4.3H6.025L5.325 6.70002L4.7 4.3H3.725L4.925 8.45003H5.7L6.375 6.05001L7.05 8.45003H7.825L9.025 4.3H8.05Z" fill="white"/>
  <linearGradient id="paint1_linear" x1="7.00875" y1="2.23125" x2="14.0138" y2="12.5025" gradientUnits="userSpaceOnUse">
    <stop offset="0%" stop-color="#FFF045"/>
    <stop offset="100%" stop-color="#00CDD7"/>
  </linearGradient>
</svg>
