<svg viewBox="0 0 16 16" xmlns="http://www.w3.org/2000/svg">
  <rect x="1.19904" y="6.35956" width="7.24249" height="9.65437" transform="rotate(-45 1.19904 6.35956)" fill="white"/>
  <path d="M15.6982 7.28712L8.7125 0.30175C8.31044 -0.100563 7.65794 -0.100563 7.25537 0.30175L5.80475 1.75237L7.64494 3.59256C8.07256 3.44806 8.56294 3.545 8.90381 3.88587C9.24631 4.22894 9.34256 4.7235 9.19456 5.1525L10.968 6.926C11.3971 6.77819 11.8921 6.87381 12.2348 7.21706C12.7137 7.69581 12.7137 8.47175 12.2348 8.95081C11.7557 9.42994 10.9798 9.42994 10.5005 8.95081C10.1402 8.59019 10.0512 8.06112 10.2336 7.61731L8.57975 5.96344L8.57956 10.3157C8.69945 10.375 8.80895 10.4533 8.90381 10.5476C9.38275 11.0264 9.38275 11.8024 8.90381 12.2818C8.42475 12.7607 7.64844 12.7607 7.17006 12.2818C6.69112 11.8024 6.69112 11.0264 7.17006 10.5477C7.28484 10.4329 7.42124 10.3419 7.57137 10.2801V5.88725C7.42102 5.82587 7.28454 5.73488 7.17006 5.61969C6.80719 5.25731 6.71994 4.72487 6.90587 4.27931L5.09187 2.46512L0.301875 7.25481C-0.100625 7.6575 -0.100625 8.31006 0.301875 8.71244L7.28775 15.6979C7.68994 16.1003 8.34231 16.1003 8.745 15.6979L15.6982 8.74487C16.1006 8.34237 16.1006 7.68944 15.6982 7.28712" fill="#DE4C36"/>
</svg>
