<svg viewBox="0 0 16 16" xmlns="http://www.w3.org/2000/svg">
  <g clip-path="url(#svelte0)">
    <path d="M13.4531 2.62632C12.0953 0.684004 9.41339 0.108287 7.47451 1.34315L4.06951 3.51258C3.84045 3.65651 3.62675 3.82386 3.43232 4.01194C3.23765 4.20003 3.06323 4.40787 2.91174 4.63206C2.76025 4.85625 2.63242 5.09556 2.53021 5.3461C2.42825 5.59675 2.35254 5.85729 2.30432 6.12356C2.26407 6.34677 2.24211 6.57316 2.23918 6.80003C2.23601 7.02714 2.25187 7.25401 2.28627 7.4782C2.32066 7.70264 2.3736 7.9239 2.44434 8.13955C2.51509 8.3552 2.60364 8.5645 2.70902 8.76552C2.63653 8.87569 2.5696 8.98943 2.5085 9.10631C2.44727 9.22316 2.39214 9.34319 2.3431 9.46565C2.29407 9.58811 2.25138 9.71301 2.21503 9.83986C2.17868 9.96672 2.14892 10.0953 2.1255 10.2251C2.0282 10.7708 2.04105 11.3305 2.16332 11.8712C2.2243 12.1408 2.31188 12.4038 2.42507 12.656C2.53826 12.9082 2.67609 13.1488 2.8371 13.3737C4.1949 15.316 6.8766 15.8917 8.81548 14.6569L12.2205 12.4965C12.4495 12.3523 12.6628 12.1847 12.8572 11.9964C13.0516 11.8082 13.226 11.6004 13.3775 11.3763C13.529 11.1523 13.6568 10.913 13.759 10.6625C13.8613 10.4122 13.9371 10.1516 13.9857 9.88548C14.0259 9.66227 14.0476 9.43613 14.0506 9.20926C14.0535 8.98239 14.0376 8.75551 14.003 8.53133C13.9686 8.30714 13.9157 8.08612 13.8447 7.87047C13.7737 7.65507 13.6851 7.44576 13.5797 7.24474C13.6522 7.13472 13.7193 7.0208 13.7805 6.90395C13.8415 6.7871 13.8969 6.66708 13.9459 6.54461C13.9949 6.42215 14.0379 6.29725 14.0745 6.1704C14.1108 6.04379 14.1411 5.91523 14.1647 5.78545C14.213 5.5132 14.234 5.23681 14.2277 4.96041C14.2213 4.68402 14.1874 4.40909 14.1264 4.13928C14.0654 3.86972 13.9779 3.60675 13.8647 3.3545C13.7516 3.10222 13.6138 2.8618 13.4531 2.63681" fill="#FF3E00"/>
    <path d="M7.14174 13.5615C6.87525 13.6308 6.59975 13.6589 6.32477 13.645C6.04984 13.6308 5.77858 13.5752 5.52049 13.4793C5.26238 13.3836 5.02038 13.2491 4.8028 13.0805C4.58541 12.9117 4.39498 12.7108 4.23807 12.4848C4.14122 12.3494 4.05828 12.2049 3.99047 12.0532C3.92245 11.9016 3.86974 11.7435 3.83312 11.5814C3.79677 11.4192 3.77628 11.2538 3.77262 11.0877C3.76896 10.9215 3.78189 10.7554 3.81117 10.5917C3.8158 10.5651 3.82117 10.5385 3.82702 10.5122C3.83263 10.4856 3.83898 10.4593 3.84581 10.4332C3.85239 10.4068 3.85971 10.3807 3.86752 10.3546C3.87508 10.3288 3.88337 10.3029 3.89191 10.2773L3.95607 10.0814L4.13098 10.2119C4.23124 10.2851 4.33467 10.3541 4.44079 10.4185C4.5469 10.4832 4.6557 10.5432 4.76694 10.5983C4.87794 10.6537 4.99161 10.7044 5.107 10.75C5.22239 10.7959 5.33972 10.8366 5.45877 10.8725L5.58928 10.9103L5.57757 11.0408C5.57128 11.1297 5.58052 11.2189 5.60489 11.3045C5.61684 11.3475 5.6327 11.3889 5.65197 11.429C5.67124 11.469 5.69393 11.5073 5.71979 11.5434C5.76717 11.6115 5.82467 11.6719 5.8903 11.7227C5.95568 11.7734 6.02862 11.8139 6.10644 11.8427C6.18426 11.8715 6.26574 11.8881 6.34868 11.8922C6.43137 11.8966 6.51431 11.8881 6.59457 11.8671C6.61311 11.8622 6.63116 11.8566 6.64922 11.8502C6.66727 11.8439 6.68508 11.8371 6.7024 11.8293C6.71996 11.8217 6.73704 11.8134 6.75411 11.8044C6.77094 11.7956 6.78729 11.7861 6.80339 11.7758L10.2032 9.60618C10.2449 9.58005 10.2838 9.54963 10.3191 9.51543C10.3545 9.48103 10.386 9.44322 10.4135 9.40248C10.4411 9.36174 10.464 9.31808 10.4826 9.27246C10.5009 9.22684 10.5145 9.17951 10.5233 9.13121C10.5318 9.08169 10.5355 9.03168 10.5343 8.98143C10.5331 8.93142 10.5267 8.88165 10.5155 8.83262C10.5045 8.78383 10.4884 8.73626 10.4677 8.6904C10.4472 8.64478 10.4218 8.60136 10.3925 8.56062C10.3452 8.49256 10.2879 8.4323 10.2223 8.38156C10.1566 8.33082 10.0837 8.29033 10.0061 8.26154C9.92838 8.23275 9.8467 8.21597 9.7639 8.21178C9.68096 8.20763 9.59802 8.21617 9.51776 8.2369C9.49946 8.24178 9.48117 8.24739 9.46312 8.25373C9.44506 8.26008 9.4275 8.26691 9.40993 8.27447C9.39237 8.28228 9.37529 8.29057 9.35846 8.2996C9.34163 8.30838 9.32504 8.31814 9.30894 8.32838L8.00335 9.15731C7.95017 9.19098 7.89553 9.22269 7.83991 9.25245C7.78405 9.28197 7.72745 9.30954 7.66964 9.33491C7.61182 9.36028 7.55303 9.38345 7.49351 9.40419C7.43399 9.42517 7.37373 9.44371 7.31275 9.46005C7.0466 9.52885 6.77168 9.55666 6.49724 9.54251C6.2228 9.52836 5.95227 9.47249 5.69466 9.37711C5.43706 9.28148 5.19555 9.14707 4.97844 8.97875C4.76133 8.81042 4.57105 8.61014 4.4142 8.38449C4.31784 8.2491 4.23514 8.10444 4.16757 7.9527C4.09975 7.80097 4.04731 7.64289 4.01096 7.48091C3.97461 7.31868 3.95461 7.15329 3.95119 6.98716C3.94753 6.82128 3.96046 6.65515 3.98998 6.4917C4.04765 6.1699 4.17178 5.86366 4.35443 5.59251C4.53721 5.32137 4.77459 5.09138 5.05138 4.91727L8.46172 2.74784C8.51466 2.71418 8.56881 2.68246 8.62419 2.6527C8.67957 2.62318 8.73616 2.59562 8.79349 2.57025C8.85094 2.54487 8.90937 2.52176 8.96864 2.50097C9.02767 2.47999 9.08768 2.4612 9.14843 2.44486C9.41481 2.37582 9.69023 2.34752 9.96491 2.36143C10.2398 2.37558 10.5109 2.4312 10.7689 2.52707C11.027 2.6227 11.2688 2.75736 11.4864 2.92592C11.7037 3.09477 11.8941 3.29573 12.0509 3.52189C12.1475 3.65703 12.2307 3.80145 12.2987 3.95319C12.3668 4.10492 12.4195 4.26275 12.4563 4.42498C12.4929 4.5872 12.5134 4.7526 12.5171 4.91873C12.521 5.08486 12.5083 5.25099 12.479 5.41467C12.4739 5.44151 12.4685 5.46834 12.4624 5.49493C12.4566 5.52152 12.4502 5.54811 12.4434 5.57446C12.4368 5.60105 12.4295 5.6274 12.4219 5.6535C12.4144 5.67985 12.4065 5.70595 12.398 5.73181L12.3329 5.9277L12.1592 5.79718C12.0587 5.72327 11.955 5.65399 11.8486 5.58885C11.7423 5.52396 11.633 5.46346 11.5215 5.4076C11.2983 5.29626 11.0662 5.20389 10.8275 5.13145L10.6967 5.09364L10.7087 4.96313C10.7124 4.91849 10.7121 4.8736 10.708 4.8292C10.7041 4.7848 10.696 4.74065 10.6843 4.69747C10.6723 4.65453 10.657 4.61233 10.6377 4.57208C10.6187 4.53158 10.596 4.49304 10.5701 4.45645C10.5225 4.38959 10.465 4.33036 10.3996 4.28081C10.3343 4.23103 10.2617 4.19154 10.1845 4.16371C10.0292 4.10738 9.86041 4.0998 9.70072 4.142C9.68218 4.14688 9.66388 4.15249 9.64607 4.15859C9.62802 4.16493 9.61021 4.17201 9.59265 4.17957C9.57533 4.18713 9.55801 4.19567 9.54118 4.20445C9.52434 4.21348 9.50776 4.22299 9.49166 4.23324L6.08546 6.399C6.04399 6.4251 6.0052 6.4556 5.97007 6.48975C5.93495 6.5239 5.90323 6.56172 5.87567 6.60221C5.84833 6.64294 5.8252 6.68634 5.80663 6.73175C5.78809 6.77736 5.77443 6.82445 5.76565 6.87275C5.75711 6.92227 5.75345 6.97252 5.75467 7.02278C5.7576 7.12337 5.78022 7.22241 5.82127 7.31429C5.84196 7.36003 5.86704 7.40366 5.89616 7.44456C5.94324 7.51189 6.00032 7.5719 6.06546 7.62215C6.13046 7.67264 6.20276 7.71295 6.27988 7.74169C6.43497 7.79934 6.60389 7.80862 6.76436 7.76828C6.78265 7.76316 6.80095 7.75755 6.819 7.7512C6.83681 7.74486 6.85462 7.73779 6.87218 7.73022C6.88966 7.72262 6.90684 7.71432 6.92365 7.70534C6.94049 7.69656 6.95707 7.68704 6.97317 7.6768L8.27876 6.84933C8.33219 6.81518 8.38659 6.78298 8.44245 6.75321C8.49807 6.72321 8.55491 6.69564 8.61297 6.67003C8.67083 6.64464 8.72967 6.62153 8.78934 6.60075C8.84911 6.57977 8.9096 6.56123 8.97083 6.54513C9.23722 6.47585 9.51239 6.44755 9.78732 6.46121C10.0622 6.47511 10.3333 6.53073 10.5914 6.62636C10.8492 6.72199 11.0912 6.8564 11.3086 7.02521C11.5262 7.19378 11.7164 7.39455 11.8733 7.62069C11.9699 7.75608 12.0528 7.9005 12.1209 8.05223C12.1889 8.20388 12.2417 8.36192 12.2785 8.52403C12.3151 8.68601 12.3356 8.85141 12.3395 9.01753C12.3434 9.18391 12.3304 9.35003 12.3014 9.51348C12.2726 9.67396 12.2273 9.83101 12.166 9.9821C12.1048 10.1332 12.028 10.2775 11.9367 10.4127C11.8457 10.5478 11.7408 10.6732 11.6237 10.7866C11.5066 10.9001 11.3781 11.0011 11.24 11.0879L7.83357 13.2573C7.78014 13.2912 7.7255 13.3232 7.66988 13.353C7.61402 13.3827 7.55718 13.4103 7.49912 13.4357C7.4413 13.4613 7.38251 13.4845 7.32275 13.5054C7.26322 13.5264 7.20273 13.5452 7.14174 13.5615" fill="white"/>
  </g>
  <defs>
    <clipPath id="svelte0">
      <rect width="13.3056" height="16" fill="white" transform="translate(1.5)"/>
    </clipPath>
  </defs>
</svg>
