<svg viewBox="0 0 16 16" xmlns="http://www.w3.org/2000/svg">
  <path d="M7.47663 0.0125109C7.44226 0.0156356 7.33289 0.026572 7.23446 0.0343838C4.96437 0.239051 2.83802 1.46393 1.49127 3.34656C0.741347 4.39333 0.261706 5.58072 0.0804739 6.83841C0.0164177 7.27743 0.00860596 7.4071 0.00860596 8.00236C0.00860596 8.59761 0.0164177 8.72729 0.0804739 9.1663C0.514807 12.1676 2.65054 14.6892 5.54713 15.6235C6.06583 15.7907 6.61265 15.9047 7.23446 15.9735C7.47663 16 8.5234 16 8.76556 15.9735C9.8389 15.8547 10.7482 15.5891 11.645 15.1313C11.7825 15.061 11.809 15.0423 11.7903 15.0267C11.7778 15.0173 11.1919 14.2314 10.4888 13.2815L9.21083 11.5551L7.60943 9.18505C6.72826 7.88206 6.00333 6.81653 5.99708 6.81653C5.99083 6.81497 5.98458 7.86799 5.98146 9.15381C5.97677 11.4051 5.97521 11.4958 5.94709 11.5489C5.90647 11.6254 5.87522 11.6567 5.8096 11.6911C5.75961 11.7161 5.71586 11.7207 5.47995 11.7207H5.20966L5.13779 11.6754C5.09092 11.6457 5.05655 11.6067 5.03312 11.5614L5.00031 11.4911L5.00343 8.35857L5.00812 5.2245L5.05655 5.16357C5.08155 5.13076 5.13467 5.08858 5.17216 5.06827C5.23622 5.03702 5.26122 5.0339 5.5315 5.0339C5.85022 5.0339 5.90334 5.04639 5.98615 5.13701C6.00958 5.16201 6.87669 6.46813 7.91408 8.04141C8.95148 9.6147 10.3701 11.7629 11.0669 12.8175L12.3324 14.7345L12.3965 14.6923C12.9636 14.3236 13.5635 13.7987 14.0385 13.2518C15.0493 12.091 15.7008 10.6755 15.9196 9.1663C15.9836 8.72729 15.9914 8.59761 15.9914 8.00236C15.9914 7.4071 15.9836 7.27743 15.9196 6.83841C15.4852 3.83714 13.3495 1.31551 10.4529 0.381225C9.94201 0.215616 9.39831 0.101565 8.789 0.0328214C8.63901 0.0171979 7.6063 1.21136e-05 7.47663 0.0125109V0.0125109ZM10.7482 4.84641C10.8232 4.88391 10.8841 4.95578 10.906 5.03077C10.9185 5.07139 10.9216 5.94006 10.9185 7.89768L10.9138 10.7068L10.4185 9.94748L9.9217 9.18818V7.14619C9.9217 5.82601 9.92795 5.08389 9.93732 5.04796C9.96232 4.96047 10.017 4.89172 10.092 4.8511C10.1561 4.81829 10.1795 4.81517 10.4248 4.81517C10.656 4.81517 10.6966 4.81829 10.7482 4.84641V4.84641Z" fill="black"/>
  <path d="M12.2543 14.7689C12.1996 14.8032 12.1824 14.8267 12.2308 14.8001C12.2652 14.7798 12.3215 14.7376 12.3121 14.7361C12.3074 14.7361 12.2808 14.7517 12.2543 14.7689ZM12.1465 14.8392C12.1184 14.8611 12.1184 14.8626 12.1527 14.8454C12.1715 14.8361 12.1871 14.8251 12.1871 14.822C12.1871 14.8095 12.1793 14.8126 12.1465 14.8392ZM12.0684 14.8861C12.0402 14.9079 12.0402 14.9095 12.0746 14.8923C12.0934 14.8829 12.109 14.872 12.109 14.8689C12.109 14.8564 12.1012 14.8595 12.0684 14.8861ZM11.9902 14.9329C11.9621 14.9548 11.9621 14.9564 11.9965 14.9392C12.0152 14.9298 12.0309 14.9189 12.0309 14.9157C12.0309 14.9032 12.023 14.9064 11.9902 14.9329ZM11.8715 14.9954C11.8121 15.0267 11.8153 15.0392 11.8746 15.0095C11.9012 14.9954 11.9215 14.9814 11.9215 14.9782C11.9215 14.9673 11.9199 14.9689 11.8715 14.9954Z" fill="black"/>
</svg>
