<svg viewBox="0 0 16 16" xmlns="http://www.w3.org/2000/svg">
  <path fill-rule="evenodd" clip-rule="evenodd" d="M6.65634 12.9063C6.96072 13.0281 9.39574 13.2107 9.39574 13.2716C9.5175 13.3933 6.83897 14.6108 6.59546 13.3933C6.47371 12.9672 6.65634 12.9063 6.65634 12.9063ZM8.54348 13.3933C8.17823 13.2107 6.23021 13.0889 7.2651 13.4542C7.02159 13.3933 6.65634 14.0021 8.54348 13.3933Z" fill="black"/>
  <path fill-rule="evenodd" clip-rule="evenodd" d="M3.0038 13.7586C2.94292 12.4802 3.61256 0.122416 5.07357 0.0006649C5.7432 -0.0602108 5.7432 4.07933 5.7432 4.07933C7.5086 3.53145 8.48261 3.71408 10.248 4.01846C10.248 4.01846 10.0654 0.183292 10.6741 0.122416C12.3178 0.0615406 13.7788 12.2975 13.0483 14.3064C12.2569 16.6197 3.12555 16.6806 3.0038 13.7586ZM8.60436 9.55814C9.5175 8.70588 11.5873 8.46238 11.709 9.80165C10.9176 10.593 9.21312 10.5322 8.60436 9.55814ZM7.56947 9.55814C6.65634 8.70588 4.58657 8.46238 4.46482 9.80165C5.2562 10.593 6.96072 10.5322 7.56947 9.55814ZM10.4306 14.1238C10.1871 14.3673 5.98671 14.4891 5.80408 14.1847C5.56058 13.8194 5.13445 12.2975 5.43883 12.054C5.7432 11.7497 8.11736 12.1758 8.11736 12.1758C8.11736 12.1758 9.82187 11.9323 10.4915 11.9323C11.222 11.8714 10.735 13.8803 10.4306 14.1238Z" fill="black"/>
  <line x1="1.35355" y1="0.646447" x2="15.3892" y2="14.6821" stroke="#CE3232"/>
  <line x1="0.646447" y1="14.6464" x2="14.6821" y2="0.610778" stroke="#CE3232"/>
</svg>
