<svg viewBox="0 0 16 16" xmlns="http://www.w3.org/2000/svg">
  <path d="M14.4674 7.87013C14.4674 7.04842 13.8012 6.3823 12.9795 6.3823C12.9267 6.3823 12.8745 6.38512 12.8231 6.39049L14.8667 0.363358H6.18235L8.223 6.38529C8.19309 6.38348 8.16302 6.3823 8.1326 6.3823C7.31089 6.3823 6.64477 7.04842 6.64477 7.87013C6.64477 8.53432 7.08005 9.09664 7.68087 9.28796C7.36353 9.83762 6.96426 10.3327 6.51095 10.7603C5.89452 11.3418 5.18905 11.7828 4.42609 12.0545C3.51765 11.5878 3.08864 10.5499 3.47575 9.63996C3.51946 9.53724 3.56406 9.43304 3.60675 9.32935C4.26484 9.17574 4.75524 8.58572 4.75524 7.88081C4.75524 7.0591 4.08912 6.39298 3.26741 6.39298C2.44565 6.39298 1.77953 7.0591 1.77953 7.88081C1.77953 8.38473 2.03027 8.82973 2.41348 9.0989C2.0452 9.93741 1.50391 10.8149 1.33526 11.8319C1.13314 13.0507 1.33464 14.3445 2.38877 15.0752C4.84384 16.7767 7.50877 14.0203 10.3186 13.3274C11.3369 13.0763 12.4547 13.1168 13.3519 12.5971C14.0256 12.2069 14.4698 11.5602 14.5959 10.8342C14.7204 10.117 14.5388 9.40285 14.1213 8.82379C14.3373 8.56553 14.4674 8.2331 14.4674 7.87013ZM9.62032 7.87539C9.62032 7.87363 9.62049 7.87188 9.62049 7.87013C9.62049 7.33054 9.33316 6.858 8.90326 6.59719L10.5275 3.3129L12.1545 6.63202C11.7549 6.89876 11.4916 7.35366 11.4916 7.87013C11.4916 7.88098 11.4923 7.89167 11.4925 7.90247L9.62032 7.87539Z" fill="#99424F"/>
  <path d="M14.8307 7.87013C14.8307 6.96639 14.1796 6.2123 13.3218 6.05122L15.3735 0H5.67547L7.73025 6.06349C6.90238 6.24775 6.28137 6.98759 6.28137 7.87013C6.28137 8.53292 6.63162 9.11508 7.15657 9.44221C6.90407 9.81835 6.60465 10.1723 6.26153 10.496C5.71742 11.0094 5.11117 11.3987 4.4576 11.6548C3.79934 11.2413 3.52106 10.4615 3.81008 9.78216L3.8327 9.72902C3.84683 9.69577 3.86102 9.66242 3.87516 9.62906C4.59815 9.37696 5.11858 8.68873 5.11858 7.88082C5.11858 6.86004 4.2881 6.02963 3.26733 6.02963C2.24655 6.02963 1.41613 6.86004 1.41613 7.88082C1.41613 8.39604 1.62786 8.86259 1.96867 9.19853C1.90687 9.33026 1.84191 9.46414 1.77514 9.6013C1.46351 10.2414 1.11032 10.9668 0.976724 11.7724C0.711396 13.3724 1.13933 14.6514 2.1817 15.3738C2.81424 15.8122 3.45655 15.9846 4.10294 15.9846C5.32013 15.9845 6.55134 15.3731 7.75558 14.7749C8.62292 14.3441 9.51971 13.8987 10.4056 13.6802C10.7352 13.5989 11.0744 13.55 11.4334 13.4982C12.1455 13.3955 12.8818 13.2893 13.534 12.9116C14.29 12.4737 14.8075 11.7392 14.9538 10.8964C15.0795 10.1729 14.9282 9.44831 14.5595 8.83375C14.7314 8.55288 14.8307 8.22293 14.8307 7.87013ZM14.104 7.87013C14.104 8.49018 13.5995 8.99466 12.9794 8.99466C12.3595 8.99466 11.855 8.49018 11.855 7.87013C11.855 7.25009 12.3595 6.74567 12.9794 6.74567C13.5995 6.74567 14.104 7.25009 14.104 7.87013ZM14.3597 0.726728L12.548 6.07022C12.4695 6.08905 12.3929 6.11279 12.3186 6.14134L10.5288 2.49029L8.7339 6.11975C8.65633 6.093 8.5765 6.07101 8.49463 6.05473L6.68912 0.726728H14.3597ZM8.13257 6.74567C8.75261 6.74567 9.25704 7.25009 9.25704 7.87013C9.25704 8.49018 8.75261 8.99466 8.13257 8.99466C7.51258 8.99466 7.0081 8.49018 7.0081 7.87013C7.0081 7.25009 7.51258 6.74567 8.13257 6.74567ZM3.26733 6.75635C3.88742 6.75635 4.39185 7.26078 4.39185 7.88082C4.39185 8.50086 3.88742 9.00534 3.26733 9.00534C2.64734 9.00534 2.14286 8.50086 2.14286 7.88082C2.14286 7.26078 2.64734 6.75635 3.26733 6.75635ZM14.2378 10.7721C14.1284 11.4023 13.7391 11.953 13.1697 12.2827C12.639 12.5901 12.003 12.6818 11.3297 12.7789C10.969 12.8309 10.5959 12.8847 10.2316 12.9746C9.26806 13.2122 8.3348 13.6758 7.4323 14.124C5.62622 15.0211 4.06642 15.7958 2.59572 14.7765C1.51841 14.0299 1.56816 12.6484 1.69367 11.8913C1.80997 11.19 2.12443 10.5441 2.42854 9.91938C2.48118 9.81128 2.53229 9.70538 2.58243 9.60017C2.73328 9.66049 2.89367 9.7016 3.06085 9.72025C2.75131 10.7419 3.23815 11.8528 4.25995 12.3777L4.39976 12.4496L4.54789 12.3968C5.35569 12.1092 6.1 11.6475 6.76024 11.0246C7.18704 10.622 7.5538 10.1766 7.85537 9.70058C7.94583 9.7142 8.03838 9.72139 8.13257 9.72139C9.15335 9.72139 9.98382 8.89097 9.98382 7.87013C9.98382 7.32116 9.74337 6.82748 9.36253 6.48814L10.526 4.13552L11.7012 6.53298C11.3486 6.87028 11.1282 7.34479 11.1282 7.87013C11.1282 8.89097 11.9587 9.72139 12.9794 9.72139C13.3716 9.72139 13.7355 9.59847 14.0351 9.38963C14.2432 9.81552 14.3207 10.2947 14.2378 10.7721Z" fill="white"/>
</svg>
