<svg width="16" height="16" viewBox="0 0 16 16" fill="none" xmlns="http://www.w3.org/2000/svg">
  <path d="M15.008 10.174C15.008 10.8966 14.4027 11.4878 13.6628 11.4878H2.35525C1.61534 11.4878 1.00996 10.8966 1.00996 10.174V5.99002C1.00996 5.26748 1.61534 4.67622 2.35525 4.67622H13.6628C14.4027 4.67622 15.008 5.26748 15.008 5.99002V10.174Z" fill="url(#less_g1)" stroke="#2E4F82" stroke-width="0.1"/>
  <mask id="mask0" mask-type="alpha" maskUnits="userSpaceOnUse" x="0" y="4" width="17" height="8">
    <path d="M0 4.66H15.993V11.5026H0" fill="white"/>
    <path d="M0 4.66H15.993V11.5026H0" stroke="#2E4F82" stroke-width="0.1"/>
  </mask>
  <path fill-rule="evenodd" clip-rule="evenodd" d="M15.31 7.15537C15.31 6.64316 15.3888 6.3411 15.3888 5.78952C15.3888 4.93582 15.0735 4.66 14.3775 4.66H13.8653V5.26413H14.0229C14.3775 5.26413 14.4563 5.38236 14.4563 5.81577C14.4563 6.22287 14.4168 6.63004 14.4168 7.10288C14.4168 7.70701 14.6139 7.9434 15.0078 8.03532V8.07475C14.6139 8.16666 14.4168 8.40312 14.4168 9.00724C14.4168 9.48002 14.4563 9.86094 14.4563 10.2944C14.4563 10.7409 14.3643 10.8591 14.0229 10.8591V10.8722H13.8653V11.5026H14.3775C15.0735 11.5026 15.3888 11.2268 15.3888 10.3732C15.3888 9.80839 15.31 9.51945 15.31 9.00724C15.31 8.73142 15.4807 8.44248 15.9929 8.41624V7.73325C15.4807 7.72013 15.31 7.43119 15.31 7.15537V7.15537ZM9.49182 7.95652C9.08466 7.79893 8.71693 7.70701 8.71693 7.44431C8.71693 7.24735 8.87452 7.12913 9.16345 7.12913C9.45239 7.12913 9.71509 7.24735 10.004 7.4575L10.5294 6.76139C10.201 6.51188 9.75445 6.24918 9.15033 6.24918C8.25727 6.24918 7.65309 6.76139 7.65309 7.48374C7.65309 8.1273 8.21784 8.45561 8.69068 8.63951C9.09778 8.7971 9.49182 8.92845 9.49182 9.19108C9.49182 9.3881 9.33417 9.51945 8.97962 9.51945C8.65125 9.51945 8.32295 9.3881 7.96834 9.11228L7.45613 9.87407C7.85011 10.2024 8.45423 10.4256 8.95331 10.4256C10.004 10.4256 10.5687 9.87407 10.5687 9.15171C10.5687 8.42936 10.004 8.1273 9.49182 7.95652V7.95652ZM12.6701 7.95652C12.2761 7.79893 11.9084 7.70701 11.9084 7.44431C11.9084 7.24735 12.066 7.12913 12.3549 7.12913C12.6438 7.12913 12.9065 7.24735 13.1955 7.4575L13.7208 6.76139C13.3924 6.51188 12.9459 6.24918 12.3418 6.24918C11.4487 6.24918 10.8445 6.76139 10.8445 7.48374C10.8445 8.1273 11.4093 8.45561 11.8821 8.63951C12.2892 8.7971 12.6832 8.92845 12.6832 9.19108C12.6832 9.3881 12.5256 9.51945 12.171 9.51945C11.8427 9.51945 11.5143 9.3881 11.1598 9.11228L10.6344 9.87407C11.0284 10.2024 11.6326 10.4256 12.1316 10.4256C13.1823 10.4256 13.747 9.87407 13.747 9.15171C13.747 8.42936 13.1823 8.1273 12.6701 7.95652V7.95652ZM4.86881 7.89085C4.94761 7.36552 5.26279 7.116 5.63052 7.116C6.10336 7.116 6.28726 7.44431 6.28726 7.89085H4.86881V7.89085ZM7.28536 8.1273C7.29848 7.06345 6.7206 6.23606 5.6174 6.23606C4.65867 6.23606 3.73936 7.03721 3.76561 8.29801C3.76561 9.59825 4.6193 10.36 5.74875 10.36C6.22158 10.36 6.74691 10.1893 7.15401 9.91343L6.76003 9.21739C6.47109 9.3881 6.19528 9.4669 5.90634 9.4669C5.38101 9.4669 4.97385 9.21739 4.86881 8.6132H7.24599C7.25911 8.52128 7.28536 8.33744 7.28536 8.1273V8.1273Z" fill="#FAF9F8" stroke="#2E4F82" stroke-width="0.1"/>
  <path fill-rule="evenodd" clip-rule="evenodd" d="M3.70006 9.44065C3.60814 9.44065 3.48991 9.36186 3.48991 9.11228V4.66H1.62492C0.915747 4.66 0.600499 4.93582 0.600499 5.78952C0.600499 6.35422 0.679296 6.66947 0.679296 7.15537C0.679296 7.43119 0.50858 7.72013 -0.00362778 7.74638V8.42936C0.50858 8.44248 0.679296 8.73142 0.679296 9.00724C0.679296 9.49321 0.600499 9.78208 0.600499 10.3468C0.600499 11.2005 0.915748 11.4764 1.61179 11.4764H2.124V10.8722H1.96641C1.6381 10.8722 1.533 10.7409 1.533 10.3075C1.533 9.87407 1.57243 9.50633 1.57243 9.02037C1.57243 8.41624 1.3754 8.17979 0.981359 8.08787V8.0485C1.3754 7.95652 1.57243 7.72013 1.57243 7.116C1.57243 6.64316 1.533 6.2623 1.533 5.82889C1.533 5.39548 1.62492 5.27732 1.96641 5.27732H2.32102V9.04661C2.32102 9.84776 2.59684 10.3732 3.39799 10.3732C3.6475 10.3732 3.84453 10.3337 3.989 10.2812L3.85765 9.42753C3.77885 9.44065 3.73948 9.44065 3.70006 9.44065Z" fill="#FAF9F8" stroke="#2E4F82" stroke-width="0.1"/>

  <linearGradient id="less_g1" x1="8.00901" y1="4.67622" x2="8.00901" y2="11.4878" gradientUnits="userSpaceOnUse">
    <stop stop-color="#2E4F82"/>
    <stop offset="1" stop-color="#182E4D"/>
  </linearGradient>
</svg>
