<svg viewBox="0 0 16 16" fill="none" xmlns="http://www.w3.org/2000/svg">
  <path d="M15.0081 10.174C15.0081 10.8966 14.4027 11.4878 13.6628 11.4878H2.3553C1.61539 11.4878 1.01001 10.8966 1.01001 10.174V5.99006C1.01001 5.26752 1.61539 4.67627 2.3553 4.67627H13.6628C14.4027 4.67627 15.0081 5.26752 15.0081 5.99006V10.174Z" fill="#2E4F82"/>
  <mask x="0" y="4">
    <path d="M0 4.66003H15.993V11.5026H0" fill="white"/>
  </mask>
  <path fill-rule="evenodd" clip-rule="evenodd" d="M15.3099 7.1554C15.3099 6.64319 15.3887 6.34113 15.3887 5.78955C15.3887 4.93585 15.0735 4.66003 14.3774 4.66003H13.8652V5.26416H14.0228C14.3774 5.26416 14.4562 5.38239 14.4562 5.8158C14.4562 6.2229 14.4168 6.63007 14.4168 7.10291C14.4168 7.70704 14.6138 7.94343 15.0078 8.03535V8.07478C14.6138 8.1667 14.4168 8.40315 14.4168 9.00727C14.4168 9.48005 14.4562 9.86097 14.4562 10.2944C14.4562 10.7409 14.3643 10.8591 14.0228 10.8591V10.8722H13.8652V11.5026H14.3774C15.0735 11.5026 15.3887 11.2268 15.3887 10.3732C15.3887 9.80842 15.3099 9.51948 15.3099 9.00727C15.3099 8.73145 15.4806 8.44251 15.9928 8.41627V7.73328C15.4806 7.72016 15.3099 7.43122 15.3099 7.1554V7.1554ZM9.49178 7.95655C9.08461 7.79896 8.71688 7.70704 8.71688 7.44434C8.71688 7.24738 8.87447 7.12916 9.16341 7.12916C9.45235 7.12916 9.71504 7.24738 10.004 7.45753L10.5293 6.76142C10.2009 6.51191 9.75441 6.24921 9.15029 6.24921C8.25723 6.24921 7.65305 6.76142 7.65305 7.48377C7.65305 8.12733 8.2178 8.45564 8.69064 8.63954C9.09774 8.79713 9.49178 8.92848 9.49178 9.19111C9.49178 9.38813 9.33412 9.51948 8.97957 9.51948C8.65121 9.51948 8.3229 9.38813 7.96829 9.11231L7.45609 9.8741C7.85007 10.2024 8.45419 10.4257 8.95327 10.4257C10.004 10.4257 10.5687 9.8741 10.5687 9.15174C10.5687 8.42939 10.004 8.12733 9.49178 7.95655V7.95655ZM12.67 7.95655C12.2761 7.79896 11.9083 7.70704 11.9083 7.44434C11.9083 7.24738 12.0659 7.12916 12.3549 7.12916C12.6438 7.12916 12.9065 7.24738 13.1954 7.45753L13.7207 6.76142C13.3924 6.51191 12.9459 6.24921 12.3417 6.24921C11.4486 6.24921 10.8445 6.76142 10.8445 7.48377C10.8445 8.12733 11.4092 8.45564 11.882 8.63954C12.2892 8.79713 12.6832 8.92848 12.6832 9.19111C12.6832 9.38813 12.5256 9.51948 12.171 9.51948C11.8427 9.51948 11.5143 9.38813 11.1597 9.11231L10.6343 9.8741C11.0284 10.2024 11.6325 10.4257 12.1316 10.4257C13.1822 10.4257 13.747 9.8741 13.747 9.15174C13.747 8.42939 13.1822 8.12733 12.67 7.95655V7.95655ZM4.86877 7.89088C4.94756 7.36555 5.26274 7.11603 5.63048 7.11603C6.10331 7.11603 6.28721 7.44434 6.28721 7.89088H4.86877V7.89088ZM7.28531 8.12733C7.29843 7.06348 6.72056 6.23609 5.61736 6.23609C4.65862 6.23609 3.73932 7.03724 3.76556 8.29804C3.76556 9.59828 4.61926 10.36 5.7487 10.36C6.22154 10.36 6.74686 10.1893 7.15396 9.91346L6.75999 9.21742C6.47105 9.38813 6.19523 9.46693 5.90629 9.46693C5.38097 9.46693 4.97381 9.21742 4.86877 8.61323H7.24594C7.25907 8.52131 7.28531 8.33747 7.28531 8.12733V8.12733Z" fill="#FAF9F8"/>
  <path fill-rule="evenodd" clip-rule="evenodd" d="M3.70002 9.44069C3.6081 9.44069 3.48988 9.36189 3.48988 9.11231V4.66003H1.62488C0.915713 4.66003 0.600465 4.93585 0.600465 5.78955C0.600465 6.35425 0.679261 6.6695 0.679261 7.1554C0.679261 7.43122 0.508546 7.72016 -0.00366211 7.74641V8.42939C0.508546 8.44251 0.679261 8.73145 0.679261 9.00727C0.679261 9.49324 0.600465 9.78212 0.600465 10.3469C0.600465 11.2006 0.915713 11.4764 1.61176 11.4764H2.12397V10.8722H1.96637C1.63807 10.8722 1.53296 10.7409 1.53296 10.3075C1.53296 9.8741 1.57239 9.50636 1.57239 9.0204C1.57239 8.41627 1.37537 8.17982 0.981325 8.0879V8.04853C1.37537 7.95655 1.57239 7.72016 1.57239 7.11603C1.57239 6.64319 1.53296 6.26233 1.53296 5.82892C1.53296 5.39551 1.62488 5.27735 1.96637 5.27735H2.32099V9.04664C2.32099 9.84779 2.59681 10.3732 3.39796 10.3732C3.64747 10.3732 3.84449 10.3338 3.98896 10.2812L3.85761 9.42756C3.77882 9.44069 3.73945 9.44069 3.70002 9.44069Z" fill="#FAF9F8"/>
</svg>
