<svg viewBox="0 0 16 16" xmlns="http://www.w3.org/2000/svg">
  <path d="M7.96906 0.199997C3.56844 0.199997 0 3.76781 0 8.16906C0 11.6901 2.28338 14.6772 5.44975 15.7309C5.848 15.8047 5.99425 15.5581 5.99425 15.3476C5.99425 15.1576 5.98681 14.5297 5.98344 13.8639C3.76638 14.3459 3.29856 12.9236 3.29856 12.9236C2.93606 12.0025 2.41375 11.7576 2.41375 11.7576C1.69075 11.263 2.46825 11.2731 2.46825 11.2731C3.2685 11.3294 3.68987 12.0944 3.68987 12.0944C4.40062 13.3127 5.55412 12.9604 6.00887 12.7569C6.08037 12.2417 6.28694 11.8902 6.51481 11.6912C4.74481 11.4897 2.88406 10.8064 2.88406 7.75287C2.88406 6.88287 3.19538 6.17193 3.70519 5.61387C3.62244 5.41312 3.34969 4.60262 3.78238 3.50493C3.78238 3.50493 4.45156 3.29075 5.97444 4.32181C6.61006 4.14518 7.29181 4.05668 7.96906 4.05368C8.64631 4.05668 9.32856 4.14518 9.96544 4.32181C11.4865 3.29075 12.1547 3.50493 12.1547 3.50493C12.5885 4.60262 12.3156 5.41312 12.2329 5.61387C12.7438 6.17193 13.053 6.88281 13.053 7.75287C13.053 10.8136 11.1888 11.4876 9.41425 11.6849C9.70006 11.9322 9.95475 12.4172 9.95475 13.1606C9.95475 14.2269 9.9455 15.0851 9.9455 15.3476C9.9455 15.5596 10.0889 15.8081 10.4929 15.7299C13.6576 14.6749 15.9381 11.6889 15.9381 8.16906C15.9381 3.76781 12.3701 0.199997 7.96906 0.199997Z" fill="#161614"/>
  <path d="M2.98468 11.5521C2.96718 11.5917 2.90481 11.6036 2.84812 11.5764C2.79031 11.5504 2.75781 11.4964 2.77656 11.4567C2.79374 11.4159 2.85612 11.4046 2.91381 11.4319C2.97175 11.4579 3.00475 11.5124 2.98468 11.5521V11.5521ZM3.37669 11.9019C3.33869 11.9371 3.26437 11.9207 3.21394 11.8651C3.16181 11.8095 3.15206 11.7352 3.19062 11.6994C3.22981 11.6642 3.30187 11.6807 3.35412 11.7363C3.40625 11.7925 3.41637 11.8663 3.37662 11.9019L3.37669 11.9019ZM3.64563 12.3494C3.59675 12.3833 3.51688 12.3515 3.46756 12.2806C3.41875 12.2098 3.41875 12.1248 3.46863 12.0907C3.51813 12.0567 3.59675 12.0873 3.64675 12.1576C3.6955 12.2297 3.6955 12.3147 3.64556 12.3494L3.64563 12.3494ZM4.10038 12.8677C4.05669 12.9158 3.96369 12.9029 3.89557 12.8372C3.82594 12.7729 3.8065 12.6817 3.85032 12.6336C3.8945 12.5853 3.98807 12.5989 4.05669 12.6641C4.12588 12.7282 4.14701 12.8201 4.10044 12.8677H4.10038ZM4.68814 13.0427C4.66895 13.1051 4.57932 13.1334 4.48907 13.1069C4.39895 13.0796 4.33995 13.0065 4.35813 12.9434C4.37688 12.8806 4.46688 12.8511 4.55782 12.8794C4.64782 12.9066 4.70695 12.9792 4.6882 13.0427H4.68814ZM5.35714 13.1169C5.35939 13.1826 5.28283 13.2371 5.18808 13.2383C5.09277 13.2404 5.0157 13.1872 5.0147 13.1226C5.0147 13.0562 5.08952 13.0022 5.18477 13.0006C5.27952 12.9987 5.35714 13.0516 5.35714 13.1169V13.1169ZM6.01427 13.0917C6.02565 13.1558 5.95977 13.2217 5.86571 13.2392C5.77321 13.2561 5.68758 13.2165 5.67577 13.1529C5.66427 13.0872 5.7314 13.0214 5.82371 13.0043C5.91796 12.9879 6.00227 13.0265 6.01427 13.0917" fill="#161614"/>
</svg>
