<svg viewBox="0 0 16 16" xmlns="http://www.w3.org/2000/svg">
  <path d="M2.28389 14.4006L1 0H15.108L13.8227 14.3983L8.04534 16L2.28389 14.4006Z" fill="#E44D26"/>
  <path d="M8.05399 14.7755L12.7223 13.4812L13.8208 1.17736H8.05399V14.7755Z" fill="#F16529"/>
  <path d="M8.05399 6.51847H5.71694L5.5555 4.70989H8.05399V2.9437H3.62524L3.66756 3.41753L4.10164 8.28459H8.05399V6.51847ZM8.05399 11.1054L8.04624 11.1075L6.07926 10.5763L5.95351 9.16776H4.18058L4.42805 11.9409L8.04591 12.9452L8.05399 12.943V11.1054Z" fill="#EBEBEB"/>
  <path d="M8.0479 6.51847V8.2846H10.2228L10.0177 10.5752L8.0479 11.1068V12.9443L11.6687 11.9409L11.6951 11.6424L12.1102 6.99275L12.1533 6.51847H11.6774H8.0479ZM8.0479 2.9437V4.70989H12.3141L12.3494 4.31288L12.4299 3.41753L12.4722 2.9437H8.0479Z" fill="white"/>
</svg>
