<svg viewBox="0 0 16 16" xmlns="http://www.w3.org/2000/svg">
  <path d="M3.36144 14.7136L2.32996 3.14417H13.6644L12.6317 14.7118L7.9902 15.9986L3.36144 14.7136Z" fill="#E44D26"/>
  <path d="M7.99719 15.0147L11.7477 13.9749L12.6302 4.08997H7.99719V15.0147Z" fill="#F16529"/>
  <path d="M7.99716 8.38102H6.11957L5.98986 6.928H7.99716V5.50903H4.43909L4.47309 5.88971L4.82183 9.79993H7.99716V8.38102ZM7.99716 12.0661L7.99093 12.0678L6.41065 11.6411L6.30962 10.5095H4.88525L5.08407 12.7374L7.99067 13.5443L7.99716 13.5425V12.0661Z" fill="#EBEBEB"/>
  <path d="M3.38452 0H4.1056V0.712419H4.76521V0H5.48631V2.1574H4.76521V1.43499H4.1056V2.1574H3.38457L3.38452 0ZM6.43461 0.715458H5.79983V0H7.7909V0.715458H7.15581V2.1574H6.43463V0.715458H6.43461ZM8.10684 0H8.85878L9.3213 0.758065L9.78338 0H10.5356V2.1574H9.81733V1.08805L9.32122 1.85513H9.30883L8.81239 1.08805V2.1574H8.10682V0H8.10684ZM10.8944 0H11.6157V1.44431H12.6298V2.1574H10.8944V0Z" fill="black"/>
  <path d="M7.99231 8.38102V9.79993H9.73961L9.57487 11.6402L7.99231 12.0673V13.5436L10.9012 12.7374L10.9225 12.4976L11.256 8.76206L11.2906 8.38102H10.9083H7.99231ZM7.99231 5.50903V6.928H11.4198L11.4482 6.60904L11.5128 5.88971L11.5468 5.50903H7.99231Z" fill="white"/>
</svg>
