<svg viewBox="0 0 16 16" xmlns="http://www.w3.org/2000/svg">
  <rect x="3" y="2" width="10" height="11" fill="white"/>
  <path d="M9.01875 0.0656251C4.6375 -0.49375 0.628125 2.6 0.0656251 6.98125C-0.49375 11.3625 2.6 15.3719 6.98125 15.9344C11.3625 16.4937 15.3719 13.4 15.9312 9.01875C16.4969 4.63437 13.4031 0.628125 9.01875 0.0656251ZM10.6656 5.05625C10.5156 5.05625 10.375 5.11562 10.2719 5.22187L7.30312 8.1875L7.09687 7.98437L6.66875 7.55625C9.59375 4.64062 10.125 4.6125 10.6656 5.05625ZM7.425 8.29687L10.3844 5.3375C10.5469 5.16562 10.8219 5.16875 10.9875 5.34062C11.15 5.51562 11.1312 5.7875 10.95 5.94062L7.81875 8.69062L7.425 8.29687ZM7.64375 8.75937L6.90937 8.91875L6.86562 8.89375L6.875 8.84687L7.30312 8.41875L7.64375 8.75937ZM5.775 8.45312L6.55937 7.67187L7.14375 8.25625L5.82187 8.54062L5.76562 8.51562L5.775 8.45312ZM3.34375 12.4906L3.29687 12.4375L3.3125 12.4062H3.31562L3.94687 11.775L4.7625 12.5906L3.34375 12.4906ZM4.9625 11.6531C4.9 11.6875 4.86875 11.7562 4.88437 11.825L5.01875 12.4C5.04062 12.4844 4.9375 12.5406 4.87812 12.4781H4.875L4.05625 11.6594L6.5625 9.15312L7.775 8.89062L8.35625 9.475C7.525 10.2094 6.38125 10.9437 4.9625 11.6531ZM8.48125 9.36875L7.92187 8.80937L11.0531 6.05937L11.1312 5.975C11.0344 6.87187 9.77812 8.1375 8.48125 9.36875ZM10.9219 5.0625C9.82812 3.96562 11.3687 2.28125 12.5562 3.27187L11.4844 4.34687V4.45937L12.3156 5.29062C11.8469 5.525 11.2875 5.43125 10.9219 5.0625ZM12.6375 5.0625C12.5844 5.11562 12.5219 5.16562 12.4594 5.20937L11.6562 4.40625L12.6781 3.38125C13.1156 3.8625 13.0969 4.60312 12.6375 5.0625ZM12.5719 4.03437L12.5344 4.1375C12.5844 4.2375 12.5719 4.35312 12.5 4.4375L12.5156 4.56875L12.5719 4.5875L12.6437 4.55625C12.7625 4.41562 12.7844 4.21875 12.7031 4.05312L12.5719 4.03437Z" fill="#F15A24"/>
</svg>
