<svg viewBox="0 0 16 16" xmlns="http://www.w3.org/2000/svg">
  <path d="M11.0864 11.0089C11.6768 10.9478 12.1248 10.4388 12.1044 9.8279C12.0841 9.21709 11.575 8.7284 10.9642 8.7284H10.9235C10.2923 8.74878 9.80364 9.27815 9.82401 9.90934C9.84439 10.2148 9.96651 10.4795 10.1498 10.6627C9.45751 12.027 8.39875 13.0247 6.81061 13.8595C5.73148 14.4296 4.61166 14.6332 3.49184 14.4907C2.57558 14.3685 1.86295 13.9613 1.41495 13.2893C0.763443 12.2917 0.70238 11.2125 1.25213 10.1333C1.63901 9.35959 2.24977 8.78946 2.63664 8.5044C2.55521 8.23971 2.43302 7.79178 2.37195 7.46603C-0.58038 9.60396 -0.27494 12.4953 0.620941 13.8595C1.29282 14.8776 2.65702 15.5088 4.16372 15.5088C4.57091 15.5088 4.9781 15.468 5.38535 15.3663C7.99156 14.8572 9.96657 13.3097 11.0864 11.0089V11.0089ZM14.6699 8.48409C13.1225 6.6719 10.8421 5.67421 8.23587 5.67421H7.91012C7.72687 5.30771 7.33999 5.06334 6.91243 5.06334H6.87168C6.24055 5.08371 5.75192 5.61309 5.77223 6.24434C5.79261 6.85515 6.30161 7.34384 6.91243 7.34384H6.95311C7.40105 7.32346 7.78793 7.0384 7.95081 6.65153H8.31731C9.86476 6.65153 11.3307 7.09946 12.6542 7.97503C13.6722 8.64696 14.4052 9.52253 14.8124 10.5813C15.1586 11.4365 15.1382 12.2713 14.7717 12.984C14.2016 14.0631 13.2447 14.6536 11.9823 14.6536C11.1678 14.6536 10.3941 14.4092 9.98689 14.226C9.76295 14.4296 9.35569 14.7553 9.07063 14.959C9.9462 15.3662 10.8421 15.5902 11.6972 15.5902C13.6519 15.5902 15.0975 14.511 15.6472 13.4319C16.2377 12.2509 16.1969 10.2148 14.6699 8.48409V8.48409ZM4.32659 11.355C4.34697 11.9658 4.85597 12.4545 5.46679 12.4545H5.50754C6.13873 12.4342 6.62736 11.9047 6.60699 11.2735C6.58667 10.6627 6.07761 10.174 5.46679 10.174H5.4261C5.38535 10.174 5.32423 10.174 5.2836 10.1943C4.44878 8.80978 4.10265 7.30309 4.22484 5.67415C4.30622 4.45246 4.71347 3.39365 5.4261 2.51809C6.01654 1.76471 7.15674 1.39821 7.9305 1.3779C10.0887 1.33715 11.0049 4.02484 11.066 5.10403C11.3307 5.16509 11.7786 5.30765 12.0841 5.40946C11.8397 2.11096 9.80364 0.400589 7.84906 0.400589C6.01654 0.400589 4.32659 1.72409 3.65465 3.67878C2.71808 6.28503 3.3289 8.78946 4.46909 10.7645C4.36734 10.907 4.30622 11.131 4.32659 11.355V11.355Z" fill="#764ABC"/>
</svg>
