<svg viewBox="0 0 16 16" xmlns="http://www.w3.org/2000/svg">
  <path d="M3.26319 12.7368L0.526896 10.0005C0.201086 9.66676 0 9.19522 0 8.73642C0 8.52356 0.119951 8.19043 0.210631 7.99984L2.73629 2.7363L3.26319 12.7368Z" fill="#01579B"/>
  <path d="M12.6315 3.26319L9.8952 0.526896C9.65625 0.286356 9.15863 0 8.73737 0C8.37529 0 8.01989 0.0728618 7.79048 0.210631L2.73853 2.73629L12.6315 3.26319Z" fill="#40C4FF"/>
  <path d="M6.52605 16H13.1581V13.1581L8.21046 11.5783L3.68413 13.1581L6.52605 16Z" fill="#40C4FF"/>
  <path d="M2.7363 11.2634C2.7363 12.1078 2.84225 12.3149 3.26224 12.7371L3.68318 13.1584H13.1581L8.52706 7.89517L2.7363 2.7363V11.2634Z" fill="#29B6F6"/>
  <path d="M11.1584 2.7363H2.7363L13.1581 13.1568H16V6.63074L12.6315 3.26192C12.1581 2.78784 11.7381 2.7363 11.1584 2.7363Z" fill="#01579B"/>
  <path opacity="0.2" d="M3.36883 12.8415C2.94788 12.4193 2.8432 12.0028 2.8432 11.2634V2.84193L2.73853 2.7363V11.2634C2.73853 12.0031 2.73853 12.208 3.36883 12.8418L3.68414 13.1571L3.36883 12.8415Z" fill="white"/>
  <path opacity="0.2" d="M15.8953 6.52606V13.0521H13.0534L13.1581 13.1581H16V6.63074L15.8953 6.52606Z" fill="#263238"/>
  <path opacity="0.2" d="M12.6315 3.26319C12.11 2.74075 11.683 2.7363 11.0537 2.7363H2.73853L2.8432 2.84098H11.0537C11.3677 2.84098 12.1606 2.78816 12.6322 3.26224L12.6315 3.26319Z" fill="white"/>
  <path opacity="0.2" d="M15.8953 6.52606L12.6315 3.26319L9.8952 0.526896C9.65625 0.286356 9.15863 0 8.73737 0C8.37529 0 8.01989 0.0728618 7.79048 0.210631L2.73852 2.73629L0.211586 7.99984C0.121224 8.1917 0 8.52451 0 8.73641C0 9.19617 0.202358 9.66548 0.525623 9.99956L3.04906 12.5042C3.1162 12.5856 3.18768 12.6634 3.26319 12.7371L3.36787 12.8418L3.68286 13.1571L6.41915 15.8934L6.52383 15.9981H13.1546V13.1568H15.9965V6.63074L15.8953 6.52606Z" fill="url(#dart1)"/>
  <defs>
    <radialGradient id="dart1" cx="0" cy="0" r="1" gradientUnits="userSpaceOnUse" gradientTransform="translate(7.99952 7.9992) scale(7.99889)">
      <stop stop-color="white" stop-opacity="0.1"/>
      <stop offset="1" stop-color="white" stop-opacity="0"/>
    </radialGradient>
  </defs>
</svg>
