<svg viewBox="0 0 16 16" xmlns="http://www.w3.org/2000/svg">
  <path d="M3.04907 15.4647L2.33532 0.83271H1.8L2.33532 15.4647H3.04907Z" fill="#B57EE5"/>
  <path d="M3.34648 15.4647L2.63272 0.832714L14.2907 0V16L3.34648 15.4647Z" fill="#F1618C"/>
  <path d="M11.3167 2.14126L11.4654 0.148698L12.8632 0.0297394V2.14126L12.1603 1.50543L11.3167 2.14126Z" fill="white"/>
  <path d="M9.45146 6.262L11.7498 6.2049C11.8069 3.97799 10.6506 2.87881 8.63778 2.87881C6.62499 2.87881 5.49726 4.02081 5.49726 5.73383C5.49726 8.71732 9.35153 8.77442 9.35153 10.4018C9.35153 10.8586 9.13741 11.1298 8.66633 11.1298C8.0525 11.1298 7.80982 10.7301 7.83837 9.61665H5.42588C5.24031 12.3717 6.85339 12.9998 8.69488 12.9998C10.4793 12.9998 11.8782 12.1719 11.8782 10.3732C11.8782 7.17561 7.96685 7.26126 7.96685 5.67673C7.96685 5.03435 8.42365 4.9487 8.69488 4.9487C8.98038 4.9487 9.49429 5.0629 9.45146 6.262Z" fill="white"/>
</svg>
