<svg viewBox="0 0 16 16" xmlns="http://www.w3.org/2000/svg">
  <path d="M10.0268 15.5123L10.1802 12.9559L10.6038 12.2328C10.6038 12.2328 9.63965 12.6272 8.02555 12.6272C6.41141 12.6272 5.4619 12.2401 5.4619 12.2401L5.93664 13.0289L6.10458 15.5123C6.10458 15.7785 6.98258 15.9943 8.06569 15.9943C9.14874 15.9943 10.0268 15.7785 10.0268 15.5123V15.5123ZM9.54283 3.5746L9.86484 2.30181L11.648 0.425457L11.1781 0.0251465L9.29017 2.02393L8.91629 3.54458C8.6349 3.53515 8.35337 3.53047 8.07182 3.53053C6.08352 3.53053 4.47168 3.75713 4.47168 4.0366C4.47168 4.31609 6.08352 4.54266 8.07182 4.54266C10.0601 4.54266 11.6719 4.31609 11.6719 4.0366C11.6719 3.8308 10.7977 3.65367 9.54283 3.5746" fill="#D34A47"/>
  <path d="M9.35555 4.28749C9.35555 4.28749 9.28582 4.30312 9.08068 4.304C8.87549 4.30484 8.72979 4.30267 8.67176 4.24982C8.65616 4.23564 8.64762 4.20747 8.64771 4.18839C8.64788 4.15208 8.67366 4.13069 8.7065 4.11729L8.73757 4.16601C8.72406 4.17067 8.71634 4.17618 8.71631 4.18206C8.7162 4.20964 8.92611 4.22852 9.08667 4.22648C9.24726 4.22451 9.44129 4.21128 9.44146 4.1841C9.44146 4.17587 9.42679 4.16813 9.40126 4.16203L9.43219 4.11365C9.4738 4.12656 9.51012 4.15151 9.51004 4.19469C9.50964 4.26811 9.41619 4.27927 9.35555 4.28749" fill="white"/>
  <path d="M11.6445 0.429285C11.6894 0.377498 11.6213 0.245032 11.4926 0.133458C11.3637 0.0219393 11.223 -0.0265126 11.178 0.0252749C11.1332 0.0770624 11.2012 0.209528 11.3301 0.321046C11.4588 0.432593 11.5997 0.481101 11.6445 0.429285ZM9.94098 9.26824C9.89872 8.86163 10.8304 8.27274 10.5913 8.25389C10.0766 8.28331 9.82039 8.85708 9.56142 9.458C9.46652 9.67824 9.1418 10.6174 8.92883 10.5018C8.71591 10.3862 9.20487 9.61393 9.34191 9.15531C9.18378 9.27126 8.60385 9.72183 8.4544 9.29987C8.21411 9.50394 7.70067 9.6145 7.75859 9.07845C7.63076 9.30487 7.34387 9.621 6.9995 9.48964C6.54726 9.31717 7.26155 7.87659 7.43916 7.94927C7.6168 8.02192 7.40331 8.35008 7.3474 8.47752C7.22443 8.75797 7.08238 9.11053 7.17728 9.1827C7.33985 9.30634 7.78225 8.71494 7.79209 8.70194C7.87483 8.59263 8.11056 7.87747 8.30056 7.95959C8.49055 8.04171 7.82666 8.98595 8.07489 9.17334C8.12495 9.21116 8.32979 9.15002 8.4544 9.01521C8.53502 8.928 8.50729 8.73484 8.77603 8.09395C9.04478 7.45308 9.2843 6.65495 9.46861 6.71575C9.65292 6.77653 9.50101 7.18617 9.43489 7.33887C9.12461 8.05559 8.58808 9.23966 8.84111 9.15002C9.09414 9.06041 9.2259 9.05515 9.47367 8.7652C9.72145 8.47526 9.71003 7.99766 9.87517 8.00781C10.0404 8.01799 10.0126 8.17112 9.97259 8.28772C10.1351 8.10172 10.7431 7.70998 10.8898 8.09796C11.0637 8.55729 10.02 9.22078 10.2803 9.18694C10.534 9.15395 10.945 8.89363 11.1205 8.65694L11.6035 4.31419C11.6035 4.31419 11.1175 4.71645 8.02505 4.71645C4.93261 4.71645 4.49683 4.32256 4.49683 4.32256L4.90808 8.28645C5.12637 7.66605 5.64473 6.41116 6.4618 6.45328C6.83348 6.47245 7.32965 7.18812 6.90463 7.21237C6.72473 7.2226 6.70647 6.85514 6.49343 6.80118C6.33971 6.76223 6.12569 6.8872 5.98737 7.02261C5.71153 7.29257 5.11825 8.35769 5.19664 8.88871C5.29652 9.56571 6.13086 8.65346 6.27203 8.38262C6.37146 8.19184 6.43862 7.62659 6.65606 7.68589C6.87353 7.7452 6.63709 8.32854 6.47947 8.8443C6.3024 9.42343 6.20931 10.0343 5.98737 9.96406C5.76541 9.89384 6.12696 9.1462 6.11387 9.01521C5.90525 9.20769 5.52091 9.69498 5.02921 9.45379L5.28461 11.9153C5.28461 11.9153 5.96343 12.4517 8.00829 12.4517C10.0532 12.4517 10.7571 11.9237 10.7571 11.9237L11.0742 9.07265C10.8148 9.32531 9.99356 9.77399 9.94098 9.26824" fill="#D34A47"/>
</svg>
